<mxfile host="app.diagrams.net" agent="Mozilla/5.0 (Windows NT 10.0; Win64; x64; rv:141.0) Gecko/20100101 Firefox/141.0" version="28.0.7">
  <diagram name="Page-1" id="PvRTteq0QrgbkRMtqLZX">
    <mxGraphModel dx="991" dy="580" grid="1" gridSize="10" guides="1" tooltips="1" connect="1" arrows="1" fold="1" page="1" pageScale="1" pageWidth="850" pageHeight="1100" math="0" shadow="0">
      <root>
        <mxCell id="0" />
        <mxCell id="1" parent="0" />
        <mxCell id="FOCP0r6xBPvjjaazQ5e0-3" value="" style="rounded=0;whiteSpace=wrap;html=1;dashed=1;fillColor=none;fontColor=#333333;strokeColor=#666666;" vertex="1" parent="1">
          <mxGeometry x="40" y="190" width="100" height="450" as="geometry" />
        </mxCell>
        <mxCell id="FOCP0r6xBPvjjaazQ5e0-1" value="&lt;b&gt;&lt;font style=&quot;font-size: 15px;&quot;&gt;High-Level Architecture&lt;/font&gt;&lt;/b&gt;" style="text;html=1;align=center;verticalAlign=middle;whiteSpace=wrap;rounded=0;" vertex="1" parent="1">
          <mxGeometry x="10" y="20" width="200" height="30" as="geometry" />
        </mxCell>
        <mxCell id="FOCP0r6xBPvjjaazQ5e0-2" value="&lt;b&gt;Sources&lt;/b&gt;" style="rounded=0;whiteSpace=wrap;html=1;strokeColor=#FFFFFF;" vertex="1" parent="1">
          <mxGeometry x="65" y="170" width="50" height="40" as="geometry" />
        </mxCell>
        <mxCell id="FOCP0r6xBPvjjaazQ5e0-5" value="" style="rounded=0;whiteSpace=wrap;html=1;dashed=1;fillColor=none;fontColor=#333333;strokeColor=#666666;" vertex="1" parent="1">
          <mxGeometry x="190" y="190" width="470" height="450" as="geometry" />
        </mxCell>
        <mxCell id="FOCP0r6xBPvjjaazQ5e0-4" value="&lt;b&gt;Data Warehouse&lt;/b&gt;" style="rounded=0;whiteSpace=wrap;html=1;dashed=1;strokeColor=#FFFFFF;" vertex="1" parent="1">
          <mxGeometry x="381.18" y="170" width="100" height="40" as="geometry" />
        </mxCell>
        <mxCell id="FOCP0r6xBPvjjaazQ5e0-6" value="" style="rounded=0;whiteSpace=wrap;html=1;dashed=1;fillColor=none;fontColor=#333333;strokeColor=#666666;" vertex="1" parent="1">
          <mxGeometry x="720" y="190" width="100" height="450" as="geometry" />
        </mxCell>
        <mxCell id="FOCP0r6xBPvjjaazQ5e0-9" value="&lt;b&gt;Consume&lt;/b&gt;" style="rounded=0;whiteSpace=wrap;html=1;dashed=1;strokeColor=#FFFFFF;" vertex="1" parent="1">
          <mxGeometry x="740" y="160" width="60" height="40" as="geometry" />
        </mxCell>
        <mxCell id="FOCP0r6xBPvjjaazQ5e0-10" value="&lt;b&gt;Bronze Layer&lt;/b&gt;" style="rounded=0;whiteSpace=wrap;html=1;fillColor=#ffe6cc;strokeColor=#d79b00;" vertex="1" parent="1">
          <mxGeometry x="200" y="220" width="120" height="30" as="geometry" />
        </mxCell>
        <mxCell id="FOCP0r6xBPvjjaazQ5e0-11" value="" style="rounded=0;whiteSpace=wrap;html=1;fillColor=none;strokeColor=#d79b00;" vertex="1" parent="1">
          <mxGeometry x="200" y="260" width="120" height="360" as="geometry" />
        </mxCell>
        <mxCell id="FOCP0r6xBPvjjaazQ5e0-13" value="&lt;b&gt;Silver Layer&lt;/b&gt;" style="rounded=0;whiteSpace=wrap;html=1;fillColor=#f5f5f5;strokeColor=#666666;fontColor=#333333;" vertex="1" parent="1">
          <mxGeometry x="360" y="220" width="130" height="30" as="geometry" />
        </mxCell>
        <mxCell id="FOCP0r6xBPvjjaazQ5e0-14" value="" style="rounded=0;whiteSpace=wrap;html=1;fillColor=none;strokeColor=#666666;fontColor=#333333;" vertex="1" parent="1">
          <mxGeometry x="360" y="260" width="130" height="360" as="geometry" />
        </mxCell>
        <mxCell id="FOCP0r6xBPvjjaazQ5e0-17" value="&lt;b&gt;Gold Layer&lt;/b&gt;" style="rounded=0;whiteSpace=wrap;html=1;fillColor=#fff2cc;strokeColor=#d6b656;" vertex="1" parent="1">
          <mxGeometry x="520" y="220" width="130" height="30" as="geometry" />
        </mxCell>
        <mxCell id="FOCP0r6xBPvjjaazQ5e0-18" value="" style="rounded=0;whiteSpace=wrap;html=1;fillColor=none;strokeColor=#d6b656;" vertex="1" parent="1">
          <mxGeometry x="520" y="250" width="130" height="370" as="geometry" />
        </mxCell>
        <mxCell id="FOCP0r6xBPvjjaazQ5e0-19" value="" style="image;aspect=fixed;html=1;points=[];align=center;fontSize=12;image=img/lib/azure2/general/Folder_Blank.svg;" vertex="1" parent="1">
          <mxGeometry x="60.5" y="220" width="49.29" height="40" as="geometry" />
        </mxCell>
        <mxCell id="FOCP0r6xBPvjjaazQ5e0-20" value="" style="image;aspect=fixed;html=1;points=[];align=center;fontSize=12;image=img/lib/azure2/general/Media_File.svg;" vertex="1" parent="1">
          <mxGeometry x="93.5" y="250" width="26" height="32" as="geometry" />
        </mxCell>
        <mxCell id="FOCP0r6xBPvjjaazQ5e0-21" value="" style="image;aspect=fixed;html=1;points=[];align=center;fontSize=12;image=img/lib/azure2/general/Folder_Blank.svg;" vertex="1" parent="1">
          <mxGeometry x="58.36" y="310" width="49.29" height="40" as="geometry" />
        </mxCell>
        <mxCell id="FOCP0r6xBPvjjaazQ5e0-22" value="" style="image;aspect=fixed;html=1;points=[];align=center;fontSize=12;image=img/lib/azure2/general/Media_File.svg;" vertex="1" parent="1">
          <mxGeometry x="91.36" y="340" width="26" height="32" as="geometry" />
        </mxCell>
        <mxCell id="FOCP0r6xBPvjjaazQ5e0-23" value="&lt;b&gt;CRM&lt;/b&gt;" style="rounded=0;whiteSpace=wrap;html=1;strokeColor=#FFFFFF;" vertex="1" parent="1">
          <mxGeometry x="56" y="282" width="54" height="18" as="geometry" />
        </mxCell>
        <mxCell id="FOCP0r6xBPvjjaazQ5e0-24" value="&lt;b&gt;ERP&lt;/b&gt;" style="rounded=0;whiteSpace=wrap;html=1;strokeColor=#FFFFFF;" vertex="1" parent="1">
          <mxGeometry x="56" y="380" width="54" height="18" as="geometry" />
        </mxCell>
        <mxCell id="FOCP0r6xBPvjjaazQ5e0-26" value="" style="line;strokeWidth=1;rotatable=0;dashed=0;labelPosition=right;align=left;verticalAlign=middle;spacingTop=0;spacingLeft=6;points=[];portConstraint=eastwest;fillColor=#f5f5f5;fontColor=#333333;strokeColor=#666666;" vertex="1" parent="1">
          <mxGeometry x="47.65" y="398" width="82.35" height="10" as="geometry" />
        </mxCell>
        <mxCell id="FOCP0r6xBPvjjaazQ5e0-27" value="&lt;div&gt;&lt;font style=&quot;font-size: 7px;&quot;&gt;&lt;b&gt;Object Type:&lt;/b&gt; CSV Files&lt;/font&gt;&lt;/div&gt;&lt;div&gt;&lt;font style=&quot;font-size: 7px;&quot;&gt;&lt;b&gt;Interface:&lt;/b&gt; Files in Folders&lt;/font&gt;&lt;/div&gt;" style="text;html=1;align=center;verticalAlign=middle;whiteSpace=wrap;rounded=0;" vertex="1" parent="1">
          <mxGeometry x="47.65" y="410" width="92.35" height="30" as="geometry" />
        </mxCell>
        <mxCell id="FOCP0r6xBPvjjaazQ5e0-28" value="" style="html=1;verticalLabelPosition=bottom;align=center;labelBackgroundColor=#ffffff;verticalAlign=top;strokeWidth=2;strokeColor=#d79b00;shadow=0;dashed=0;shape=mxgraph.ios7.icons.data;fillColor=#ffe6cc;" vertex="1" parent="1">
          <mxGeometry x="238.83" y="275.45" width="40" height="44.55" as="geometry" />
        </mxCell>
        <mxCell id="FOCP0r6xBPvjjaazQ5e0-29" value="" style="html=1;verticalLabelPosition=bottom;align=center;labelBackgroundColor=#ffffff;verticalAlign=top;strokeWidth=2;strokeColor=#666666;shadow=0;dashed=0;shape=mxgraph.ios7.icons.data;fillColor=#f5f5f5;fontColor=#333333;" vertex="1" parent="1">
          <mxGeometry x="397.51" y="275.45000000000005" width="40" height="41.8" as="geometry" />
        </mxCell>
        <mxCell id="FOCP0r6xBPvjjaazQ5e0-30" value="" style="html=1;verticalLabelPosition=bottom;align=center;labelBackgroundColor=#ffffff;verticalAlign=top;strokeWidth=2;strokeColor=#d6b656;shadow=0;dashed=0;shape=mxgraph.ios7.icons.data;fillColor=#fff2cc;" vertex="1" parent="1">
          <mxGeometry x="563.82" y="275.45" width="40" height="44.55" as="geometry" />
        </mxCell>
        <mxCell id="FOCP0r6xBPvjjaazQ5e0-31" value="" style="shape=singleArrow;whiteSpace=wrap;html=1;fillColor=#dae8fc;strokeColor=#6c8ebf;" vertex="1" parent="1">
          <mxGeometry x="140" y="330" width="50" height="20" as="geometry" />
        </mxCell>
        <mxCell id="FOCP0r6xBPvjjaazQ5e0-32" value="" style="shape=singleArrow;whiteSpace=wrap;html=1;fillColor=#dae8fc;strokeColor=#6c8ebf;arrowWidth=0.42794346573329123;arrowSize=0.32400054931640626;" vertex="1" parent="1">
          <mxGeometry x="320" y="320" width="40" height="36.36" as="geometry" />
        </mxCell>
        <mxCell id="FOCP0r6xBPvjjaazQ5e0-33" value="" style="shape=singleArrow;whiteSpace=wrap;html=1;fillColor=#dae8fc;strokeColor=#6c8ebf;arrowWidth=0.4956888090525598;arrowSize=0.32506937494619725;" vertex="1" parent="1">
          <mxGeometry x="490.96" y="320" width="29.04" height="33.63" as="geometry" />
        </mxCell>
        <mxCell id="FOCP0r6xBPvjjaazQ5e0-34" value="" style="shape=singleArrow;whiteSpace=wrap;html=1;fillColor=#dae8fc;strokeColor=#6c8ebf;arrowWidth=0.43733479817708487;arrowSize=0.29999932183159783;" vertex="1" parent="1">
          <mxGeometry x="660" y="322.5" width="60" height="25" as="geometry" />
        </mxCell>
        <mxCell id="FOCP0r6xBPvjjaazQ5e0-35" value="&lt;font style=&quot;font-size: 10px;&quot;&gt;Raw Data&lt;/font&gt;" style="text;html=1;align=center;verticalAlign=middle;whiteSpace=wrap;rounded=0;" vertex="1" parent="1">
          <mxGeometry x="228.82" y="325" width="60" height="20" as="geometry" />
        </mxCell>
        <mxCell id="FOCP0r6xBPvjjaazQ5e0-37" value="&lt;font style=&quot;font-size: 10px;&quot;&gt;Clean, Standardized Data&lt;/font&gt;" style="text;html=1;align=center;verticalAlign=middle;whiteSpace=wrap;rounded=0;" vertex="1" parent="1">
          <mxGeometry x="378.09000000000003" y="330" width="95" height="30" as="geometry" />
        </mxCell>
        <mxCell id="FOCP0r6xBPvjjaazQ5e0-38" value="&lt;font style=&quot;font-size: 10px;&quot;&gt;Business-Ready Data&lt;/font&gt;" style="text;html=1;align=center;verticalAlign=middle;whiteSpace=wrap;rounded=0;" vertex="1" parent="1">
          <mxGeometry x="537.65" y="322" width="100" height="18" as="geometry" />
        </mxCell>
        <mxCell id="FOCP0r6xBPvjjaazQ5e0-39" value="" style="line;strokeWidth=1;rotatable=0;dashed=0;labelPosition=right;align=left;verticalAlign=middle;spacingTop=0;spacingLeft=6;points=[];portConstraint=eastwest;fillColor=#f5f5f5;fontColor=#333333;strokeColor=#666666;" vertex="1" parent="1">
          <mxGeometry x="371.18" y="398" width="108.82" height="10" as="geometry" />
        </mxCell>
        <mxCell id="FOCP0r6xBPvjjaazQ5e0-40" value="&lt;div align=&quot;left&quot;&gt;&lt;font style=&quot;font-size: 7px;&quot;&gt;&lt;b&gt;Object Type:&lt;/b&gt;&amp;nbsp;Tables&lt;/font&gt;&lt;/div&gt;&lt;div align=&quot;left&quot;&gt;&lt;font style=&quot;font-size: 7px;&quot;&gt;&lt;b&gt;Load:&amp;nbsp;&lt;br&gt;&lt;/b&gt;&lt;/font&gt;&lt;ul&gt;&lt;li&gt;&lt;font style=&quot;font-size: 7px;&quot;&gt;Batch Processing&lt;/font&gt;&lt;/li&gt;&lt;li&gt;&lt;font style=&quot;font-size: 7px;&quot;&gt;Full Load&lt;/font&gt;&lt;/li&gt;&lt;li&gt;&lt;font style=&quot;font-size: 7px;&quot;&gt;Truncate &amp;amp; Insert&lt;/font&gt;&lt;/li&gt;&lt;/ul&gt;&lt;font style=&quot;font-size: 7px;&quot;&gt;No &lt;b&gt;Transformations&lt;/b&gt;&lt;/font&gt;&lt;/div&gt;&lt;div align=&quot;left&quot;&gt;&lt;font style=&quot;font-size: 7px;&quot;&gt;&lt;b&gt;Data Model&lt;/b&gt;: none (as-is)&lt;/font&gt;&lt;/div&gt;" style="text;html=1;align=left;verticalAlign=middle;whiteSpace=wrap;rounded=0;" vertex="1" parent="1">
          <mxGeometry x="217.65" y="410" width="92.35" height="160" as="geometry" />
        </mxCell>
        <mxCell id="FOCP0r6xBPvjjaazQ5e0-41" value="" style="line;strokeWidth=1;rotatable=0;dashed=0;labelPosition=right;align=left;verticalAlign=middle;spacingTop=0;spacingLeft=6;points=[];portConstraint=eastwest;fillColor=#ffe6cc;strokeColor=#d79b00;" vertex="1" parent="1">
          <mxGeometry x="206.47" y="398" width="103.53" height="10" as="geometry" />
        </mxCell>
        <mxCell id="FOCP0r6xBPvjjaazQ5e0-42" value="&lt;div align=&quot;left&quot;&gt;&lt;font style=&quot;font-size: 7px;&quot;&gt;&lt;b&gt;Object Type:&lt;/b&gt;&amp;nbsp;Tables&lt;/font&gt;&lt;/div&gt;&lt;div align=&quot;left&quot;&gt;&lt;font style=&quot;font-size: 7px;&quot;&gt;&lt;b&gt;Load:&lt;/b&gt;&lt;/font&gt;&lt;/div&gt;&lt;ul&gt;&lt;li align=&quot;left&quot;&gt;&lt;font style=&quot;font-size: 7px;&quot;&gt;Batch Processing&lt;/font&gt;&lt;/li&gt;&lt;li align=&quot;left&quot;&gt;&lt;font style=&quot;font-size: 7px;&quot;&gt;Full Load&lt;/font&gt;&lt;/li&gt;&lt;li align=&quot;left&quot;&gt;&lt;font style=&quot;font-size: 7px;&quot;&gt;Truncate &amp;amp; Insert&lt;/font&gt;&lt;/li&gt;&lt;/ul&gt;&lt;div align=&quot;left&quot;&gt;&lt;font style=&quot;font-size: 7px;&quot;&gt;&lt;b&gt;&lt;font&gt;Transformations:&lt;/font&gt;&lt;/b&gt;&lt;/font&gt;&lt;/div&gt;&lt;ul&gt;&lt;li&gt;&lt;font style=&quot;font-size: 7px;&quot;&gt;Data Cleansing&lt;/font&gt;&lt;/li&gt;&lt;li&gt;&lt;font style=&quot;font-size: 7px;&quot;&gt;Data Standardization&lt;/font&gt;&lt;/li&gt;&lt;li&gt;&lt;font style=&quot;font-size: 7px;&quot;&gt;Data normalization&lt;/font&gt;&lt;/li&gt;&lt;li&gt;&lt;font style=&quot;font-size: 7px;&quot;&gt;Derived Columns&lt;/font&gt;&lt;/li&gt;&lt;li&gt;&lt;font style=&quot;font-size: 7px;&quot;&gt;Data Enrichment&lt;/font&gt;&lt;/li&gt;&lt;/ul&gt;" style="text;html=1;align=left;verticalAlign=middle;whiteSpace=wrap;rounded=0;" vertex="1" parent="1">
          <mxGeometry x="369.04999999999995" y="420" width="121.91" height="190" as="geometry" />
        </mxCell>
        <mxCell id="FOCP0r6xBPvjjaazQ5e0-43" value="" style="line;strokeWidth=1;rotatable=0;dashed=0;labelPosition=right;align=left;verticalAlign=middle;spacingTop=0;spacingLeft=6;points=[];portConstraint=eastwest;fillColor=#fff2cc;strokeColor=#d6b656;" vertex="1" parent="1">
          <mxGeometry x="527.65" y="398" width="110" height="10" as="geometry" />
        </mxCell>
        <mxCell id="FOCP0r6xBPvjjaazQ5e0-44" value="&lt;div align=&quot;left&quot;&gt;&lt;font style=&quot;font-size: 7px;&quot;&gt;&lt;b&gt;Object Type:&lt;/b&gt;&amp;nbsp;Views&lt;/font&gt;&lt;/div&gt;&lt;div align=&quot;left&quot;&gt;&lt;font style=&quot;font-size: 7px;&quot;&gt;No &lt;b&gt;Load&lt;/b&gt;&lt;/font&gt;&lt;/div&gt;&lt;div align=&quot;left&quot;&gt;&lt;font style=&quot;font-size: 7px;&quot;&gt;&lt;b&gt;Transformations:&lt;/b&gt;&lt;/font&gt;&lt;/div&gt;&lt;ul&gt;&lt;li align=&quot;left&quot;&gt;&lt;font style=&quot;font-size: 7px;&quot;&gt;&lt;font&gt;Data Integrations&lt;/font&gt;&lt;/font&gt;&lt;/li&gt;&lt;li align=&quot;left&quot;&gt;&lt;font style=&quot;font-size: 7px;&quot;&gt;&lt;font&gt;Aggregations&lt;/font&gt;&lt;/font&gt;&lt;/li&gt;&lt;li align=&quot;left&quot;&gt;&lt;font style=&quot;font-size: 7px;&quot;&gt;&lt;font&gt;Business Logics&lt;/font&gt;&lt;/font&gt;&lt;/li&gt;&lt;/ul&gt;&lt;div align=&quot;left&quot;&gt;&lt;div&gt;&lt;font style=&quot;font-size: 7px;&quot;&gt;&lt;b&gt;Data M&lt;font style=&quot;line-height: 60%;&quot;&gt;odel:&lt;/font&gt;&lt;/b&gt;&lt;/font&gt;&lt;/div&gt;&lt;div&gt;&lt;ul&gt;&lt;li&gt;&lt;font style=&quot;font-size: 7px;&quot;&gt;Star Schema&lt;/font&gt;&lt;/li&gt;&lt;li&gt;&lt;font style=&quot;font-size: 7px;&quot;&gt;Flat Table&lt;/font&gt;&lt;/li&gt;&lt;li&gt;&lt;font style=&quot;font-size: 7px;&quot;&gt;Aggregated Table&lt;/font&gt;&lt;/li&gt;&lt;/ul&gt;&lt;/div&gt;&lt;/div&gt;" style="text;html=1;align=left;verticalAlign=middle;whiteSpace=wrap;rounded=0;" vertex="1" parent="1">
          <mxGeometry x="528.82" y="398" width="110" height="220" as="geometry" />
        </mxCell>
        <mxCell id="FOCP0r6xBPvjjaazQ5e0-48" value="" style="image;aspect=fixed;html=1;points=[];align=center;fontSize=12;image=img/lib/azure2/power_platform/PowerBI.svg;" vertex="1" parent="1">
          <mxGeometry x="740" y="260" width="37.5" height="50" as="geometry" />
        </mxCell>
        <mxCell id="FOCP0r6xBPvjjaazQ5e0-49" value="" style="image;aspect=fixed;html=1;points=[];align=center;fontSize=12;image=img/lib/azure2/ai_machine_learning/Anomaly_Detector.svg;" vertex="1" parent="1">
          <mxGeometry x="754" y="393" width="38" height="38" as="geometry" />
        </mxCell>
        <mxCell id="FOCP0r6xBPvjjaazQ5e0-50" value="" style="outlineConnect=0;dashed=0;verticalLabelPosition=bottom;verticalAlign=top;align=center;html=1;shape=mxgraph.aws3.machine_learning;fillColor=#2E73B8;gradientColor=none;" vertex="1" parent="1">
          <mxGeometry x="744.88" y="500" width="48.25" height="50" as="geometry" />
        </mxCell>
        <mxCell id="FOCP0r6xBPvjjaazQ5e0-51" value="&lt;font style=&quot;font-size: 10px;&quot;&gt;Machine Learning&lt;/font&gt;" style="text;html=1;align=center;verticalAlign=middle;whiteSpace=wrap;rounded=0;" vertex="1" parent="1">
          <mxGeometry x="730" y="560" width="80" height="28" as="geometry" />
        </mxCell>
        <mxCell id="FOCP0r6xBPvjjaazQ5e0-52" value="&lt;font style=&quot;font-size: 10px;&quot;&gt;Ad-Hoc SQL Series&lt;/font&gt;" style="text;html=1;align=center;verticalAlign=middle;whiteSpace=wrap;rounded=0;" vertex="1" parent="1">
          <mxGeometry x="734" y="439" width="70" height="18" as="geometry" />
        </mxCell>
        <mxCell id="FOCP0r6xBPvjjaazQ5e0-53" value="&lt;font style=&quot;font-size: 10px;&quot;&gt;BI &amp;amp; Reporting&lt;/font&gt;" style="text;html=1;align=center;verticalAlign=middle;whiteSpace=wrap;rounded=0;" vertex="1" parent="1">
          <mxGeometry x="734" y="332" width="70" height="18" as="geometry" />
        </mxCell>
        <mxCell id="FOCP0r6xBPvjjaazQ5e0-54" value="" style="shape=image;html=1;verticalAlign=top;verticalLabelPosition=bottom;labelBackgroundColor=#ffffff;imageAspect=0;aspect=fixed;image=https://icons.diagrams.net/icon-cache1/Ionicons_Fill_Vol_2-2187/logo-tableau-566.svg" vertex="1" parent="1">
          <mxGeometry x="770" y="275.45" width="40" height="40" as="geometry" />
        </mxCell>
        <mxCell id="FOCP0r6xBPvjjaazQ5e0-55" value="" style="shape=image;verticalLabelPosition=bottom;labelBackgroundColor=default;verticalAlign=top;aspect=fixed;imageAspect=0;image=data:image/png,iVBORw0KGgoAAAANSUhEUgAAAgAAAAIACAYAAAD0eNT6AAAgAElEQVR4XuxdB3wUVf5/783spkMIJfTeEaTXEEhCDSTUqIhnOQt6Hqee3t/u4Z2n3p133omeZ8VTUCHSQi8hhN5ButIMvUNIQrK7M/P+v5ktmd1skt3NLin7m88nsNl988r3beb3fb9KCV6IACKACCACiAAiEHQI0KBbMS4YEUAEEAFEABFABAgSAPwSIAKIACKACCACQYgAEoAg3HRcMiKACCACiAAigAQAvwOIACKACCACiEAQIoAEIAg3HZeMCCACiAAigAggAcDvACKACCACiAAiEIQIIAEIwk3HJSMCiAAigAggAkgA8DuACCACiAAigAgEIQJIAIJw03HJiAAigAggAogAEgD8DiACiAAigAggAkGIABKAINx0XDIigAggAogAIoAEAL8DiAAigAggAohAECKABCAINx2XjAggAogAIoAIIAHA7wAigAggAogAIhCECCABCMJNxyUjAogAIoAIIAJIAPA7gAggAogAIoAIBCECSACCcNNxyYgAIoAIIAKIABIA/A4gAogAIoAIIAJBiAASgCDcdFwyIoAIIAKIACKABAC/A4gAIoAIIAKIQBAigAQgCDcdl4wIIAKIACKACCABwO8AIoAIIAKIACIQhAggAQjCTcclIwKIACKACCACSADwO4AIIAKIACKACAQhAkgAgnDTccmIACKACCACiAASAPwOIAKIACKACCACQYgAEoAg3HRcMiKACCACiAAigAQAvwOIACKACCACiEAQIoAEIAg3HZeMCCACiAAigAggAcDvACKACCACiAAiEIQIIAEIwk3HJSMCiAAigAggAkgA8DuACCACiAAigAgEIQJIAIJw03HJiAAigAggAogAEgD8DiACiAAigAggAkGIABKAINx0XDIigAggAogAIoAEAL8DiAAigAggAohAECKABCAINx2XjAggAogAIoAIIAHA7wAigAggAogAIhCECCABCMJNxyUjAogAIoAIIAJIAPA7gAggAogAIoAIBCECSACCcNNxyYgAIoAIIAKIABIA/A4gAogAIoAIIAJBiAASgCDcdFwyIoAIIAKIACKABAC/A4gAIoAIIAKIQBAigAQgCDcdl4wIIAKIACKACCABwO8AIoAIBAQBznnY5cuXHw4JCfk+Ojr6RkAGwU4RAUTAZwSQAPgMHd6ICCAC7hC4detWvdy8vEcNgvAM56QRY/TB2NjYbxAtRAARqFoIIAGoWvuBs0EEqi0Cv/zySytKjc+KIn8MBH84pZSA8IcfthAIwMRquzCcOCJQQxFAAlBDNxaXhQjcKQSOHTvW02g0PgsCfwqo/UVKGaGq4AcCoL4GElAIBKA+fF5wp+aE4yACiED5CCABKB8jbIEIIAIuCICgpydPnkxSFOUZEPJjrQIfBL/t1O+GBEwCErAAgUQEEIGqgwASgKqzFzgTRKDKIwCC33jkyJH7DAbD/ykK76IX/GWRADADzAYC8Ksqv0CcICIQRAggAQiizcalIgK+IgCCv9bBgwcfoYy9ACf9pupJ3yHwdep+vepf/1oUhdz69es3gPvMvs4B70MEEAH/IoAEwL94Ym+IQI1CANT8LfLz858Fwf8Y4STSSfDrSUApqn89CRAENqZBgwbLaxRAuBhEoBojgASgGm8eTh0RCBQC27fvay+K8stgy58Kwt9gdehTT/3g1Oci+F3NAJSIOxlTloui+AZEA0AXVodAMAN8B2aA+wM1Z+wXEUAEvEMACYB3eGFrRKBGI3Do0KEu+fm3XwTP/SkguEW7Y58Htv7DIOTTAZxv27Rp87MK0rlz5zaD6WCg5hBo1RDcFgShIZgC8mo0iLg4RKCaIIAEoJpsFE4TEQgkArt37+5mMkkvwAH/fhDWgv6kr4XyuT3108OEsPTQUOP3rVq1Ouo6PyAA08FR8AOXkMCHQAvwdSDXgn0jAoiAZwggAfAMJ2yFCNRIBNav3z6AGaTXRCaMJhDa5xD8enW/7rUgCnlABubASf6/HTp0+LEsUE6dOtUQ8gOcBTMAEAqrGQDuWw1+ACNrJJi4KESgmiGABKCabRhOFxHwBwJbtmzpajbLr8PhPs2dfd/11A9e/OoJ/yv4+bRbt24e5/UHLcBaMAMk2fMCiIKggC9A83r16p3zxzqwD0QAEfAdASQAvmOHdyIC1Q6BHTt2gI0//09MECeoyXysqn2bir/k6yJRYOkQ8//frl27bvFlsUAAHgUzwOdqSmDNiRAYh9FoeL5u3br/9KU/vAcRQAT8hwASAP9hiT0hAlUWgeXLM9uIIpkBMvh+kPogj62CX3POK/n6stFg/LckmT/p16/ftYos6sqVK1Fms/kcmAGidL4ABxs2jO1akX7xXkQAEag4AkgAKo4h9oAIVFkEli9f3pSL4h8EhU8DgR+iF/iuqn+w7/8CKvp/gYr+s969e9/216LOnDnzIYz7tHN6YDoInAF90ir4a17YDyIQ7AggAQj2bwCuv0YiAIK/lqSIr4iC8gwk8Al1nL7dnPoNopAD5oA/SZL0dUJCguRvQK5du9a5qMh0kBBwMrSFBEJSoK/BGfAhf4+F/SECiIDnCCAB8BwrbIkIVHkE5s2bJ0RERDwuycqboOlvoAp+66nfuUKf+j6c9i/AR3+Jj4//LNApes+ePbuOEJqgMwMUhoaGNImOjvbYobDKg48TRASqGQJIAKrZhuF0EYHSEPjhhxUjGbP8gzLexUngu5z6IRSvkHDlPVmW/zpy5Mg7UqIXzACTgGT8oDcDgKnhGdACfIA7igggApWDABKAysEdR0UE/IbAypUru+Tl3X4PDvmj7ILf3akfbPycK+R7QSAvDR8+/LTfJuBBR2BiEEALsB+EfmcdCTgEfgB3eXA7NkEEEIEAIIAEIACgYpeIwJ1AYNashdHh4ea/QEjfE+BlL9pD7UohAT/D50+OGjUq607Mzd0YoAWYCMJ/vktI4OCYmJhNlTUnHBcRCGYEkAAE8+7j2qstAt9+++0UEPz/hJN1w1JP/VbVvxk+/2tERNjb4OBXVJkLVvMOQF6A7UAC+ugKBM0HM8DkypwXjo0IBCsCSACCdedx3dUSgTlz5rSGxDofQUjfKC1bn4uTn171b38Nqv8L0GyTIgibRc43jRgxYg98xisDgEuXLo2AaINVusyAsqIoHcAUcKIy5oNjIgLBjAASgGDefVx7tUHgk08+MYSHh/8Bsve8Bur+MHtxnhKFejwhBAK9DLb4HQohO8NDQ3cVFBTsAmfAy3cKjPPnz6+EsUbaQwINBvEDyAz4zJ0aH8dBBBABKwJIAPCbgAhUcQS++OKLOEEU/wuCv0v5p34trW8uqNhruzMNlBYSCLkAToOK/keIEDgE5OBAWFjY4QsXLhxJTk42+RuenJyc1pBe+ADYJ8JVIgPj5cPvzerUqXPT32Nhf4gAIlA6AkgA8NuBCFRRBCCmPwzy9r8Lp/7pIPxtefut+fTLUv0LjP4YHh499bZcOJhZlJFMoFCMh0aVk/7XmhJYny+AMYlSMQeCB46D+eCEoCjHQVgf51yEQj6WCydPnrx8zz33yL7Ad/ny5d9Jkvxvuy8AISEvxsZG/82XvvAeRAAR8A0BJAC+4YZ3IQIBReDzzz/vAcbx2ZQKEDannpJtgl/L21/8Guz7ZiAHRldCAE2+njhxopZp75NPdhkaNbo8MCREHAlxgCMpE3roCwGVlR5YK+BjLxaklfS11g+wJhISFXh9GX69xDk7xxiH18I5So2XQkPpZVEU8+DzwqKiolvwfx4k/SkEQpPfvHnzWzAtBTQMC4FwjLMlJToLZoDW0M4SUGCxc0QAEXAggAQAvwyIQBVCQM3kd+PGDdXW/6Ym2PUCXyf4QeCvhI/eghN5CEQDrIa2cPDXkQNoazSIz6akpPzbdXmrVq1qAKr+EYpCR0JOgARQLjQppSiQTSvgTAJK+B3YxtWTA/trO3HRZQDUyAPM1SQIIgh7HmmvEgjpgR+GMsH/q0LbgVNBBGo0AkgAavT24uKqEwLvv/9xy9BQ8rXC6eAyTv1XjGEhT069774F9rWlp8//oyRLUOmvOOWv7bVMadjkCRNGLioLh6ysrJayTOKMRmEQRBio/gadQUPgqBjoWjTIVSvgJ0Kg+gIcAwLQCfr3yaxQnfYa54oIVAUEkABUhV3AOQQ9Ah988MGDhAozQfjVcpyaS6j+xV2USBN//etfn9EDpgrrb+fOXy1QRbX1O/L+q69BTX8bNPgJoAnY4SnIGzdurAPCeCD0Gwd9xIEJoDcI+VC7hqH4pK85HNpMArbXLmaCMrUCuvXZNQRgNvgVJAaa7elcsR0igAj4jgASAN+xwzsRgQojMGvWrNCbN2/9F4TsQ9ZTv9XG7uSwZ1WZb27cuBE45Ser9vMSFyQGiqUG4y7GeVM3moBrYWEhQyHUDyryeX9BZcGQ+vXr92ZMHKgoUi+YYA9Q37clQDysgrvYL6DEa+vcnZ0LHY6GtrXaTBtqXwJjR8EX4C7UAni/T3gHIuAtAkgAvEUM2yMCfkLgo48+alZUJM0HedjH3am/2AwgHjYa6KBHHnmkzDC577//vg8Y2DeAENbK/+qjBUATcBG4xZAxY8b87I/pb9q0KSo0NPJuUSQ9YJ53w1gQokg7wrjRXvoCOM1TnXNIiPH+2rVrf+ePeWIfiAAiUDoCSADw24EIVAICH374YfxtszQPTuyxpZ36VWEIznp5hMs9pk2b5lGmvLlz5z4AJOCbUtIDnxFFIQG0CB715QssV65caQwhfp1Ald8JTAjtgBS0YExoDuGEzSlT6nrgHKiu+TCYAbrCvZCrCC9EABEIFAJIAAKFLPaLCJSCwN/+9renKRPfh48NVg/4YtW/qxnAaBQffeyxx770Bswffvjh7wonL5SSCOi8KLDhQAIOe9OnP9oCIQi/fv16S4gEjIH+6oSGhtYxmzn4GyiPgAZE1SLYIwRUU8h9YAqY649xsQ9EABFwjwASAPxmIAJ3CAHVlr7vwIGPKKePOk79dvu33iHO9hrs4duefHLaQCAFXuXtV50C581bOIcJ/L5SNAE3IP3uaPAJ2H6Hlu52mOPH8xqEhub+B9Y3SW+uUF/D/E5C3gA1IsBcmXPEsRGBmowAEoCavLu4tiqDAEhw+sX06Y/cjoz8c0HtOo1LPfXrCIEo0Linnnpqsy+LgHwCkByILYIj9Wi9U6DduRDU7LmgCZgEhYEyfem/ovdAOuA0mMNHkL+gvpscAVanQUqmQ1jghxUdC+9HBBAB1ADgdwARqHQEVicP752vsD/faN2i241mrRpzQ4g1jK5EBIC4efpvn4yryIRVjUNhYWE6kIAUN5EBBLIIWoBvPAWagC8qMo439167dq3prVu3/gEC/h59rgNbNkAFCIEtskDD5AqYAdrC/24jH7wZF9siAohASQRQA4DfCkTgDiMwLy1NqHvuzEsKVV7NbxDLrzdvFZ7XuAlRjKGOlL8QEHdVFNkmhYg7IcJ+Xb16ETt9ybuvVhGsVy/2CzhQ/8odCdCiBQh9d9SoEa8G0ukOzBK1Tpw48SKc+p8FIR9e8tTPfoI0xfdBUSDIBEi72T+H3/8CEQGv3eEtwuEQgaBAAAlAUGwzLrIqIpA1sE93zshsWZa7cNAAFNWtT/IaNSEF8GOq24AAG9ATgiuCoMyKiIj4ZOrUqSe9Xc/ixYtfBsfAt0DIg7+d1dlOTwjAHLC8Vq1aD/br1++at32X1X7Xrl0GEOBPQJs/gmCv7+bUDykH2eeNGjV6QT3pQ32AvhBBsAUIg2DzC7gNr9uDKQAKEOGFCCAC/kQACYA/0cS+EAEvEVg+vW2I4cfab1GJ/B5uZfbbucFACuvWI0X1YklR/QbEVL8hkcPCVUKgMCrMhxz+/wd5AX7xZrhFixYNg2Q+X3HCm7irDCgKQk54eNg9AwcO9DhrYGnjQ3phsWnTpvdKkvQGCPL2mpnDJWkQ5Ck8YDDQ56Cdkx/C1avX/iUr8jP2BEIQuvglOAQ+6s1asS0igAiUjwASgPIxwhaIQMARWD+wxwALYV+DnGzr/EepquitlxQeDpqB+sQU24hYGjYxmerXf88ky29DjoDbrhNUSwnDezFK7dp1oiQpprDQHCOKtA7nhnaQvOf3QAJC3DkHql73IKdfSUpKet8XkwCc1iP37z/4KAjt52CMFnZtg3MVQSEH2r3RqlUrqHZYMtZf7ePq1au7wXGyvUoCIOugHBER3tdoNO4J+EbgAIhAECGABCCINhuXWrURWNOrV20ayr8AkT9JnalD9Ov+SvV/sNwgEnOdeiapTp0zptimkqVxE6bE1I2E6n4xIDiLswHqT98uqv8SJMBmHgCTwGY4dT/So0ePY56gdvLSpdiCy1engx3/KRD8MH7J9MBQ7e8KqPffbtmy5ccwrqmsfqEiYneLxbJVq0FgnfP2OnXqqCGRmBzIkw3BNoiABwggAfAAJGyCCNxJBNbF9XsCsv/NBAZgtI9b4g8V3ijWDRTPjhsNxAL+AxKYDSwNGhG5AZgOwJRAmVDC7u9sBijpF8CoCJoF5fVatSJn9u7dG0r3Ol9wUqc7d+6Mp6L4KOMkDYQzkI6SRYEg2mA/5DSY2bZt2znQptBTLCFp0NPgH/GhPUcAkIfHwU/hc0/vx3aIACJQNgJIAPAbgghUQQTWxfXqByJezYTXwumPVGDXKOECUUi0ftpwyC9xWd+C1lBj2NIglsjgRyDZ/idACgjYAtz5Ali1AqrN3lHt72hYWOgfwEFwqdoj1AFoDL4EDzGBPgLCuV0pVQJlOLkvBl++mV27dlrvK8SXr11Lh3TJk1USAGaFq0AAOsL8/Oqo6Ovc8D5EoLojgASguu8gzr/GIrAyLS0m9GLOHFCrj7I6AoA9nJDzPExMi1+9dduWCRPqSQUX2wqFvLNC5Q7weV/OeD9QkoeobR3OA9qdLqd38CJU6tXXNAQKaArUH96wIaHgaKgKfj0JsL8GFf4aQoQiSEw4GtqI7ksBG3ZRKn8XFhY2t0OHDhX23FfDByF3wA6YQweVBAAz+TQmOnpajd10XBgicAcRQAJwB8HGoRABbxFQcwbUu3jq7yCSn7PfC2LQrHD23NBN2//j2t+WtLQwS27OANAQJAoymcwVAsRAd9n+4u3aAdePlOhowuvHEgV+CPxwIAgEfqjR6FZbYHXSYxegn4/BRv99mzZtPPIZ8AYHk8nUOS8vfztoFCIhj4ACpoD+EA6505s+sC0igAiURAAJAH4rEIFqgMDmuH6PWATlYxDs4L1vnTBn9PPIPPk3vXfvLmGfty9p1+D+PW9TeQrY4X+lKEqsW8FfylPA/janoHeoAxYHiD4gYEIgDRprr1ksEAMIV4TwQXDM4xkgmL+AsL9V7vwFKgoxaAHSoKogmEQgYwKleyC3QD/4X6pov3g/IhDMCCABCObdx7VXKwQ2DO8/iJr4AgUU9vaJg7V+tbFZ27T+c+aUmS53e9LAAeBQtxkkteNvvnS/AbX3sk0I2vjgnU8gLJGpxAB+aMPGxNCw8Q3aqP48wkJmd+/efZM/Ab558+Z7isKfV6MC4HoVohTe9mf/2BciEGwIIAEIth3H9VZrBDbGxbVWRGkVVZS22kK0v2B+ADz9kxMWrDhb1uI2JQz4inDloTIFv8uHbh8QztzANmRxSwr+BRSiEMQ69W9IOcc+MRbe3iuL/GjPdn1/ojNnlhn+V9b8wR9AzM3NXQP/DxVE0QQj9oqKijpUrTcUJ48IVCICSAAqEXwcGhHwBYHNEyY0kG6cWwZFgnvbOQCk080Jl/nwHhu2l2qD35Sa2ljIu3IcNAhqkiAHfzCI/EUzM4Id39KAmClUKmT1gVnEUqY0opw3gHEaKGoofonJ6oS+g4y4X5HWkjGZCeIl1qZDNGvcwCI2asGF2EY8pFHTW2LdmDyoEWACf4JcEPASmBNyIUewGYwPBdZbGfgaCOr/DeDz8dbMgmxnragoNTcAmgJ8+SLhPUGPABKAoP8KIADVEYFVL3QDN7jwdE6U0fb5M4FdUrgycnDWjh9LW9PmhL7/AOH+e2c7gOG9ges2/qG0e3hamvHA7QtNwb7f2szF1iKXWsuEtuYyaQzx/Y2AULR2vbfEg6V4QEdTfRsaHkEEVWvQuBkxNIGf2FgiNmkOr5tqgl8rD6ylElaZiL1GgpYg6GUIDXy3Ou4hzhkRqGwEkABU9g7g+IiAjwiognnTlV/+BwL9PrtzH+PsOheNowZlZrv1kle1B/TmpRxClVCHFoDSc/3Xbm0OstWnLHtqn5GFF7taLEIXME/cxWTaC0wTXaEzgz4AsdyHja6B/SU1hhADVEo0QIEkjRjATwj8GIEoCCFGlRyYICKgJxCBwz7CiLchAkGLQLl/k0GLDC4cEagGCKhhgk2u5vwPkvJNLRbo5CYI32GDs7bvdreEreALwCl/yOkEHhaS2H9Zdpa/lqyGI4q5Z3sYFNYXqhfFAyEYClEIdVyP/54/gJxbQigkF6OjbwrRMddIaPgR85EDC8LCIg7mN7x+uPenu0vURvDXurAfRKAmIeD5319NWjWuBRGoQQioJKDptdOzIOb/V3Yff7CVXw+zkGHdN2zd67rUzUlJfRgvKK74pzr1cfJZ/3Xb1LK9AbnAvs/2jIzrwUSaCEQgBeoVDCSKAiZ+/eXiU+BgNJ5PCVwFFCA/p2C8g5Ax4DAX5QMkxHC4h1jvCE1PN3veE7ZEBGo+AkgAav4e4wqDAAFVwG5LHPAl2OMfUper/mGDMLxGIiPj+y/OLKEe35o0YDscovs6HgCCcKNf7cYN75SQ3JOWVl/OO58KVv0/Q0QDxBHaJu3lXnn+AGPgKEiPUcYPibJ80GI0HlLMpoN5L799PCEhAZ0IvcQdm9cMBDz/+6kZ68VVIAI1FgGVBGxN6jebcDLFEcfP2GklvN6AuIyM8/qF7xwd/6BsNqv+A8Vvi3R8/1VbFt8JgHanjWxL8vM/Aq+DEaWN5/HDyeOGupGg1rB6AUkyc4UeAZ+Iw1Au+YDChUNKVPj+Ht+v/OVO4IBjIAKViYAvfzqVOV8cGxFABMpAQHUM3Hrt/BJCZE2wqn/ggsD3KQ3aDtEnC8qaMSM0YuOaC6AxiNYeAuo/lH7Tb82WBwMJsDpurV3rXyIW+UWoNFjsiGgd1AIc5ivwRXzcPgfw+p8HyYYvcmoJBYITRahgIJxHQzmkOkzmdWVG6zIF3vfyssl/213Ov2nEgJDrCuV7ORH3hopkb1Eh2XuiTuzP96Sny14Ohc0RgSqLABKAKrs1ODFEwDcEstLSIkOvn80EQdlX6wH+ypkgrBauFY3Vpw3eMWzQbAgjLHYeJOTaL3WaxgZKyO0bM2CkIrEPYUbWJEa6i1JhS4gQOu1Sn4HHa29bYysZrMb600d6LN/4VVlI7OrVy0DqhdeLDAltYpJNjYmsNAUp3QiCB1sohLZhgtJGkQnkMPbuKqYF1lcQfFgAhGk/V/heYmS7Qi18R+eVm4/4Gj3h3WywNSLgfwSQAPgfU+wREah0BHZN6VXPcilkI6i2O9r/yLlA/9d/9dZH4HdNou1JHjjJYuY/2DiCNucQITz+7lWZG/25gFPJyQ1zlVv/Vji/x9GvbVIQtngT3nv57pUbP7UL0r2j43JhhrXUtiIX/9J11frXKjof0IxE7pWutqGFlvbEKHYBDUQXSCrQBUwQ7SA7ouhN/1Y6YKMHlEAKZr4T6jJsF4mwvWEt0/bY77Zf8qY/bIsIVBYCSAAqC3kcFxEIMAJbUke2ZYW3toOQi3EMZRT/3H/Fxjc0EQbJhHbui7gCL62ZAUECG0Thbz1WbAT1vH+ugykDJ5kl4b8gZOsV9wgne3V8zubWESKfbbV8+UX9aHtHDYFshnJbtRGnbG7P5Rvu889sSvaimkz237p4l8JYL8rkXgInvTgl3SCUwOjQAJS0EDh15EQINBxJDmC+jYpkmyyxDSdrNfwxUFqVQOGC/QYHAkgAgmOfcZVBisCekf2HgQBeAXZ10e7vZ6SgVl+z5SsVkp3DBy0GM0CqKrW0yAFCjvRas6VzReHaNaxXbUEI+wDyDdh8Cqz9a8SDsDOEytN6rti8wt04+0bFbwbNxUD1M3DS291t2SYt5fGdulRS8GPejb4ik4YqVBoCYYUQskjCrXN3LKLU6TgRAvUXRm5RmWwSDHQDtcgbTdfMO8uq4Hin1onjIAJIAPA7gAjUcAR2JcX9Tqbyv+3LhNC7IoVJcf1Xb9+9feTgx6gif6Z/ELDoqHa90lcd9xWWveOHDeXmwq+oQlvo+1CT9xCBfGkxhT7fe+3a3NL635c8eCGoB8ZbP2e53VdsgFrElXephGBf/s0+RCwcCoJ8COVsIJCmCE8IQQkyoC2J3AYtwzZR4hsMYmjWpT+8vgVDEStvf4N5ZCQAwbz7uPagQWD7sIFfUMJ/rS1YcwKgOUK9Fr3plXP14ZTryBOgVvwBg/jvuq/eMtNbcFQP/5jda98iMnkOVOgg73UXZRcgBv+R7ss2riqv332jh3xCqeJISiRHNGzQMz1dNVVUiUt1OhTrRz0PWoo/QySDk/+AJvBLMRlw/Qe6Nhw0BETh64hAV0YIMas7LllyqkosFCdR4xFAAlDjtxgXiAgQsuuJXuFKTugOyJPXxa7uBxm06pfoJmPa3LpwBYoI1XE8DChZ1HvVlgne4KbG9bO8AtWh8G7HfdCh1idjy5Tw2Ec8FeL7UuP+TCXqcPyjzDiw29LMrd7MJ1Bt904eNtRQYPojRBkMVSV9We4BpZEBt1oBHW+AKog/G2S20sz4Ktq8YD2mNg7UbmK/SADwO4AIBAkCh8eMuCvfnL8D/ugd5YDBRv8HqNiTCNX9iqsKEuHm8doN63nquLZ3dNJ4wi1fwWm4tgalTfBrSXYE9n/dMjZ8YI888ATqQ8lgsiBUZ7LgD3ZdvrsBRCUAACAASURBVOkbT+4NVJsDIPh5oflNKEUc73YMkOqM8l0K4TlQl2GSa5vSyYCNQug1Ak43syLGlXUSIwuEqMYZnpKoQOGA/dYsBJAA1Kz9xNUgAmUisG/k4CctivyxJqfV/AAgpOHVSkXhDkdAVYArYaxfn0Ubi+sFuOlVzTx4KCXuL7JEXlTUyry6NtDvJUUOndx95dpN3m7J4TFJ90nE/J39Pm4wvHn3onUzvO3HH+1/mpBwt8ksvQtH/VFuhTq8CXqANVQJ++vdK9dkgv/Cl1BX4RFVNwAxFa8qBm5kZrkfFXg/MIvU8Z0IaBERMpH5RpEqC8wkclHf1avP+GON2EfwIoAEIHj3HlcepAjsHDVoMdUEvvViDH5Tbfa6pwHnhpd7r17/bmkQ8RdeiPjx0LZvQKBNcH2IqJ771BI+oauPAuro6BGJFlaY6UhTTMmcrks3PHAnt2vvfeNbink3/8yYfL/qz+Cq6oc3gP+QxaBBeQuiFBxVFw8mDz4E5gEtioJF0c5d5244or6GtnR/akJ7Lln6At6DQZDHy5x0KEkqytEIwMfWwAIOGYzJTvhvIa1d64eKOG3eSVxxrKqFABKAqrUfOBtEIOAInE5NbXy56Krq+Acqe5ejO7ypPhQopWt7rNw03N1kfkpLbFKQL2VA4b2erp8LYO/PC49NG5iebsvm5/1yDo8Zc5dM8g7Y7wSBt73bsg39ve/J+zv41Km1juRffI0rlmfUXAAle9Ds/uCsF/p6m4w1u/Sf7xo2rHZoqOm6bHOALM95UU2QdJvkxlsUGg85ERLBqbBT8ZqdiUAJXwMbEbB7HEIioq0Gzr5mIp8LhOSG9yvHO4IRASQAwbjruOagR2D3iDjwsuef6E/9Kij2BwKjrEC6cruOa7z6vnvj2gv5ZA0IueZ6ENUof8b4PNPFwgcqGuN+fMKEBkWWa45selDa+FrnjPW6REL+3z7VnHF4bPzD4LPwNjhKOqUNtqvtKeXrw8JCXm+T7t6ssX9M3DDQ06/RZgeqg65LsiHlAmQQ8PA6mZzcIp/kjlJkNgpMBkmAMdQ4KIMIuJAAdRhYRhGYIJaIVP76xstvr8TwQg/BD9JmSACCdONx2cGNgKqS3jdiYJZC6RC94LczAFWgGxnp32X5JigbbL32pcb3oBZlJdzbwP6elt7H6uE36+eIho976jhYFvrz0tKEu0yXzPpQQrBRxATqZHtg3IiBomz5AAzsvdzOi7KjnEh/6Lpk09Ky5n1gfOIMbrH8UcOT8UvQvqGv3zI198BP+blxFl4wysKEUUSRu7pwAUfXqi1CH3uo+/WSyPm3iqh81Wvl9v2+zgXvq7kIIAGouXuLK0MEykTgx9SEDpLJfAAeAhAIoEot6z/2h4Jo4CD0Nr+nvqsKSdlctNzu6W8X/OpnkM9/4ZHIBmn+EP72CR8ZG38Zjs717b+HRhj6tpmbudOfWwon9joG0fhXEK6PwVjFz0KrRIVDPLsGB/kZeWduf+KJVuPg2MFZEAEwVL1XoMrGzks3uY8Y8GERP06d2FS5fnE0mApGEcqHgV6hlpNZwJ02QN+AkS2cGz9g1/IWeLIWH6aIt1RDBJAAVMNNwykjAv5CYM/oQR/AyXK6s+i39U6FjB4rsscdTR3eu8hiWqsKf73gV1txSrfcDo8dVhGbv7u1HE5NOAhubpCzwHqBLLv/riXZjsiAiq7/yLj4+zkX/gk1CjR1v7ONnUqcKh9aWrd+s8e/vlKLFZV7nYIkSLd3rb8BmgqtxDF4VH7aZVn2tHJv9KEBnz49ZM+pQyMEs+keWSCpKhmwg2RdR/FqXKMOYP/OM4PwcWFI3U8HLVx42Yfh8ZYahAASgBq0mbgURMBbBHZNmVJPvH72GHizO6Xb1UIECbkuhRoSDUVKJqjH67oKf5GxY7VbiAOafpR5zdtxy2t/aNyQdSDYEhwPKAN5o/OCbMi8V7HryMPjW5LcG59wmYxwkZXar+D8uC1UMjzVavmafd6MdDJ5RPxtVpRtvwey+z3bNWODI5eBN31501bNvthg6+qRZsLuURhPAcyiyjAJOJYMkQgmKJs8Vw6PnNnPxZnRm/GxbfVGAAlA9d4/nD0iUGEEDqQMekGy0L9bJaBeF669cwsEfy29s6D60FDzB0B534H6ELgKT0TXweGUhO9B43CvY06UfN1pcfZDvo6h+jwcS02cplD5byAgwbmu+LKdl29AoYJXOi9e5yhL7M1Yqv2fSpJm/1cvZggd0XnhaqtD4B26tqSlhUXlXRtlUSxq2eUUhchavQL1ctUEODQF2gu2VQ4R3u2/bMMSbxI23aFl4TABRAAJQADBxa4RgeqAgKpS/vHE3hMgJZq4zhdOxE5vOX6j/CUQ/n8N1Pp+Hp/4gaTINtOE6lRHtnRclD3Il/FU73qT4fbnsL5h7u6HJf5Qp36j38Z+/p0j8sDbcQ6Pi98GWoV+dmFbv2GThhXpz9vxXdurZMBQeGWMYLHcBz4DKY7yxjpbh54EqK/BbLEXnBf/1Gv11sVIBCq6A9XjfiQA1WOfcJaIQEARODhqyHMSlf9pH8RV3e/0oKB0AyTmSfAmxM3byR9PHfaahVhsKn8txPByh0XZTuF5nvR5IjXh1zJV3ldULYbLBWu6Cj4MT3dclDXPk75Ka3MLzCjnbp+/5IhaoPR4l4z17SrSpz/vVc08/Mb5Xwmy+TGZ0s4laxJZPQgd3IDzHykV/tRn7eaFSAT8uRNVry8kAFVvT3BGiMAdR0DL7Hdkxy8QA1+vVOFve1oIkAEI0tBtBc/5JXXCo+c3S8/wuXRwaQs9Mm7oNJBI/1U/tyshOkQ2qU3nzLnlCTgn0obVlk3KxwpVprhrL3CyNJrUmlY/I+O8J/2V1ebQ+OEPUNms1SqwClFhVpcl66yVF6vYBfkfeilEeQIiN+6H/yMdc7ZFPuidIaHs8SFqFP52KjJ2jj8jPKoYJEE9HSQAQb39uHhEoBiBfSkJb4Ad+01Xe7/WwvakKA4StN4nQI1hEBo74Z8FtWuTBc2+3XDMH5hCtsEJ3Kws0PelhLJeneeu21Ne/z+NGzmYk6LZMFenZEXqfZBC9xbj9DdtMtbPKa8fTz8/Oi5hNjCiqY4jNBMeB1+Czz29vzLabUpNjQoruj4Foh0eBc1FX20ObkiA+haENh6EOgR/GJi5aWVlzBXHDBwCSAAChy32jAhUKwRy09JiThdcPgcnw1Bnlb9d/he/6+Ia4OAITKAHFMGwQKDigo7zV/qcfOboxOGDiGxxFBJSRwZ1/b1lqesheY7wM899nSnya4qiCK7gU8p21OZR98cuWnTCXxujJuw5ZrlySVZ4tP30HBYR0qnVd6uP+muMQPeze1S/bgoxPAE+DKB1kUWNC+gGtfECNeHDcpHS53uv3lpt1hZo7Kp7/0gAqvsO4vwRAT8isG9s/Gym8KkOiQ4vrA+J0oW/LX+QcxvtFnocjAULeEjEgs7zl6tliJ3D7cuY95n749vdLmA/Ow3NDa92WLzmbXe35aWl1b8oX5kDpokS9QsgnJHD2H+/0eDWa70/3W3xI1zkcOqwMZRItgyBUAGQkvMdFmc39Wat/pyPN30BeYnceeP8CEhxPBaSHo2VFQUSL7n4A9jYgN1hELC0SIT9RzaxNwdvwpoD3uBdFdsiAaiKu4JzQgQqCYH9E4YPIaai9cUqf53wLxkiaEseqCMH+nk7zAZaxcGz4Mq30KgYFrYIqbWBpqdD0bzSL9WGL1kkSMJT3Df0MavdgpK29WNpSQMgpn0eVDRs6uix+LarIhentl60ZnUgIP15/NBZCicP20/JUCXw8w5L1j8eiLH80eeOESOaMZI/llMhlXI+lIO2p1ynQBjYoQWwNQaicw00Mn8sfOXtT7DegD92pnL6QAJQObjjqIhAlURAjZc/kDr4CJFJByd7v4vwLw4HdCP8dYLfusjiN9RXICSvwFk5A95e0L75XZl05kyTOzCOjU8qAgEVUvwZ39h+0Xqn9LonJ4+YLnH5PaooJSr3wVi7GQ2b1HrB8pxAgK3l6zdfuQh917H3rxjZxM7p6xYGYjxf+4SUx60tkjKZCjQN1Py9iz3+dXkDbboZXSSANpxbUwC8a88rwCg5HGpUpt+9Ysc6X+eH91UeAkgAKg97HBkRqJIIHBk/+GVIDORQtbva+60q/9JP/e4+Kd1ngOXKiryMGUMXtItusYJ++ultOyjHJiac0U719g4pudB+QVZjTTCB8D2uXP0PZL571C2IlM4SU+J/0+qRGUWBAvlYakKqQvliu5BkhJnq8Mj6EFmQF6gxPe13d9rItjTPNJkI0mQica3IkZP9RdP0F79TfMJ3FBhWXxyG6oKQ5VEZbGcDOspQTAKsCoLPSaM2L/T3MErD03Vgu8AigAQgsPhi74hAtUNALRLEZFlz9NILbggL+wqO73XhDJ8IQkHLMlesCbAu01X4lyb4XW/UNAOMFCqErwxRDAuUlk2WyqfPZEI9gJ52AFVbfus2vaLyc3LCr0jX58uEWwWTfVxrJ2aBK8+0mr9OCyEM5PXThIRFIPrG2eUohEWu7bR4fQkfhEDOQd/3AVDvc8Pt+7nC71U47WH/TBP0rid8+NA1ZTDslVmhbAMkXVpipGTpLSHmirHoyo9Awlo5+ipWEZTILgimkDOUiU9gtMCd2vGKj4MEoOIYYg+IQI1D4OCYIYchg1wn/cKMhP66/dLsWerp+3Bh3mAqWEYyIo2CB3/XYuHvibOgu9bF7EHrAQQ5U4gEEQnhOhFPjFz4lczkP4OwbekKOhPIDTkkfGK72UvXB3pDDj8xuJF4WTwN8lDzmlclLFXYU+0zAk889GvbNWxYbTHEPInKygNUIEPsyYhKOdHbZmrrQbX3MHYFUjqv4AZxiVy7yWr9CX7X8AEfw94+aV0dbAkl2UDc+sgygT0p3XwAHpdfmZs1fC7hq0UeFVIK9F5h/6UjgAQAvx2IACJQAoGfJgz+i8VCX7F/oD4oRJG+Atn43nFtfA1K1V65dX0kBNmPAiExDISGc2EhfSclYgpcBL9T59bHk16LoGoBnEr3Frc/wQQ+pnV61k93YjtPjRv6ooXSd+3CEdZuaRTSsHGt7767Gujxd/XqZYhoVHuUxM0PEC6kqmGb2jz0Ul/7vXgmDnW/VRlw0GCgS6lZXnKkdtPt7pL87BwxaDg4Ca4CjQxkelA1O+yn/Ljh3Q179sQYC669qTDyCJRR1kItS5INbdPOy5w/OXjdtiWBxgP79x0BJAC+Y4d3IgI1FoFDyXH9OGPbNAFsk8KUi//uvDTz2bIWnZWVJTb/z1/6W8wE6tbLowSq9AB1NMhta09OD5wSzoLFTMGd6aD4U5cZULK5vjF2/J0QvjZBy05MHn5UUeR2DjM6J8vaL84aG8gvhGqaMVD2KAj+h8BJs0EJtb6rXd/GTtTCTZyz9VDRcQmrHbW0x/crfylrntumTq0lXs45AA6YzbWTPzALozFsaLfl6zbY7zuUMKhLvsD/CiaaMXaHQNtw1ibACrT3GZ0dQi2/7b12d24gscG+fUMACYBvuOFdiECNRkAV5A3ef/MGpAaOtB/B4RQ4t/OSrPu8WfjxCRMaSDwfSu/KowXGh8PxHWLNNS7gTAbsBKGUJ5I74mCbh8QZf4XJYfMC5e3vut6ccYkpZsYz9AJPIPyBNgv9l13QPqZW4U++PJnI/DEmkcFW7YfOfa/YvG8TvLZPGbkNJ/gVoiAsKCw0Luu9dq3HAnjXiAGfQ/Y/zblSFeKUk0/7rN0yzd2+bxszJIEXWj4An5C77J8XEwI7CSAnKTdOGbhu4w5vvjvYNvAIIAEIPMY4AiJQLRE4PHbwGji8OyroQRrd7E5LNgz1dTFwkGQnHxjWS7Yoo5hCR1FO+1kz9oFmwM2TyNXBsHhc14TEDtm3RzTweZFC9Jy6cxac9XWe5d13bELiemgzxOFZJ7CCtjSmIeQ2yC/vXk8/PzIuXvWrmCZzNhVImGZS0Z+0HSTAybmP5QIZWkqYvEBqWLQSkh45Iio8HXfXyMFjKJeXgBnH6opB6HnWpF2XHl99Vao9XzVJWGqH/Z4x6Q3wQQjXhxIWR0gQCxXYK/3Wbv2HxmDwqhIIIAGoEtuAk0AEqh4CP01IekNSawPApT4oQCYc7bJkvZNjYEVmnTMmro451DCcKMJI6H8yeNFpFfvcC373Ql8b3+UpJjBIBqzIWXDq/KIli5oPgtlckXnq7z0xNakPL+TaSdbhRc/IF+3mZz1W0TGsWpcZE0Dl/jRULwSCYR1ELy1d7fpgW7lFOFukKHxu16jYtRVZ6x7IpqjknjsAo8baxwFNwKS+azc71WQobZ1HU/q2ulnAPgQtRbJ97g7iYnsBRG+ZbDH8CrMIVvTb4p/7kQD4B0fsBRGocQgcTRmRKBNTpv0hASe4a50WZdXz90KPT0x8GPr8DMaxetTrnkpuxX6pvgMlZwYC5yJkAvxMiiEft/x01YWKzv34pITvwS/uXns/qqBk4bRvmzmZO33t+1RycsPC0ILHmcSmQVGhJk5C0x0JoOQ2UehSIUT4Pqxb/IpWM/yT62DPqEGLgUik2seHvAYLe63eNNHbdW1JHJDGKJ8JWoRYdwSGMn5CNtKJ8Su3+1wrwts5YXv3CCABwG8GIoAIuEVAza9/pujyZYdQBk/3zouyS2Tcqwh8kPL3JQhhe1tzNC9L8Hsh9F04hNWOzUiRQumXxGL8m6++AscmJXQRqfCjarYoPpXTPW0XZGqJdry9Ttyb1MdyW3qWC6D9UIiGa2kOdaCLB0c+ugr8KL7vaIzN8Ke5QR0XygQ/AaN/otM35DYIrde5uY/lkjfAd0e8cf4zIkvj3GowGCkwyPzxftk7vvMWN2zvPwSQAPgPS+wJEahxCPw0bghUugOPc5vTXmjPhDB/nDhVf4ATk5L+Bd1OdxAM2wtQ4cuyrKTD6f0+986CxTDTssIF3O0GkBgQtp/Xa1z/zch/f3fJmw2D+UKKXz5eu8fmfMcoe6L1/LWfedqPSnROpg5LthD5D+Bdp6n59Xn2i+3n1h7h953gyPd1o7DY7wMV5XBiUny7W/l8L4QTRtjNGkB0nuq+amOFkyltT+z/mMzp+xBREKnHzb46xcDfGbxm56voF+DpN8i/7ZAA+BdP7A0RqFEIHE0ZmgXpbofaHxQGISa27cKFVq2AjxefPj3k1IVD30BEQJpe+GsqAE1A0we4yKcwmViFrf2yCm+D10Lf/TzzCBf/xsf0f8+TdMFnJiX3A3PIVqhg5JBVIPyvt6R1WnhyGlfXfPL8wangnPA8hEV2dvWC02fl44yc4ZI4W4mwfNN17oYjPsLs0W2q30Gtd9+AsstKPwcZEeimXss3DQFuBeb8il9bUke25Xk3v4Ge+jvGsLEBLcxQ4fNDCpQHe+/23mmx4rML7h6QAAT3/uPqEYEyEfgpZchHMiW/sT4oKIlh0W1jFy064StsapU/LsmLQIgP1Xv7WftnphCR3WupTXaw69JpELa2LHuECIRKIUJkR67kh5uIkMiZMgKIQhLIKF2xIN2sXJ9sbvzO1bfAsfEYJeKTLdNXlFnMJictKRM0IZAC2XpZVeX8T23mZ/2xLCw4xNT/XHD+aTBBTAdx2sg6Dav6QD8lCLUrgup684li+LJDxur1/hK+5e3TgZFD37IQy6sOb33KTLIide+9equWCtpfl0o0DG++9I5AyfOyLcLAgaPqR0HJLl6r4bg4H00O/ppnsPWDBCDYdhzXiwh4gcDhlPgXQVhrGe9UAhAaYujRKn3NPi+6cDS9kpraOM9YsAJy1XdzFf6QrKYI7NsTm81dt+LU5KSX4SZdMSLtMfVty/S1U/XjqsL1DLuWTMyW+yGkcDQcVx2EwaP52aSeml1QZvSrFmKDZ6mbYjYn0xKgdC6zFv1x3MNuxxjrtShNLZ+blhZzWbr6DPT9OyAy0SVz8VsZAGTaO0wNwmeNaN2va6enX/do3n5qtGdk3DDGINufohZotF4GwfB6t+Xr3/LTECW62ZLYNw1cKL6ElWsmAX2dAkhLnGMxWEYlrN7tV/IRqLXUhH6RANSEXcQ1IAIBQuBICnjoU3mW3TU/hIQPaZ2x3JERztNhT00Z0ZGbpZWg6m5RUvizAtEojGs6Z2WmaiM/PSnpmEJJG7uqXxXQVBG7N5u/slSv8VNpyQ2N1PIg3A8hdKR52fNyDq3T2lol4Ek1oU/T9Myt9vv5E0+E/3L9xGH4vYWjGbQVRD6zxdx1v3MdR3WcvChd+z08WJ+GUaIc/ejIA2gDCkFzkU4Fw2dt0teC+v3OX5em9Is9lxuyD9L5NrRrIwQi7Ljx0puDEhISpEDOaMO4pM5CXv4CMAF1KJHPgJFrhjDjmAHLN20P5BywbysCSADwm4AIIAKlInB8fOJoiyIvtyfrMVLDyNaL1qz2BrJjaUkDqEyXgNCDSoL2p47D6R9s8SFjwTNfIxVnp45Kspgsa/V2fnhILWuRvtajNLscVM1nvvzrZGpWQK3NHdnpdELeZerOZACOwpJsIC+3/Hbte2rDc2nD3gH3+5f0N0GJXBOo6jvoowl+geJAyhXxBSoI02TFWinRya6vLZuegGRKH7EWLWa1+lfpiXW8wdaXtjAv9mNy/ApI4zvCcQKHzIGCwdjz7ow7U0tBTTcsnz3xDTC71BKRD2qEAFXSBqzbtcKX9eE9niOABMBzrLAlIhB0CBxKje8B8eB7NLmtBupTltx20TqPH8w59ySmyBL7Xq3qpz1sHOF8kFiYkJs8lI5uNWetVnNAvX65N+k7sO07pRuGWwYDAfDqpAwVC4UzQu5DkHHwTRAyTZ0FuO03J78Al/S6nH4HJOQf0GQLqKuNToV2OPl3q/nWmghnn06qK1+kL4LW4WmI4dcqF7rY9jmk5M0UOP2g+aLMZdCnXxzrKvJF3DNq6EuUSFpRJzsBgORDv+u+esvMivTr7b0qEdk6rM8/ZZk+42oiASJmkSiZOjR7R7q3/WJ7zxFAAuA5VtgSEQg6BI6mpLTiNO+knQCwUCGl/dzMpZ4AcWJSwq8hdv0TaCuWFP70msTkkW3Ts3bb+1KFqXRZOAcC1+HYByRhU/P0tYM9Gc9dG1WFf+nm2Wcs1PIifF7btY3+9OmaYx/GlvSOiBoJYOxWPR7dtshkKioKMT0H4Xy/Jwqv7VJtj0AoYwEUC5oNpoyZkCXwkK/z9/d9B8aNGCiZirIBY81fQp03ZXRN9+Wb1GyMblwl/T2Dkv1tGNL3OcgH/R4wI4cvgmaWYBRMEcrDQ9bvnBP4WQTnCEgAgnPfcdWIgEcI/JSW2EQxKWft4fZwkh3XLiNLK4RT1nV8/IjXIDf8n+yle4sJgKr6Z5cNRBjuatM/NWnUc5RJ/7T3q94DcmAsOP8tK2+88j4HjUD9czT3P3Acn1w2CdDRAJs41EtFhfO3jZRcA8H+sqSQes4nVxCmnF6CmPd/iybLf1ss23SjvHndyc/3Q+plwHQfzLu5fd7g3HiT1ovoevecFQGrneDJGjcO6ZsGTORrMEtopY2tfgka4ZJFTh4flL0d/FDw8jcCSAD8jSj2hwjUIATUan4W+cYlOwGgRjaxQ/o6SIjj/lJV78eVazMhrO0pvSC3q/7B0eyCUeRJjeeuLRHfnpM27BA88jur99mE/35Q/Xf358n04oMp90tm80wQNDEliIBO0rue6B1roewGnOzr2H+3axAYY6dkrrzXmsbMgrwAhVXtK6A6V/6YPHgBOCaMd9J6GMUHemT4v4qhL+vfNaxf3G2JLwG5r0VN2PcANDGKxIVpCRu3fe5Lv3hP6QggAcBvByKACJSKgHpqNAjidTsB4CEhkzvNWzXf3Q1qspsTZw99Dc/ue/QJ+opP//yMMSomqdlX84+53n/unuGDLJxrdn77Q4mGGO9vPnu531PF8memxJ6/fONTrshWBzTbVZY5wKmdriIPF/hBIof8Pefp//s20N7zFfma7ksZMh0MGlC213qpS4A9Wth9hfe5/isyj/Lu3Rnfu0ehwNZAfGRdfR0BjQQY2EMJmdtnl9cHfu45AkgAPMcKWyICQYcAxO5HXSW3bjkEOuf3dMzILuGYpVb2k43iYplQsNc7l/dVHzJM4KcoiUxqmb7klDsQT6clzYIKeA87CIBITjaX6rSH0zSY4f178b+/EHFh18F/KVR5rESxGk062oSkTr/v7C9oPZuKnL/bdP66V/ypofDvSq297QNHTsFCIYuh7PCtgEzMF8wWQ9d+mZnXAjFmRfrcO7xP9zwLBRLA6zkRL7APgfblvsSNu9wS0IqMGaz3IgEI1p3HdSMCHiBwGMLb6CXhvONBoYSM77hk1WL9rdemTmx6o+jmSkjw08X6vgsBoOxYtMSS6i5efcbdkGp2QANh59VIATsBEAThqabfr6pwLnrX8S48OL6vIt2eDTHo7RyflVpy16aEduMLoDoEQipgWRDkdy7Wyv1T7093WzyA8443UQnceenGLmAs7XUqdXjJxnZbuQHCO6vmtSU+vqtCTGtlojSwz1DzwSTELBE6MXHjjgr7hVTNld/ZWSEBuLN442iIQLVCACrWtbcUyT85Js2E0R0XZq60/34sJaELFckKeDY3s7/nnKufHRHrmZJafrqx1FK8p9KGPQUPov/YhT/8f1FJjmvlSY5+T8FUfRMuCAUvM0F6Q5aJQb2v+HQJ8tDJ/l/8YWm+APqwQE7JDkNE9APuTBuezi9Q7faNjZ9NFT5Vb1MHKfpJ92WbngzUmP7qd9+gPl3yBLYOiKFGAux7BGGphZYwNixp9VYI0cSrIgggAagIengvIlDDETgyPqEXxLHvcpzCwkITOn2/cr36O5zc47hFzgCPeNW73HE5Mvgxul+Raw0vr3hQzr3DdsOJvKeDABgML7X4dsVf/QVt4WMprW7k2GcVdgAAIABJREFUy99AOYFBDjmvOZk5VmUVLoycBNtza70vgEcEwDrxfAOjDzWbu3aBv+Zd0X72Jw+dxols1aLYnOpgb37uFtGwlycFjCo6vj/u3zW4V89CKmYBCailJ2mM0OsGGho3YENgiyX5Yw1VuQ8kAFV5d3BuiEAlI3DkvlFDaWFRln0aglEY2A5S5Z66Z8R4WbJ8C3nkw1xL9moEQCC7QxvQkU0/KtvGnJOW0IsTwUEw4M7c5sbY5u5y8vsCxaUHRqvpgWdCFb5arnH+dgIA+fBzBEZfNUvsTagK0MYnAmBVT3PGxbcgvHFGZSf8OZE6vHehZN4EKnSr3V91+iO0SKbSgB7Lt/hUy8EX/P1xz/qRQxKo6fYKLpNiHwZYkMDJadFYa+DAdesgdwReviCABMAX1PAeRCBIEDiRMmSKhdFv7cuN4krPAoPYD+LdP+RQ1UV7H54izhoAcZvQvMloT9Ldnp48/GMoiPOkvQMmsneaf7f6lYrCm3P/mDoil/9LCb/H2pdV3OuFO8xZggI0HzS0RP0RcgTMsucI8JUAWPtXzesko42x0a/8RWK8xUItRJRTcBkSLCkt9RoPUHM8fffKTZqppbpd2wb3nlTEhLnE9p2zZzCE6oL7WZ3GcVBFMK+6rakqzBcJQFXYBZwDIlBFETg2adhLkiS9Y39QMM6+g1K8U+wi3/EAsZMARjdEWyLH1vfggax64/+y88fz8FCvpWoN4ARdGNO4fqvIf393qSJwXLg/NYFz0/9AHDv8Epy9+DVBvdNIwqY1+D5j77mpI6ZDoLlTiJydNACBWKhwmgC/R5caCljMLxyx6wJle+tF1x8d+XnF1uItDqpv4sGx8RngozBGNy0I+WPp3ZZl28iQt71WjfYb4/o9IVNFzSxpxdmhwiHLrsS2GndPACJGqsbKAzcLJACBwxZ7RgSqPQKHxw39GJL6PFkyrt/66HAhANltxXpjPbUvn5404tcylb/Q+oEBBM4/avZD5m99BW3XE70MjYpiX2Wy8rqiKMAnXC5VTQ+FZiRi+HNTS/h7aojh+ftSe8vcBPkHrKpyp9M/I9+0+H7Ng6on/e1Iy2+ILL8IWo86JUIHnRwIi0MGwLRwKoJGjWiQnnHc1zV5e9+BcXGvcom+pc9QCNCeNJtCevZeuzbX2/6qWvusxL7vUgt/UU8AVMQ5Ef+RtGnbC1VtvlV9PkgAqvoO4fwQgUpE4OeUIctkSpPdJ/ZxVPQjAuUrWOrQid547udMTtoMqYIHqssTKIUMtWHtS8sTUB4EUIa38y2WOwcYSffS2qqJb4ySNL1eutVmfOrZh6PFC+eh0BFv5Sr8QR+xQxo9YIh+PWq4IuP0ZRjjOcIVYwnCoA1sPZkWcwJ2Hqodjmy7cNnB8tZQ0c+Pjh6RaBFNqzXTjG0CsA5TuGiMa5OxxuFnUdFxKvN+lcNlD+67GNItj9WTHO07xNljQzbv0AglXp4hgATAM5ywFSIQlAgcHZd4FNLmdiiLAEBY1qI2hph74URt9hSkY5MSuoCa/KDDtEDI7BY/ZP7K0/vt7VTftvP3DnuaU/Y3eC/M3f2gCjjNiGF6w++XOWoYqPedvXcYeOzT8Y6+HFJbuBjOzb3tRMG1zzMPT2pnKch9H6IjxnjmL0CuQpmboYEsCqTWbDCbpD1c5ta4eRsJAb3Kk92Wr9fU5jXlWg6lhCNPH90qc9rZ2SxDzJTy+MRNu7fXlLUGeh1IAAKNMPaPCFRTBPgLL0T8fHx3rqJwOKAXL0J7af+H0nl59XMf8DYRzol7R75PZelZLUsgiCuLHNrN21PyqbTkhgZB+hLs3aP1U7LOVPUpAGOAqHzQxFT7DVezxMWpw56FerPv22Sl7sjOzFD8N6Hl7NXlxpifTEtIZYr4XwhRa+RwMSy2ADgAsxYR5BeJyIa0mZv5s7+/Drt69TKENozIgmEgzLF4AqBdmdV9+cZf+3u8qtBf5sBebZhB2M5lpa6e8IAt6aSpRfseyXPm3KoK86zqc0ACUNV3COeHCFQSAsfGJg2QmASC0GbvL0EC2DftDXUf8TZd76lZM0Lp0k1nwfu/rhZBIJAlreZmpnqzzItpY1Jhbp+DKri+2/sY2RUVyqZFz1oFKn7n68x9yf0g3G8D2P2N+hO8ygIUQXi85XerPC46o5YwNl0gH0IZwPucBJFtSGvsukMff1a2RMZ3XOI+HbI369e3PZQ8+B8Kpb93hDmqw1GyO6pPUlyrGTOKfO23qt23CXwxFEtBM4t0sykrYo2BVKVBUqdkZ9zBC5KQOQmbdz9Q1eZfFeeDBKAq7grOCRGoAggcHT/kKUjQA2FjbgiAQD5vPz9rmi/x7lD2dwonFmtoIXTNQoVBnpy4NVEKkQPndu/7p6LQJxwQ6cIQGeF5ChFeb6rU+tAdMYGMgDHnxZt7ZIW00BnqNSENCY3+03Lu2qd9gf7k5MQ0ED2fQURDbRe1tIMAqO9DwfvjDcIaDqj13XdXfRnH9Z4jkwZPUopourXssvX8zxR2LZxG9Gq9fHmOP8a4U31shsqTQt7l1ibJ3MYgk9ZmQWhNudwEIk+aAJFqBpqWKCudKnaycGDteMv6DnwPBiRs3rPtTs29uo6DBKC67hzOGxEIMAJHxiV+Ciflx63DFOf3h6r3H3VcnDVdkzg+XCcmJa2D2xLUhw/8bGg1P3OIJ92cnprUR5EppLYl7W0zcroN7L+L6oqx08PnzHFb2161+5+5d8Ri8OJPKb7RKjRhTdlXo68P99aUoZ/A5bTUtrly/g+wprs1QaU7/TtpGijZ1K7pXcPozJkmT9ZdWpsT98a1LypgOxVOIMmRTTAyJotiyOjOC1evqUjfgbo3a0qvesZc1lkpZB0huqQd4bQ1eO+1oTJtrQp4Z4Fe/PVyTtVcPgGAvp9P3LL7n4FaR03pFwlATdlJXAci4GcEDqcMOQwSupNTwJ/A/9lxYfYLvgp/VUgWKPk/W0+slBhFntxs7roVZU1dzeN/znDrRUmWZ4Dw1/L46zMPCYydgcRE05vMdS5S5Nrn6fuHvQCpf/7ulBFQbSSQHKg82Ac0BlcqCiHMNey4fO0jEECPOOzxmnC2/2N9DZqAOW0XZ/3KVxwh5DE89GLEVsiO1806Z+toBoW+0GnFhn9UdB0VvX/r+FEteV5+R0qUzpQrHcGPpCPUTOgE/dZzjpIopeBSqQWaStMAsOtckC8JCj/HuHGHqcjyt+G7d1f7sMeK7kN59yMBKA8h/BwRCEIETiUnNzQJBedBLe7w/4P861yhfKNRNGZKirS4w8KsH72F5tiExHcYJS9pqn8m7GuZvqZnWULw1JPjWwrX8r8BwhCnH8vqPMhkapA/DMmPeL28xEOXHx452HRbhsIyRHT0ozrnEXY7RAmNazA/Y6+3aymr/YkJCc/BAt9T8xG4Cn+7wDYI5LXW89f/xZdxj6TGfwVmjIeKT8aqfoN92XVp9qO+9OfrPVuA8Aimm11Ifl53gQjdFCrdDQK+G5SFLk6c5LUwLyY02rwYu0QV5QRkajwuypDTgPJz1GC4pJgtl4XwuucLOpy8nDzzeIW0Kb6uv7rfhwSguu8gzh8RCAACByEFMDhTOez0ei2AnRHA2e2wgYmftBFjvvQk+Y+aqCfmeu3TUD+godofZ8YpbX9Y+X1p0z8zafgDEuMfgi69tpZxQO+EyMgeorAnWqSvhpS3ZV/5z0yJvX7x6h4oV9zYhURwCJif0iQ9c255ffjyuVovwaLIs4msRDjHrFtV2JCGWDbKhuEtM1ZledP/wdQhjxOFf6pXiwNG2XdFNBzhTSimN2OqbbdB+B3Ju9grxGzuLSmWnpAh8W5YRHvwxLemhLZpIVzj88tNnGR1WrzIOT0MnhjHqUhPGM3KCYvIjkv1WpxISE/P93au2N4zBJAAeIYTtkIEggoB1f7PFZv930n2lnQIhCP1DUkwvBuSMuiDshIBHU9LnEBkYq2Wx8jxNrRuR3eOemqCHuXCmY+ZTKye9boLcr/nQ/z36y1pnZmeRB+o5oMcdmMNVPlLcO1LNJC3mn679vVAbuzpScm9zdy0DDQBDawWbavw1zlPXAyxhPdotXz5RU/mcfjewT1JgQAJlJRQOwGAdMUnolsa+5VXeMmT/u1tVBMDP2XowRntTTnrDfj1oQJvp8hQ6cC6Cuvl4nznVtuh0wAwBqp6STnIBX4IdEsHZaPxUIjZeLBfZtlFo7yZO7b1HAEkAJ5jhS0RgaBB4Mi4oafAbtvS8YBwIQH6vAAqKJpKnrETUMzn4TbpayG1bsnrxISk5aDG1WL2CROebPvDmhIJao49MHaoUGj6GkL0rHn89eNSllGrPv1t3f+sPuPpRpxLG/aOhYDJocTFF7aYt3ayL1EMno5tb3cyNaGDzMgaMD/AmkoQADCs8HXtF68fXt5c9o+Jq2MQ2G5Q/bcqPv2zXBKpDOg6t2JlcfeBQ6GUywcwhQ4gjA6AEM0u+oyCpZAXm6OjlQnohT+wBAuEJh5QCNsD/hCHQg3yQeW25VDvjbsveIsftg8cAkgAAoct9owIVEsE1FMmv8001bqeABT/XlIL4CABAugNGJvR4Yest/S2fUij2xzU1ifhJCwIVLzQqknHVnoveDipG0+yq39mivCCajcvTjKsmgrIuTDCpzdOX7fQG0Bz7klMoQpdLDsXK1S72N+SxgzyxGzhzXhltT3y8PiW4s2ba8Bjv60+dMIuyEUiPN8uI7NUr3XVYnAoZYgWwaATtBbBGDrGW49/9XQffrZ27yJJGUiYZQAUChoAmNe3cpPSPO+tQt5Fe6ERAHDCNMF/B7gi7YawUTXvwu5+9ZofCKQ5wl/7Euz9IAEI9m8Arh8RcEHg8JjEtziVXrW7/3lKApzaUWH2+d+99khCQoKkdv/TPSNmMIvljxpREMn/tU3PAm986wWpfDvdlskccPTqob1h6wg0CjJI/48izaGvlefk57qJUA64NZEsuxRFruP0GeVXSN1afVv9d9Evd3rjDz8xuJFwSVgHwrKjTZw6wgOgSFFheDi/u9m3G465m9dPExJfslikd7T7NOdFEMUGw4NdFmXOLm8du4YNqy0IpjhIuBTPOI+XOO+l3u2Yg62D0sIWi9X9WvxCkSIo+yHYEIS9ZU9IJN0tnTMf7L17Nyha8KpuCCABqG47hvNFBAKMwMGxEP5HeCdVzc8YLQTVdR6E31lzzJfjD6AnAZAY59sOhroPqredsFw/qVClOXiL3awlRzVXBbp6qj05OekpsGGDt3xxHn+1DzhV7pVD+LQ2czJ3ertcNdMgW7lxsyKTnvZ7NSFGmTk0hA1rPHvVRm/79Fd7qCzY+Ca9lQ1aibYlBS7d1Clj/RDAHSAvvo6njkywENMaGbQndo2BwWB4seOiTLX+QYlr15Qp9YSbl+MEYhnCiTxEYUI3cETUHPX0qnwnAlDK6R+IyXGo0rSVCmyb0ShvvfHc2wfspM5fmGA/lYcAEoDKwx5HRgSqHAI5aaM75xUWHLLJerVM7/JOGdkpJ8cl9zSJ+eOoLDwFxYHqFj84SjcHaCd5Tt6Foj8bwKa83EogDH9pv3D1a/mPTYk9f/XSl5C8B1K5OsUa5nNK/3j2N6994KugyZmc+Ck4CtoSGBVDzLjhsZYLVlZ6tTjVHAKn+WyISmjpEML2YzYTn+68OBOyL1ovlTBcIrcg4kGJdaj+Gf2g65LsZ+xtOHjn7795ZijY7pMgcVMilUkXa54F61VuEh1bG0aUAtgJqBrItzCDYZscHru1px9yI1S5LzlOyIEAEgD8MiACiIADgUMp8e+AwCh2moPXdy3b8FedQIq6zAumC1SCmuzWDHTuUgXb3wVjPiTZYycVztsIEHNPaK1WBiW3n0WgnwORsGoV7BdjS0Dj8FtwIjzt65acmpj4MBCIWa73w1z/3WZ+5rO+9uvv+3LGxLUuEgwbZKI0sUppm7Am5Hrt5mJ71aM/KytLjP3HDMhdwAfbBTnkYkjPDW/wUAPTrf5m2ZIkcSUJ7Pa9wWnSmt/AGzs+IycEmWzl3LCNhpm24One37tc9ftDAlD19whniAjcEQRUgdPgvT+ehoxtjewDQuK9gd2WZm51nYCahtZiEn4Ap6+u5ZEAh02fil8yRTKDgJ6mnVBtTx+Ihz/HBfGZ9vNWza/IQs9MGtVNItJWCJELd+IVlKz+5enXx/iqUajInMq698i4+K5QxngDkXm0jgOolQM/6rR4w28PpCa+RxXpebvwhw+ALyibOeN9wEgAfpEO0uB4UVr2QVDlK1AqeL8s8Gwmha2Piqi1pe3ChZcDtTbst3oggASgeuwTzhIRCDgCR8YmpkhcylAHsob5sYKiC3l1SnPwUr3JIy9GfgVyKK1cEqD2RvktCAvTtAa2sEGFUPk/bUKbvEorWL4V1Oq1QSjuJFxppwcKigL/LJiK+rdYtulGwAH0YYBDY0YOFsSiVRDaF6bdrsXMM0kk7E2FSH9SiVIJFb6OLThHFOh+A7IAMn+fJNPsMNGw3sLNm7pVUQx8gA1v8RMCSAD8BCR2gwhUdwT2j4lfBA+EcfZ1iCJZBifRsWWtS83uF3UxKgPc9UfZvAEczd3lCnCc+gndB7aBaR0WrdtRUdyszoSJqjZior4v8JS/CYVm+rdOz/qpomME8v5DqUPSQOrPc82YZ+MDuqFLyZuvNaQSpDXcY2ByttnEsk31mm/sX0FSFcg1Y99VAwEkAFVjH3AWiEClInBa9U6Xc3NUW7JdN88F9kC3jPVzypsYf+GFiCM/7VwHwr1vec6BqlbBSNiMnGdf/Ze/VPK/TBz5vMQt7+lTBashhHAEHtNu3tpV5c2/Mj5XiwadUHJHms3SRM6UFPDSL86db5uQU6rfkml2LVAmdxcT5Wyw42fXFWM2exsqWRnrxjGrFgJIAKrWfuBsEIFKQWD/6MR3CbW8WHxCFwruCq/f0JNkOYdTh41h1PIphPI1dhcmqC6oWBvAz+fH5resSNldPUDH0pIGgF08G9T/1iqBtksU6HOtflj3r0oBs5RBVZNJxPnaSeBjkUaZPB7w0urbe3zyJ+Qk1D9YCzWQ1ppNoat7r12L1e6q0gZXw7kgAaiGm4ZTRgT8iYB6gj94ePtpUKXHaP2qsf6Uzum6dMMDZY2zF3L2G0+e+iscTp+w3WZtbnfuc9xc/Ib2ivN7OmZkp1d0DVoo4Y3LuyGBkNWT3nbBOv7XfmHWwxXt3x/3q+l7RSNLgbqFYxXOIORRidDb7csS/qDFuAque1kykddG8lqrWi9fDhoavBAB/yGABMB/WGJPiEC1RODH1PhniMS107L9gQAZfZO7rNi8orQFHU4dPAZYwmdQj76R7niv18JDun8mc5k+RgX599ZoAWvvAiMb2y9aH18RsNSIhcYfvrmayjTBqR9KNrUT6yVVZhpatZSyRSwaL1FlEpCjoSDktRA9V8Hv+h6UJi4iVNkMiXfW8Ei+ptv3G/e5JgWqCGZ4LyLgigASAPxOIAJBjIAqSGP+8cef4aTZyg4DPBR+7rpso5oJ0Ckjnfq5mlY2JMz0PuX0EV17m2wvfpxA2jmQ/fyxLhkbvlSTC9023VYz+tnC88A3X6DdOyzM+tFX6H8aN/QdIB4v6R9gULkuR+C1+1ZGeNvJ5OQWRULRBBDgkyCMbyCo95le4pd26ofCCAcgQ+IawWxck9/05gYwjdz2FRO8DxHwFgEkAN4ihu0RgRqEwKFRSQ9YqOkb7fRvM9Qzyn7TdVn2x67LPDB++AhqNn0ONuxmrh7+2v3WTqy3ieIzXRZmfmDv41Bq0tuUSC/b23EifNw5Y91vfIHyWGpCKmF8kT7bHcQY5oPAjasIqfB2LifuTWqvSHSiLEmTIFavl6PokE7auzn134Awv1XMoKwgt/mazqs2YnU8b4HH9n5DAAmA36DEjhCB6oXAvLQ0oWP+hUMgSDvYZy5Qev2uzv2a0/feK7C/pzqvGS5EviMoynQI3XN6ZrgN9eOGV7ssy3xbj8bZp5Pq5p+VoMQwOL6pPgaMXOi4KLsJvHSSkeUheHJicgszL9oNjn917WRCLYwjU3pfx0VZ88q7v6KfH0pJ6ALJDccKVEmBJAaD1P6Ki+UU9+68KH5SIHSpQQld0jq81obKNE9UdP14f81CAAlAzdpPXA0i4DECe0YNehRO/Z87PQQM5K3uGZtet3dyFArRmKWiL8F5raWzc5/uLlWg226AInPvdF2a+Yq7SRweF/8xUeiT9s+gwEzvTouytLLDnlynZswILdq7fguMZa0aaLtELr7eNmPtW5704W0bNcfAz+MT+4A/w0TJIk0Ccd+2NKHveJ8RM/gmbBCZstTEYpZ2XbTohLfjYntE4E4ggATgTqCMYyACVQwBiEM37iu4ALZ/0kKdmrXyH8kz12rWuvd3311VIwN+PLrjXUHhT6uqdudjv3Uxjly+9rUZ+Myuizb+rrSlHpg8aigzFWZZ7yXEwPmMdks3vOkpND+lDP1MoeQx2+BaH0Bg5rZflDXFW01CWWMCNsIpU8EgMy+YxAQyAbL0NXMS+iV+AVrAyGWiCMuY0bCsniVkNcbke7qr2K4yEUACUJno49iIQCUhsHfk0KcJlT7UD0+N1tP/vlHD4jgt+goeDm3sfgH2do4Hhu2F9T9V/PJZdy3f+GhZghgS27DD44dcANKhFQGCU/Vu0ABAIZvyryMpiQ9D2mBdkR+qRhPsu9Wg/aDen35aYcc5NaNhzOWYBJNihlM+g2yItup79qm5M1QwshcK9C6jNHJp5x+W70SP/fL3EVtULQSQAFSt/cDZIAIBR2DXsF61RSH0ZzhNgyC2nuMpZzdjQqK7XDXfeF4U+LOaF7vt0lo4a/yL56h9xOcdCW90/z3p6eAHV/Z1aOxQiP9XJmsEAGoBNw1tEBtVTsnZo1Dkh8iF22BO1nz5cEGUwRUlpk7fTl8t+qW8MUv7XDUpSHvWjZAonQTkJAXa1XG0dSPwBaNRZvVjf5IunP3AHBmz7O45C876OjbehwhUBQSQAFSFXcA5IAJ3EIF9Ywb9U5HIc9qQ9pM8FZczLrexOwS69fJ3eVO9FeTkUsul2xNLKxjkuqzDYwY/q1D6vkOQcz6q07KNpabrvZKaGnWN5u1UFMXhqAjUxEINYSM6/bByvbewgXo/8nDRpWTQbEwCBpIMlfgiy+pDCAvnEX0H0qgB8SSyZ1/CQkOvwb31vB0X2yMCVREBJABVcVdwTohAgBDYNWJAR0rZfujeUFKd7/I4cD742/hC8ZtUIJlRvZLGtpoxo8jT6Z5MHhF/mxVl29sbRP5Kh0Ub3ynt/iOpid9CHdsp+s9BNfG7TkuyZ3o6piMbnwWEPqUjFMJDXe/VH/gNEZE8ol8cjRoIQr9HH0INTlmG1abhQAI8XrOn88R2iMCdRgAJwJ1GHMdDBCoRgZ0jB6+AMrGj9FNwJgIlXPtcPACtdzIibusaWX+4J7UC9GPBib7xRfnmObtVgTKa3iUj+x53kBwZN3SaIiv/tTIP6yzB2e7ruxZnP1QehGrY4a3zljFUZmkK5SPA78BY1j1CVC0S2bs/qTVoKJz0QeiLTkLf9daWQAByypsDfo4IVHUEkABU9R3C+SECfkLgxzHxqRaLtNjhv2/967fAj1faALD571U6tEvs8a+vbno7NTWs7uCYoXlqTnxNrhN+4q5lG7XQOv11Knl490Jm2aoQxXFa54xtu6tF16F05kyTu3EPjBvRDIoATqAKJOYhbBCYDcBVwPWynfXhPzG6DlFV+7UGDiHhXbsTKrhp7n6BA4AAbPN27dgeEahqCCABqGo7gvNBBAKAwCawpYearh8iXNFC2uwkAOL2X6bUMhXeuMv6ru1yePm7mgXoYR7ZcGjPchz3ylrCwbGD94HT3d3qaGoSn87RzaKprnY9nzq11pHcs7tAVd/O3g+E412oz6N7Q3jdeX3fZ9JS2+bevjkJFAQTYaZ9nLIDupmEGFPXKvQHDSERXe6GhEQOX0dvUIfx6AJvbsC2iEBVRAAJQFXcFZwTIuBnBPYMHzBTJvS3eod+EL/bTtRuFNfx1vk3QA3whovst/MEB1mAe0/UNcTEN3cRwt5O9WBy/A+glodwO+tlDI24u+P8lapfgnYdGBs/G7wLVVJivywQAJB097JVG9U3DqUM6sIVYSy8TIE5adn4yrrEuvVJVP84EgXq/fBOXUDoQ14+m0nBNcyxvL5sn//2/9m7EsAmqvT/5kh6H5xtact9iiBQbltu5AaRBUEFxVUQAfmjqOy667EeeLuooKiICyKKXHIJAgJynwoot9y0BeSmR5rMzP/3JplkmqZtkiZpWt642TaZ9773vd+UfN/7Tsyb5uZYNowhELQIMAUgaB8NY4wh4BsEdt7Trj1K/G6yp/ZZ4/hyDKEhze9auv7Ir93bN0Nk/q/5Wvlh6fzWAP4sF1upQ/NvvU+703azv3faW/j9Oe29vvPgvgGpT3IWbpp1bRsHPP9YOBe+L1e5NYiTyX3INaxfHDJilaqqwI9ql0bC6jVUYwiosNdeKnXb+2Jo5eG+c/zA65j7r+J4YPcZAsGOAFMAgv0JMf4YAiVAQBk/PmTX4d17Ie7u0P9jFxVuYvO1W9QWwPRCdsAJhPbVUsc4fSvAM36BCzF2pMpCCVixT/2jd+pTFsJNdSgA/Kg7f9z4+b7701oIN/mt8PuHOGQ/uYlKfFfAUo38bBX86uJpIB8EfmRqF9tJn7ed9Kngzy/wnZUB3b4u4vedeG3Gay1eIXhtcdr3l5j/d19gwWgwBEoTAaYAlCb6bG2GgJ8R2Nmt7asQff+ytepTV+MVbn3Kmi3d9JXrdvdMe4/I0tNWdqwCk14Q/lckLqpzyiqHib6kLB+6N21QXh5ZoNERFfKfHHPI+yFG0x748OsU+aXkHJIQEkqQp08iqXm/aQuk+WqNAAAgAElEQVQ1ej+/sHcS/vTUT3fosAacx9sNeP1CX/j8sH5/iqLQ4kM38BJ1n6/CuF4lxYHNZwiUNgJMASjtJ8DWZwj4CQFq+kf13V/QOU/Q/qGj/O6lqiGVmjn78Xd365ZK+GzVx25XAtAbQA7lu7VasomeiH127et3d1vFwm2jBKk45gn/pSLI0YpM1AqBri79FxUV8mF3tSDhNJAPqXs8lADVl+8k3J3f0zE8z2dAqG8WBIGe7rfgsz+K2xjGH8AYNUjSdqHsL9e6uHnsPkMg2BFgCkCwPyHGH0PACwRo1H9I9uXfYE6vrU3HaZ4mv/VruXbTCmeStE7/7l5p5zlZilfv8SRbNoT0br1s/UYvli9yyoF77kmWhOwz2iAoALfAp1qRz16FwMU3k7FuAxKZ1plEIIqfmvvp2CJP+5Qex52A0Kcm/M2SJK0JCws76el+oAD8D3NG6OYdA91i4xA8XYeNZwgEGgGmAAQacbYeQyAACGzvejca58iPqELV8a/8gzZrt9nM/PmZoPn5iANYQRSuF4Lk83BUHpCycvMqf7B6pGfXVtmcaac7Xz5i5aokPLUTiYBf35BQTRe451r442RPE/3nQ2gvhrCnJv2Mku4BtGjZ5Pd1dC6BrtrQiF0MgbKMgDv/Bsvy/hjvDIHbDoGtXToO5DmTLU/dFk8vCHtaxyS0R+U+GtWe7zoxrE3c5b/Ez2Ag6A/BLxkk5YFma7fM9yVwh/v1q5UnXx1CJPIIovgRlu90WTMT1IszGElo85Yw8Xcioc1a2tL29EF8RZ/8eV7AEsoWCO5lENQLvTn167kDHZpyuEz3mRl0i6ws6EvsGC2GgL8QYAqAv5BldBkCpYDAlt69a/B5V/eiPW9Fu9+fCNcsEZGt2i9dfdyZpd+6tR2SR7jp+LwSL3Aonkcebr1m69e+YJ0KfbNyZajFzN2vcAoK/2hXwXLDkPIkpHETEnZ3ZxLWCn59o1EXwe8Q+BDuOOErp0CpljWHv+ggPx4WAUWWN4miOAvWgQWYc8vTvUEBaIQ5B53mRYJWlqe02HiGQDAhwBSAYHoajBeGQAkQWImUvwqH9mxC0F8rh6zlLaIg9W710441etKb+qRWMObJ06AoqI12aHyAJChPtlm93Vp738vrDGr9X5YuD5Et/FC4INo4RL4TQds3D1+hEglPQ9peamciVI3L59e3BvE5BDx9L/DCn7GxMXWvXbuWoojiCGQQDIWEr+pOECAUgJsQ5rOgDLyL8Wfd3SLm0HLEVNjrywYmgQbNIGAXQ6DMIsAUgDL76BjjDIH8CGztnPox4Sxj6afaP2yBU8a2XreDnvDt16572nSXJf5LfJBkz7fnlOdbrdn+tjeY0gDCX3u27SJz4igiK/eChrW3QCHfLgjKI4aGjUlYx+4khLbYFaF+uBD2zsKfvhcE/vvY2Fh78yAIZ0N2dnYv2PxHob5fLygDvKPAj+v8fygC1A0yF3y85K4igHVo0KKtjLKK0p3uZBB4gyebwxAIFAJMAQgU0mwdhoAfEdjZue0QC1G+U5fQytwK3Mft1mwbry27dfDgMOO1sy8h1/5Za1VA6z9/g6K8nPLz9lc8ZY+e9q+YrwyXFfkJ0KtZcL4t/sCmDAhx8SS0TSoJwWlfrFjZFtBn5dcq7G31B4pQBiC8J0MBoJUEC1wQ0jVu3br1GAQ7ivRwCcVlCIBWDuZ8gPFvYW2a61/ohXE0bbGtbkAq5jgXCPIUQjaeIVCqCDAFoFThZ4szBEqOwI6uqfVlYt4FIRxtk7Ww7HNr8l6a0rtz584W+tm23qlt+DzLbIypr+8HAKv21Lbrtv6fu1zYT/uyOArO+IEw8zsK5Ni+TfLl7BsMxNA0hYR26EJCGiGVHqd/18LeXnzoV47jm2vKgMPPb70PoX0PFIB87gxn3qlVICsra5jBYHgOQQ2NC8QJOMUNQAE4BxqPY61Csx5AcyXG6Iv/9MX4AumU7uLIxjEEggEBpgAEw1NgPDAEvERgd7eUmByLYRvPqYFq6oVyN4dNNeLadf5qyTVl8GDjrutnXrbIwnMI8cvX7xZzZsA9MAZfArYeuYUzgUJB1WWD6TFitjyKBRK1lTSFw3mmkFyLhKR1JKGt7iZ8RITVKOF00tcJ9ysw7c+1WCxfJiUl/Xbx4qVrMOXHuBD+aFnAVYYCcNUduCC0OZPJ1Ac/J2Pe3UXFCUAJoBh8gddEV8F9oDEX9x7QrTsU46wWF3YxBMooAkwBKKMPjrHNEJg/eLBQ7dJZpKcp6snU5nfPkMMNqWkrNp/Y2qFDEyKYZuMWmt07/qnbZPHXbdZuf1hfDtgVoju7dm0lc7nPYA6691lP+/m+NHTOfi48nIS0bAcTfyciVK9pNem7NO2rvnxZ4rhtIDg7ISHha4zN1tbPzMz8A+/vcI4LgJD+vWLFik28efJms7kbhPg7eDXTYgSsCka+ssD0Le1KOAD3TunXwbyP8V6Nr7BdIzBmjje8sDkMgWBBgCkAwfIkGB8MAQ8R2NSx9XuQr09rnnZe4a8QxdDpXFzcwRrXTj9jkcl/iMzRZjYOoW2tgb84919vDNHcA87LUjP/9i4d+gq85RmZKB2sQtI1c/RjIbkmMXbuRowtaFle9PFxcdrXhLkoCmdQke8rmOZn1apVK5+Q1Va4cOHCGhzHuxXMAOA/gwIw2kOY7MMhxHmsPRxrvwoM1IA+V8oAPr6A1724t12bjLmv4fcXdGtTlwG1GLCLIVBmEWAKQJl9dIzx2xmBHZ3aPpynyF+pGFDfuEKyjQauhzmywjly/cpXksJ1dCm0ERtwvUmrfr0/+sjkjB9NI4z9fd/9vJg3mcjE7lLQn/ntB35BhG+/OTGiWI/YqHHRfn2OyxN4/iesN7t69eqLITjVuITCLigAi6CEDHQRFPhw5cqVqUWjRBeEeXheXt6LSAechN/RKTm/JcBGnKb99cY92iQIMRUFFICxuJcvu6JETLHJDIFSQIApAKUAOluSIVASBHZ3a5Oaa1bW4ZSsVqNDLf0cOZT0J3lKbU7h3oO4Uuvqa5emCODnL8a6ll4tP9tjN7fTMbQSYOYV41jBbB6DDIHKjonW3/RfEnxMBWJAEx4q+PmYWPWmw8yvvtG/P4AT/0wE7n0N3/5ld/cMBWAxFACcwK0ndGsQH0eioiLrhYaGFihm5C5d53FQAtoiUPALSZIb588YsI+kmQH3YO0dUADexO/P62jQWAF7O2VveWDzGAKliQBTAEoTfbY2Q8BDBHakptY3iXlbELanCmoq/DkijpaIZShH5N6atNbcAhp5WL93cjFVuqUuXXpT+wzFgGrzuXn/wNjhROFVV4GzwNc+E+rUIwZE8tOIfk4Ubd33Cgp/JOHfgK9+Xnh4+Jfw7XvVRTA9/cISxORRP7xd+CNm4FylSpX0efgeIud6OAR7CFwCVJA/obkDnEZexPuWeNFMCX0fhecx3qu6CT5hnBFhCPgAAaYA+ABERoIhEAgEfhncq4py8QqEv1xPLabLE5jx+XkIzutLFYKCwXnW0ztPhAOCEN65zbp16ikcmQPVLZLhGYmXR7uKEbArAhD0QrNWxNCpO/z81a2d92yncfWkbwvyszbgUTZDmH5Rv359Wm43n4XBU2wQBLgUc/rpgwChVHwN8/9wT2m5Ox4ZCA9jH59gD2GaS0A3lyoyv+E1SvfZixj3qrv02TiGQDAiwBSAYHwqjCeGgBMC6wcPjuQvnV6PSnv0NKpeqORzSSFcFeeKe/lM9gI5khDHdaw9b8cF2idAzr3ygiArj8DUb3AVI6CeuStVJiL17behKXzwJtgK9DiEvzUnH6f9DPjRZ0M4f1mnTp2jvnpoGRkZm7BAar4gQEIeq1q16kxfreGKDs0QwOc/4mVtiZz/ojETdisJfn8NCsC//ckPo80Q8DcCTAHwN8KMPkOghAjQdL+4i6cWKTL8/FRAu/hXq1oEdJ/bfj3LR1ROw+lW5k03JuH+KLgJUNc+PwF7jEDNOqqZX0BwH4eewPa8ed3JH6dkWSLKz7yifJaTk7OkZcuW5hJur8D09IyMI9hPfX0QYIjRWAf5/yd8vZYzPSgB9fHZOrySilmLVg+c7G9+GH2GgD8RYAqAP9FltBkCJUQAtnXul45tvkBHu0edSTkrAna/v+odUNLl8NAHuGzzEMLLf0dUv/X0avsXr43ljCGEb9mWiMjd51Gqt5igPhBQnmzSpMknJdxWkdPT0zMuQ7hW1ALzoHSchfm/uj/X1NOGElAb73/Gq0YRa74HHicFiie2DkPAHwgwBcAfqDKaDAEfIfDz3W3e5jjpWa3Kj/M/WFfWAJT7o6X+NyA38G5N8BeYFxNDhPYo2NMulXDhtFKf6tRXl7EHwxV4j3RDns9ERH/jmJiYKz7aYj4yEL7GCxcu5qISINiw8iQKwhwoACP8sV5hNG0tgGkdALW8sosLz4XTZwUEkj22FkPAJwgwBcAnMDIiDAHfI/Bz53YvErP5FefgPquYzn8V5s+3Hentg7n4BFXw8y3bEM6AaH57UJ+tc57Tewjf3TKNO9DFAYDmrCZNGhewSPgCgbNnz9bDif+oQyHhSEiI8dEKFSrM8gV9T2hACRiA8YupTuRi3hvgUV8YyBPSbCxDICgQYApAUDwGxgRDID8C69qnjOd47kPt0wL/UG1+eXcVAQ7+fb5jV8JrDXnyRfS7Fv74dJfJlNstPCLyCE7k8ZqywNOof0Xu3rhxY+or9+mFGgA9UK1vlT4DANaG2mFhYSd9upCbxKAE0MBDV8oOrSb4optk2DCGQFAiwBSAoHwsjKnbGYH1aSmPwXT/mWwrg+MiuM8Kj92fX4hFQEAgX9MWhE/rgua41XRBfQ5TP4R5FoR7hLMlQOAFOSwstF2DBg127tu370ksNs3hGlDTAf/Mzc1piiDAEqX8OT/nc+fOjeF4frquh8Dp+Pj4moH+e4DgvwNr0jQ/dDx0aQF4CXj8J9B8sfUYAr5EgCkAvkST0WIIlBCBdamthxFOmQMvvq1zn87gXzDK37UiYDQSLqU1IamdCV+xkt2vbzXja8KfbIGpfZogGBpaLGaa054vDoBW8Lvrrrseowvs3r0bBfPC0KBHrqcPEkSo4ew772z0cAm3nG86UgDfg8vhaS0DADx+hfS/kb5coyhaEPw1URjoZaQ2PoRx+bonOs37F3h8PVB8sXUYAv5AgCkA/kCV0WQIeIHAunYpgzmB/wYCSCzo07cpAk7/YvO9DQslXPPWhEMqH4mO0Ql7azAdhGm2LMnfhIeHTmvevPlvNOBu9+49p/AzQR8EiHFXYRVo0KJFi0vaNmAF+BtofO9c9hdBgaMbNWr0mRfbdTnlbHr6ajTmRfldazAiNI9HEAD4P1/RL4wOMIgD7i9A8I/GT2MhVQH102mL4bf8zRejzxDwJwJMAfAnuow2Q8BNBH6C8Bdtwl8/xS1FAMV6uNbtCbm7A+FCw2yFexynfQj046DzCeoBzEpLS7uq0d++fftwjuNnF8z3J0+kpKTMcGZ9//79S0DcWqLXFhQIVwGN2L/7jjvu2OvmVoschhTATNCL09ZAF56a1apVO+0L2q5oQPDHoifAsyhoNAG/R9AxmvDXVQRENiah9Q7U3gu261ncf9dffDG6DIFAIMAUgECgzNZgCBSBwE/tWg/jeHkOhJ1qcnb1j9KlIlChIlHSOhPSAkH6oiGfqZ8W7EEm3Y8GAzetbdu2qyGsUPwv/7Vr1669MLej6k++IMD1KSktumI8FXr5rpMnT8ZnZWX/LitKpXxlgYlwQpJMLZs2bWpXLrx54LduKXHXrqVnqnulFgteOBEfH1fHG1rFzYGwDzWZTOOB02T8jpoDVtT1wt+GwTJ8/DJen+IFv4r9Ys2AigOZ3Q96BJgCEPSPiDFYnhHY2LbFELPAz0WhH9G+T00Yudi4eiu2gk3wQx7RQD9dvj4EGvLzlS/x2Sc47RdaOW/v3n1d8/Jy1+rjAnhereFPA/v+LAzzgwcPDrVI0ryCHQDFTY0a1euBdXO8fV6nT5/vjgSDn7QMADQA+hIBgH/3lp6reRD2PLIMHjKbLYjiJ9Udpn6bEmSLhYArYDkV/Li/h9LBvM34cbeO5pMUY1/yxmgxBAKNAFMAAo04W48hYENgfdsWD0L4/88R8Od0+ndWBKpUJXIHnPjvpKV6NTO8KoohM4W99LQPBWBe+/btixXCW7fu+IXjSZpeeTAYxImIDSi2xe3vv/8+D+16h1rN9LoGQYT/oVGj+oPwueTNQz5z5swkZAC8o8sAGA7z/9fe0HI159atW/dAsKODH3eXFmNgPfnnE/4rEX/5stHI7dLTgAJAKwMCfPv1EObO9RVvjA5DoDQQYApAaaDO1rztEfgZJ3+J5+eqAX8UjSKC+5T4BFlpm8Yrd1FrPW/tBWA9qZo4wi8QRW5ap06dtrkL6pYt+7rwfM46p8p/21q1apnqylXgTJf6ymEJ2AxXQLOClgDyOYIC9V3z3GWLIAVwNvwOw7UmQCj+k4y2wufcJlDIQPDbPCsri9bu715YtUNMpW4SCH4jrf5X4AKNVfiwh+4GjYWgXQvZxRAoswgwBaDMPjrGeFlF4MfWrYfxomRL9XP8E3RWBJTKcSa5U9cQpVFjnPip4NcyAbizRoNxhiSZv+jWrdsFT3HYunXnRsLJHTQ/Ps0OwO8pMP0fdpfWiRMnamSZTLs4Sa5itwSo/KnayfsNG9af5CqOoCj6UAD2wbLQ1GqWJ8cSExNpYx6vLwjtGjdv3nwV+3uQmv6dhb/N7786JCTkP/h9a1ELuVAAOmPOBq+ZYxMZAkGAAFMAguAhMBZuHwRWp7X5G2exzKMn//wN/HT/FCvE3JQ7dIuSmzSnPXdVwQ8hpsiSsh4daaeFhspLO3fubPEGtc2bN3dGp7+f9aZ/+P7Htm7derqn9I4ePdHBbM5Zg5bESJtzuAIobdD8rF69emPcsSjQdWlK4tmz525ivEoLpvrPYf73ypJw7dq1CiD5T0EQxyGjINTZz69iKcvLEfn/Gk78O93ZN/hbi3FddWNTQNcnmQ/urM/GMAT8gQBTAPyBKqPJEHCBwKo2zQfhJP9tvoA/Os7qSid8aMQ1S9cuEZZmrQ3U1K9+znE3BZ6bbbHETOvbt92hkgALIcZtRu4f8uxbW70IqnKxsk2b1n09Pa1rfBw4cOA+7Ok7UELtAq2YkFUZwI6+ycg497A7ysrFixeb5+aa9mruDaLww5OTPfP/I0shtEqVKuOQ7vhPcFDB2c+PoEKaCbEEZYVfA6+/eoIlsNuA8R11c2i74mOe0GBjGQLBhgBTAILtiTB+yiUCP97d6j7eLH0rc4pB26D2j08xipekzj05qUXLyhyN6sd/sPhTYT8NdfBnp6am3vQFKL9s2TIUdnBE8FuFP/7vYnxc1aa1a9f22I2g5wdBgcNw2p4DIUmZtzcYslkC1qCS39DiugciAJDW25+pZQCAvQboOnjUnX1T8/7Vq1cfwHqvYTxa+DpH9AsQ/Mp8jHs9Kirqd3doOo9xkQUQj/VKhJs3fLA5DAFfIsAUAF+iyWgxBFwgQIU/R4U/kQ3Wf3DWIz/PiZfz2rT6S0rr1oDQznw2Hzoi+pf17duTBpkVyMX3FuCVK1eGREVXPMQRqZZ2Uke53/4w/dM89xJfv/9+5GFBVGZSJUALDLRZMGgL4eMREREDEhISDha2ELoAfoy5Y20KwJWkpMTK7uwf5v7umPc2TPrNbEqNTQGhGZKCBffmYc03oqOj3Y5vcMUj6PyGz+/S3QvHesVmW5QYWEaAIeBHBJgC4EdwGWmGwLLUuwYaTMJ3MifbT/4Cr+TykRU/yhoz/imFF0I0QakpACEhhoE9evRA1T3fXZs2bXoGkYTvaqd/RRRmpLZp84TvViDk+PHj9+blmediH+H2PamncfVEfgPBdqOqV6/+nas1T58+vQWD2ttSGlfD/N+zKN5w4m9mNpsR2c/bywbr6geYIbBnY/6U2NjYQmsaeLJ30DuN8dVtc8w0VsGT+WwsQyAYEWAKQDA+FcZTuUBgRbsWfYlFXojNGLUIf5yP16L63pPkX6+Gm83Sb87CH+/zTLk5lYYMGXLLVyD88ssviNTnj4Ae/OKqQD5yq327FFTtyfLVGhodpAe2hTtgKcoQVtHl81vTFq2m+Tl16tQZBx5uaHOo1eDsuXPXFVmJoPyhHsGrsBa4bLWbk5NT68aNG/9BF8MHMJ7X/PxqbqQimHhe/hLpgzTljwpsn13gkfIbZSN4EfTjfEacEWIIlBICTAEoJeDZsuUbgdUtmnaBwX+FLJNQau+HT/+KRPh/9Nmx93MqqlasWN0h15S9UTPHq0Fzqlue7B7Qv38rX6KD0/+XSK8bqfrkBcFMULsfV75CN75cD+b8usi7X4TdNLGa5fVxAXB9CMJphP0/hdgDNY8+PT29ESwHB22WAjhKDH1rJiSs0POEIj7xeL2Az0YBJChUdssCVWhy8PqcugLQOOi8L/dCaYEutd6Y8NK+L/djPb07wNdLMnoMgYAgwBSAgMDMFrmdEFid0rSNWeDWEJlEIYuPZqB/HW4Rn+68Z89fGg4LFqzsx/GmpQ6/PxUvEGoC/+2Avn2H+QqvjRs3tud5YTPNAKD0DaLwr3bt2vm9jS1aCIfD7z4NxYIeKVgsSBPe3LKYmOjJyNVHviP3tZYBUD05uSpwUTsRIrI/1mAIQbMeXm3WoyoUDuF/C6l8n+LE/64/A/KwblW8LljXVq81+P0eXz0jRochUFoIMAWgtJBn65ZLBFakNGmCqLcNikzQqYc/ZlCkJ3rs3U/LyOa7vl+06D5E5C90DpjD+9cGDOj3b1+AM3/+fKFq1bjdEFbNqPBHOuFmnLY7wb3gValeb3g6evToSFgfpoKHKOe4APre2rRIOYv7NWwKwMka1avXhsANR2Gg8UgxfB6Y2FP6rPvgbyHo7yNUCXwfSoZdqfKGP3fmgJcGeB3WKQBz8PsId+ayMQyBYEaAKQDB/HQYb2UKgWXNmtXjDcovMuFjINneFv66NqX38ePUdFzgggIwAArAEofp33oqxgn98T59+nzhi43/vGHDU1iDCl9qdr8hS5ZmHTt2POkL2p7QOHToUE0U9vkSwryz67gAa9qerVLfQigF6yBw/433CfrxoJGF+IJpISHGdwIh+LU9gpe2eG3TKQDv4PfnPMGAjWUIBCMCTAEIxqfCeCpzCGy8p0Pyzcs3NhFOOhmhGMfA3F9k2hkUgL68wi1zDgJUQgwjB/bq9VVJAVi3bl0NUTQcgODCyVs9/T+M7oA0Mr5ULuqCQPlgZB1wb6A6X6wjKFAv/NWKh/AayLayvValiHYpxM9PIyMj30Ie/8VAbwC898ZLjUmwKQG0zPF7geaDrccQ8DUCTAHwNaKM3m2HwOqmTauaRPI9J5KZfXfun0OD/IoD4Ycffuhptkg/OgcBElF4bGDfvjOLm1/UfSpsN2zY8CPEVQ8qaHlOmN+xY+r9JaHpq7kI5IvLzMx8G3EJwymfjpO/I6hPpxwguI/MMMfGvlUrMjLTVzx4SgeVBR+jQYbas8J81gnQUxDZ+KBEgCkAQflYGFNlBYH5KSkxRiHv0RjJOEcf5Fcc//PnL2vNC+YdzkGAosCP6tev3+fFzS/q/vr16x+B332WVfhz51ACtylO/1dLQtNXc1ErgAb4/RP80T4BRucMAZvwz4PyMiM8PPRNlPZN99Xa3tIxS9LLKMz8kk4B6Ibf13lLj81jCAQLAkwBCJYnwfgokwjg9B/RY/9+j/PpqYn+6rXrp5yDAA2i4YW+fXu/4S0YEP7xEJ4HYUevwIkwp5uV7l27diwQhOgtfW/n4bQfeeTUqbGCtU5/tHr0V9MetfoADleAwAsKlJaPUAvgWdyHMlC6lyRJ1CLzqE4BuBO//1G6XLHVGQIlR4ApACXHkFFgCHiMACL0w3hBzHYOAkTa4OwBAwY87DFB2wQoFkvRna+fLaDw3Q4dOjzrLS1fzKPpgPDdj1eD5jiuoosgQNoBMMqVKwCf70S3vgfi4uJ8Us3P2/3ABbCapv1pQYD4GYvXdW/psXkMgWBBgCkAwfIkGB+3HQKLFy+5JMkyrXlvPwkLAre9f//+7bwBA8L/cZjWP7OZ/vfl5ua06d27t8ssBG/oezLn0qVLUajTPxZVDyfSPHq9qR+ne3ykrAa9DyHgm0PAvm4z/dMSu+iEiDuOyoE3EBg4Dq2B53iyvi/HouTwH8hAuIPSxM/L4LGyL+kzWgyB0kKAKQClhTxb97ZHYMGCJesJJ3fSzOC2vPgb0VGRldxpoasHEMK/DqTmbzD9R0Jg5kZGhLdEo5+Am6n3799fATX/x1ss0gTsq6Ld1G8t3nMTwv9/EKIfowogLU1MkBmwABGTg1RLCOGehQIk4P0reB9iVYysygBy/9fAFD82OTk54C14UXPgOhQZuC1UBYDWVfBppcbb/h8CA6DUEGAKQKlBzxa+3RFYuHDhRzDXj3OOA1BkrtN99/Xf6C4+tOBPbGyFjRCUd1OhiZS/CV26dPnQ3fm+GEeD+9DbYIKsSONQ2Ef18WvCHz7980jt+9BgMMxAHwC76ZxmAZw8deo8xifQsaGhIa1w0t+N1sB3oj3AbI6TmlvN7vYMgVxYDN5Eud838XlALBvgMdoiSdeteoj6dTkfClZQZFT44rkxGrc3AkwBuL2fP9t9MQioJXStX/7FpvZ5CiYUgNEg/6lzQJzRaHi7T5/ez7tLb9269S9YJMtrVksCWd2tW9de/uDXFT848TdEv4OJaC08AtaHUGtsnz1//3fMea9hw4bfuArmQ8+Apqa8vH10PCwD11D2t4pm+UDsgAEZAP9C8aB/4L7qFrDiRBUc4QR+vFK1alXaedCvVQ1NJlNjnPp/tys0hLwJBeAf7j4bNo4hEH2OW1UAACAASURBVMwIMAUgmJ8O461UEZg9e3bE8OHDaREanwt/9Sg5f/4dPC/+4VwMCMLwcL9+fe9wZ93Vq1d34Hi1cp4IwfRXbEx005YtW2b4G7jDhw93hnB8Gl0G+2h9BhzCX9xgMHDv1K9fn9Y5KBQ7WA0QoMi9bT1ZK9/COlCgBwJVEnB/Bga0dVE86DDKLb8UH19lAcbI/tgz9tYLMQorNQUAysBo/P6ZP9ZiNBkCgUaAKQCBRpytVyYQmD59ToPISOXciBEjPE7x82SD33+/+DzHK9X0cQD0d2QD9EI2wKqiaEH4I7iO/xVCSp2POX/r3r07bT/slwvrhOzbt2+IJHETOV5u7nBdqL56CWfzRRERoW9DkO92h4GjR0/s5HmlldWyTh7EvG9czcO6/NnMzDG8xL0OOR/jImPgAPY/FRYDamnIcWdtd8fk5eVRgW+10lA1RVG6w5Wx1t35bBxDIJgRYApAMD8dxlvAEaD+9OvXr3dB4NeW0aNHZ/ubgQULFs8hnPJQwXRAcf2AAX26FLY+FYqrVq36EQqAmp4G4b/gnnvuGewPfnHar4UKfqNRve9RmPmr6M38WBsYKbNwMn6/adOmJ9xd/+LFi3WvX79xTOVd4HMUWU7Qxwe4ooPMgmo4jU8FD3/TpxM64gTIZfAxs1KlStPx2Wl3eSlqHKwcr4MmrV2gBiTCylIHtN3epy94YDQYAv5CgCkA/kKW0S1zCMyaNSs022QaUKVixQWB6pi3dOnSIXl5lu9U83a+wjiquzsVVoAtroBcuXLlCxD+qt8fPnEIPtK4W7duF3wFOlUwdu7c2Rsibwwi83vS95oPnn5poD7/JVE0TjOZcqbB5eBxR74jR469AhovqsH/Cj+3Xr3aD7nLe0ZGRmfw8wH4ucvBkwM/ND6SEFi4EdB8W7FixUUYc9ld2s7jYAGAgsZBQVOFvwW0wvEye0uPzWMIBBMCTAEIpqfBeCk1BD744IPY0NDQkTRFDSf/gH3BqwWBeDEDghCmbUdVPCoYIXGPmEy5zaGM5DNrQ/h3RPbAOowX6AyDQRgO4f+1L8Cjp/0rV64Nh3AeCcFXU3/atykpfxJFfJ8Q81cQ/F5ZSFCtUExMTDoF1hPpnsNCQ7slJSV5VFoXCoAAReAxBAm+CgysVglbkKDVOmB9D2XAjN5Ca0WRLEIa4doKFSqc8gQn1ADYiLU62FwAR2D+b+jJfDaWIRDMCDAFIJifDuMtIAh89NFH1YzGkAnJyUkvlkbhHGQDfAGB/nfnOADr6Z77EL0BJmhAUL+/WVF+5WSr358o3PLevXv0KwlQ27dvj4bG8zdB5h+GTz6tYFAfFajiLgTcv4O8/UUltY4cOXJkIHhfRKU0IhdP1apVi5rVvQriO3nyamxUlPQPCPdxoBeuF/66YkJ25QBK1XFgtRbK3jqkFO7EumeKwg4ugJMYA0VIzWxYKIri30qCNZvLEAgmBJgCEExPg/EScAQ+++yz+nl50ntVq1YaBsF2K+AMYMH58xel8gLZ5BwHQN/DP44UejJiwIC+X1Mz/I8//rhKVkh3m+n/lixbGkFpOecp3zTNDqfbbhaLMpwXuHtBO8ye624VdrT4jowfyy2EfNCuVasNnq5R2HgoAFuwQHur9cL4cq1aNV4pKW3wn4AYgRdgGHgcbKPJkGZNsfUbsEYOOtwsjvd/weqzF4L9VwzYD0XiZFhY2CnsP4NaGRBzkIOfSENUvypfgQXg5ZLyyuYzBIIFAaYABMuTYHwEHIH3P/64sagIi0NDhL6jRo06GnAGdAsuWLDQKhRtwjefMiAKZpEQBOHxiRZJftXhKlAmQ/i/5S7ftC5/rtnc02KSBwqCjPQ9UsFq1ldXc5jQOe4qzPwzK1aMnI4c/pPu0ndnHFwMXbDQOmvuvyCbzXydRo1qnXJnrjtj4BaoCbovC4L4IE2NtLsGXAt/695dKAcIeMyFeYVaB+pr9+EWGQJF4Xt3+GBjGAJlAQGmAJSFp8R49DkC9OSfk2vagOj5J8aPH7/U5wt4SHDBgpX9CJe71DkOwPFeldA4kXNgGZYBnhxFZH4TWC2K7JYHf3tlWTb2EkXLQInjesB1YDeTOwt/WBsOwET+MYTc197694vbNk7/qFlAuqgWBoFfUrdu3YHFzfHmfkbG1ZqhoeRpZHP83bVrQGcZ0ClAjjiCgvdx+qe1GQ55ww+bwxAIRgSYAhCMT4Xx5FcEEPCHU6K4iRBx2VNPjXnSr4u5SZz63RcuWvwbhDstfFOgVW7+1rkEpnOxd48ePX50Jr9jx45KOTk5HZBZ0AmqQmechu9Eip1q+3ZYF1RlwmrmF4QcjigLkdv/RYcO7Te6ya5Xww4dOtQei27RUvhwom5fr169bV4Rc3PSjRs3KsPVMQ77HAuMK7uKCygYN+AQ/jbTP8XJhFck3sMjwi6GQPlAgCkA5eM5sl24icCU6dMrhFgsmwWFqwT/ecOJEydec3Oq34chur9LTo5pnXNlwALvRX5Zv169+lOT/oULV+6AJb25IorNOElKhTCjver5Qkz7dlM/Tt97IBBnwuc9D+V3A4LBwaNHV3CS3NsqVPmNDRvW6+R3UG0L0CJGWVlZ98GnPwqulI5U4XJl+i8kToAqS/sRNHhXoPhl6zAEAoEAUwACgTJbIygQQMqdMT394mqFyJ2MIYaHxo4ZMzcoGNMxsWDx4u9QPHeIZvp3pQxAeB+FjI+yNtFxnOa1k6xD+FuD3uynfZ77C3X75yFtcGZaWtq+QO794MGDbeFX36oJXvQO6A3zfwELRiB4ys3NbYDXo8Dwb8CndmFxAE7KwDdQAB4MBH9sDYZAoBBgCkCgkGbrlDoC706d+gkvkyeIwG2dOH58Kr74/VLjvyQb3bhxY/Jfl68f5YiMxjrOrgD3hb1DGSAZiLVfDMv1wsuXL28saQqfN3ujQh/BfxD+pC3dE2IN9tWvV492+it1/BFHcRf4GwirQD/w09QaOKgWEbBbS+h70Wj8p8BxU7zZP5vDEAhWBJgCEKxPhvHlUwTe+eijkbxZ+pJ+mRsNxvvGjRuz2KcLlIAYLBN14dXvgsC+rigL3Nla2Kb4OIDCTvoQV6cIkZaA3kIUCNoKWl7l2JdgS/mmHjt27MG8PPPX9j2h7n+jRo1c1v331Zre0IHwj8C8lqgGOZmT5Z72mAmqtPB8TwQBrvaGLpvDEAhWBJgCEKxPhvHlMwQ+/fTTO25l5e2BHAwVBf7PhIT4BqVxEtY2NGfOwgTBaOkqENJFEcQuvKzUKNbvb6ts58o1gLQA1AEQtgkC+RlrrENPgGM+A6+EhGicQmho2BHwnWRVWMjBRg0b0kBHv7bx9ZTtq1evxiL//xHMe0KS5AZa+qBqsUB1JAj/yvj9iqd02XiGQDAjwBSAYH46jLcSIzBjxgzDjezs7TgDt6Bf6orAPzVpwoSPSkzYAwJz586tAAHSCSlptLlPV1nhGtkFjCr5dVHnHrxHyt5p0En1phCQB+yXaOiBAwdehq/9Je30j7r/9zZu3PCHEhH14eRr1661hIBHvwNhKCwA4a6CAJGtcCwkJKS+D5dlpBgCQYEAUwCC4jEwJvyFwPv//fBFyWJ5hQpcBKFJsmSOnzRpksfNazzhD0pHeEhIxVSjUepqkZQuOJk3p1XlrMV9dNXo3HpfjHJAhMf69u0x0xP+AjUWwj8Z3B+G8A+36TVbGjdunBqo9Qtbh1b2g+9/EBSyiRjTurggQIyZC+uA282KSnt/bH2GgLsIMAXAXaTYuDKHwNtvv12HcMLv+IIPpczDmLtt0qT/a+/rjVArgyhWaGMIsXRRJHNXjhfaIkLfWo5WO90XL+yvoLvfNiKQJF4hd2m58s75/85+fzS7uYJ+AY1QE+Cir/dVUnq///77UgT+ocCReq4mYWGhaWj5u7mkdL2dT838OOmPsvUNSC4q/98pCPD/0DtgqrfrsnkMgWBFgCkAwfpkGF8lRuDtt99bBrnTVxX+avCf4cUJE8a/WlLCtCb/zJkzET3O4XTPdUXgeBrhZFokxirw7cLe+b2VD7TvhX4gH0G7v214vwWxANsGDx58aMOGDcLVq9dOyLKS7EkQIBoCze3bt1dQnVBR9OcBs9kyV1OC4K5YitP/gJJi7818pPzVRXGkCTjxPwJcI4spBrQfY9Kxjj0IEM+7fXh4uF8LFnmzLzaHIVBSBJgCUFIE2fygRACn/7sVwm9W/8C1qnc8afX000/v9obh6dPnNBCEbETq811kXuiMkrqVtNO91W/sOO27eJ+Nu7uMRsMWs5lskyRh28MP31egR/2CBQvuRVfAxfn6AKjpaMI+LGBCEKPVXO0iTgCKyMM9e/ac7c3efD3n+PHjVbOyTH9AKULgHEVDlNCg5y4oAH/4eq2i6F24cKE9TvzPIgahPzoqQQfR0vt0z8qqkOXJsrQI96dFR0dvzs7Ongah/6SqrKGdMPL/aavmfC2ZA7kPthZDwF8IMAXAX8gyuqWKwJvvvrsOQhpBd/aSt1JyUrXw4mrna0x//fXCpOvXr6FmvbkrhEAXWVGSqPwoTtjbTv9n8XMLgse34eS4tVKlSr+h2l6xJWTnf//9T3BTdHcOCoSFoW9sbNjvN3Ny9nKSUrGQoMFsosht+/Tpc6BUgcfi+/bt+xaKzP12awgRpzVt2mhcIPiiNQf++uuvvvj5HIoM0MqIdjeM88kfQv0cgjNnYOwXkZGRmRp/sBZsgrWA1onAR+Le8HBjSiB4Z2swBAKNAFMAAo04W8/vCEyZ8klzjr+113r4tyoAOP6dnDTp6dqFLf6///0PNfTzOqOGfhdRJFTgN3AIe1tFPftJP59p38xxwq8CL29Dyf2tsbFRWwcNGuRxe95FixbVR5W+w1jXdlC1nvSRy7954MCBaZTv5cuX90Er4GVaNT1HsR+bBYJw6Ggot0JWwA2/g1zIAr/++uu9OHEv1vz+iKC/gPK7DZs3b+7XcsPAxIhCR8Ow1rNgrbFVeBe0zECZQ2sE6WdYcqbHxsbS5kv5FDOKLUoGX8XnMXQ+qi5+Av9/UPSLKK1nytYtvwgwBaD8PtvbdmdvvfXWF0i1+7sm/FVhoJA1zz33zD0aKCi+E3n+/F9UsMKPb6GpeXdhnGomLsqPjwHIIOC2GQz8NtiNt6D+/u7Ro0dnlxTsb79d+BHHK+OcgwaViLAOg3v2ROMi67V85cp/ShbpdRfC33bSJT/dvHmzn7uWjpLyrZ+/d+9eFDDiqbsiwVqBmCow3IgmTZrM8eU6elqXLl2KMplMj2PdiVhPtdK4MvUjWPI6nt1sKADTYeY/XBg/CBSsCavASV0Q4AOw4szzF/+MLkOgNBFgCkBpos/W9jkCEOxhx/88eZEGeznSu7CMyM+MMBpn5+bmdcWJvQsvcG1oOpjVp65KK7u1QPce7XeFQzwnIQBM2KIoYduefHL4EV8z/dNPP1W7evX6n2BELf+rZQBAqK0cNOjePs7r/fDD8pkY9mhhGQI8J8zv0aPbMNAKWAVAenLeu3ffMrQh6qMpUDg9b7zzzjs7gw+fl/xFGl/clSvXnoKFZAweXIUiTP0HsP70ypUr00qEt4p7dlAmBuWZzQs0BQbCH0oFd764eew+Q6AsIsAUgLL41BjPhSKA0/+9kkxQ+14zixcq3K0CXyf8IbBuEUXZKcN/bxC4bRAG2wLRLfDbb+d/BEZw+reb8qn1WTIaxBYDBgzY77zZGTN2G+ITM1dCrHbTFIb8cQEweHDCp717dh8TqD+V3bv3TeB4+b+a8AdfZrQsbu7rwL/r16/XxesZAISIfhLq8Ovb3DRWBSoPPxZTM3/VqlV/8QQDtA9+B4rXJGu8BzmG2ABWAMgTANnYMoUAUwDK1ONizBaHwBtvvfUZkQlMwlZhapXvDl+w3q8v8OQUjvhbeYXbFhkZvgU56gfcCdYrjgdP7i9cuDApzywdo8JML8yR2/8JYgkK9T2vXr06wiRJqxEUeHchQYGIeyCfoCwwVSz8agn47bffmiM2YRsi7UMc1gvydrNmzZ73BIuixqanp7c0m83PQTjfpxZVsh7RddYS9f15pHrOwGn/C+w5w5u14T6h7hY1ABCvLyIiIh73hg6bwxAoCwgwBaAsPCXGo9sIvDHl3UNohNOwoPDn8nAs3otWdNsETtlisQjbnn9+PM33LtVr7rwFH8PFMNYh/KngEa5WqRxbH8pIkRULV65cGS1J3Fqk27VyuA5sgtEmHJEeOB9+7eH+igmAMI7cvWcP+izw9TWzOVr9HoaJvkX79u1LnDp34sQJGrfxHEDpqlMu7MKfBvVB8Viv4LSflJDwA3AoNtuisAdOXUIIALyOn2EUT8QCDEcJ4K9L9Q+ELc4Q8CMCTAHwI7iMdGARePPNN2NQ+e8qUrhsln2HX58ood2ef37cusByVPRqtAsgTs6/Q+CoJ2etaA4aFj2F079b/QqQGVABE1fhhRoB+YW/4z1ZExEePig1NfWmr/ePZj//Q8rfCE34UwEshxhTWzZuvMPbtdavXy/WrFlzMBX8KIrUTMsosFt1rMWWbiDAUA3qq1atGpS+kl95eXmtUTRohxZEKPB8dcQAnC05ZUaBIRCcCDAFIDifC+PKCwRee+utlrxMdmlT9W6AsFDjfRMmTAiaFsCUx6/nzVvOE66PdrKlgg6R6gevXr3SDJkFZnchoO4AKD2LJFm5p7DYB7gUkCJIBqI98EF36RY3bteuXeMg/D/S+f2pBvJGSkrzF4qb6+o+VYSOHj16vyiKL0Dw17fuxabUOFL6aGfBWdjvjFq1avk0tRCNgV5A3MBrtgyAE1FRUXW82QebwxAoKwgwBaCsPCnGZ7EIvPvuB/flmfMW5lMA6BuajsaJI597buJXxRIJ0ABU/etnyjPTPHR7ZT9qzpaI0mXY4MEbPGUDp+ZQFLCZB4F8r9WaoIt9sGGAtW6QsNDh96SmLvWUvvP4nTt3duR4fo2aSWETzsD5QEqL5tQdYfKEPgLvKiOdbyxy+MeBRmUXpn4zTvuLkY8/PSEhYaMntD0ZCwVgAxSAjrb8/1nw/z/qyXw2liFQ1hBgCkBZe2KM30IReOONd0bCH/6lXgGwyj74c0V+4jPPPPPfYIBv1qxZoUZjCErlcrX1pn/8PnPo0CGPecsjXAoCTq0fwK0wXp9RoHcNwKytwEf/FsrkvuRtXMCWLVtqgP9dKFpURWf6N4NuGwT+/eou/+gXUBNKz9OSJD8KfiNcmPrTEdT3GZSMz+AS8Cqoz11eaCwD4hYuw/JgpHhBEXgYGQBBUVrZ3T2wcQwBTxFgCoCniLHxQYsAUgCfRArgND2DDr8x95/Jz016KRiYn/fddy+hmM/L+YQ/x12Amf4OCOUrJeVxxYq1YwVR/i86DolFxAX8Gh0VNbx169Ye1eeHzz/crCibUWa5uSb8bZWTnm3dsuW77vB+5MiRu3Dafw6q2RA8H/Bos1jYyzbzGyCQpyPdb0nLli3ddoW4s3ZhY7BWH3QuXE5ZoZYYnP4Tvc0kKAkfbC5DIJAIMAUgkGiztfyKwJQpbz+iEGWWKwWA55R5zz333AN+ZcAN4rNnz76T4wy7URsnRAv6owIQKXvDhg4d+q0bJNwasmrVqp44xc5DXEBs4RkCfC4i6F9A7fypUDyk4gjTYj87duygbob7dSd/ovDcD61TUgZinSIL/qBJUOfsbNNzgsj1gHKC4bZUTWvsw00IXhpxP61evXoeKSXF8e3OfWRKTEUmw1O2zNFfY2JiWrgzj41hCJRlBJgCUJafHuM9HwJTpkwdqJDcRc4KgPpe4Pb/49ln7ypNyGCiN+aaTNsh7pvrhT/er3zggfsLVPwrKa9IE6wDoboQAvsufcEjq0KAyyaAYXnYjaC6J7p06bKnqDW3bt36DrEVydH5/U/mhYakpDVtetXVXOqWqNew4X0Gnn8W5vVW9n3b4wbIIfAyrVGjRnPUGIVSuhCHcBAYNKLYIAhxCiwA/ywlVtiyDIGAIcAUgIBBzRbyNwIffPBxi5zcrHxCzHqiU9u6mlq1bBEZ6EI/+j1/NXv2azzHv5Df9C9eQx2ApsOGDfNLuhkNDkQBnY8RF+DojaDKfi3t0KoMwH8vW2RubkSYcWKbNm0KtCqG3/9JCP9pmvJAf1JMJclyd9u2bQsoDrRG/5mMjGGiojwD07oa0a8Jf7TfpT2PVoaFGafWrl17XXGWA3//3cCykYQAwLP2uAmO64B+Afb+C/5en9FnCJQWAkwBKC3k2bo+RwAxAFGIAaCpYbyeuPbFLgpco0mTJhXaCMbnDOkIwvTfhuOFzdQv73T6f+jBB4fO9efalDb6DTyG9T/A+uiR4Dj96/34qlDn+YsoJPyyJEmfa8oShP9QzJ0LQQlPhUN5QL2CJ1q1ajVDz/vhw4drIZd+PFwPUDhItCOiH3YOgc8UePFzFCea0aBBg6Cprw/zP432R38FdXfXY2Ki0dSIC0jsgb+fO6PPECgKAaYAsL+PcoXAG1Pe2YeWuE1dKQBwVo+aPPmZzwO9Ydp5EEJxD0699fP7/YXvIfyHBIofxAXUxal9DlwCbV3HBegsA6jmFyIIk1Ec55YgGlbSdrt64Y86/++3atkSNfmtF2oC3A0/CzryKWgHzAm6bnq0I+BmVNWjZv5FuJcXqP26uw5O/wuwv0HWMtFkIdoE/83duWwcQ6AsI8AUgLL89BjvBRB44403P8S3+HhnBUB9z5Ol/3juuQGBhI0Gzn01Z853qMY/OP/Jn2QmJSU2Ka7cr695pVX2zGbpn1AE/o0AQJs1QqupTw/AjoZENkuBRAW6PugPZoLv27VuPRSjw3bs2Psgz8u06VAzXcYFtSRkYf5cSQqdlpLSsEBDI1/vy1t6eD4RsABcxL7DKQpoCPU4zP9feEuPzWMIlCUEmAJQlp4W47VYBF5//a3OaEn7s/NAq8+az6pSuVLlkSNH5hZLyEcDZn799TO8WXrXLlhpmhkvIARe6fvggw+u9NEyHpNBQF/r7OycOeDLWnGPUtCEv+29c5yA1UTOb46ICH0qJ8cyEtlyI+DMj7Fm8WkR/dwRjiifYOBXSOG77jFjAZ6A5j9/Q/vf7638E4LTfzL2eS7AbLDlGAKlggBTAEoFdraovxCgUefH/zxxGiIpUb+G/XRqFHtPnjjxR3+tr6f7zTffdMy1WNYSiebjWwWMLeXvg+HDhz8dCB6KWoOWEObFsHdFXh5NLRWO03/BIEFNGYD2sh9mgyaO8arwl6BcLaO5+xD6a0s7qM8TXC9dufItr5D7bc/mQIUKFfK5jzyhxcYyBMoaAkwBKGtPjPFbLALvvPPev80Wy39cKQAQVt8+//ykYcUSKeEAKCKJN29l7cF6cXrTPwLndhmNxlRvq/CVkC2X03/55Ze3zBYJrXatlgCXJ3+7ayDffQmn/XeQNvcJBP8Zf/DmT5q069/ly1cuYmsIjFQtGK9CAXjRn2sy2gyBYEKAKQDB9DQYLz5B4J133qlqtsh/glikRtBqvlaFVx6KAtVAUaBMnyzmgggi/iMQRb9elokj710Vrtw1nictRowYcdJfa7tLd82aNTEQ3MMhBJ9AimDjYoMCC1UOxDWiSB6GAuDXUr3u7suTcfD934syxIs1ywwwaAEFwO1Sxp6sxcYyBIIRAaYABONTYTyVGIE33nh/CuHMk/WENDcAqs6999xzkyaVeBEXBKgL4saNLHQdVPrp/f5U/BtCjYMfGjZsgT/WdZcmTvstcnJMTwCLByD4UH+/QNCfagHAf3/hR2Vnt4DdOmBVpjRrwUVYAiairPC8smT+RwVEWnnwQdUtIwinKsTG1nIXRzaOIVAeEGAKQHl4imwPBRD44IMPYk15lkOo7havtwLYLAHZMdGR9ceMGePzXPQZn3/1MU+ksc7CnxDDh48++uCE0nhUy5cvr4A0vGGyzI/keKVlEUF/pzFuHvz535hM5kFI33vJdVxAvqA/a2yDNYKedtP7vxYtWiAVM7gv2nr4ypUrF/AzxpqyaPigUqXoUo/LCG7UGHflDQGmAJS3J8r2Y0cAhYEeRGEgespTLy0Qzya+5iMW4H5fwvXFF19Mgjn9HWs+uSPoDyH/m6Q8U9fRo0cHrLiMrTNgN+zvEWTx3Ssrcqh2Ys/n5xeFS5wkfQ/B/Q1SErdqJ/gNGzZuwyZs9QJswYsI+6fBf0XFCUAJQHahvBj0XklJSQna9D8I/75w0yyzCn9YAHiuQ8WKFVn1P1/+g2C0gh4BpgAE/SNiDJYEATQI+gYNgtSgP10cgPV3ngx8ftKkJSWhr82F8B+K6neo6MfBw+AQ/kj5O2+x5KU8/vjjF3yxTnE0fv7558Y4vT8IgU/9+0laepve1A8hfQtyfIliFL4xKsoa5/LImzZtqmCR5EvYhz3/3yooxdEiavtijy8i/S+pqKBBmNQVmSg/czL38YkTx5a502youL358j7aIc+FkoLmUKqydqFSpYq0+1+xDZF8yQOjxRAobQSYAlDaT4Ct71cEaBW+43+e2UWI1NBhBbD5rgm5HBkR1nzs2LElqsM/Y8aMeyFI5uNlcDL9m1D2thPqDmz35yYXL15ck+NCh/K8hSo6TQvx6yP4kayCkJtXqVKlpQjayy6Mp82btw0xW/K+05/0UTjodGiIsR5tz0v7CxiNUWOB6WSeV9yJE0CAILcwNDT8+0aN6m0GD7I/8SiONhSjSPQqQBAoF0GVGChEn+P0P6q4eew+Q6C8IcAUgPL2RNl+CiDw+uvv3Mnx8g7cCLcHrtksAkjL22exmNOef/75m95AN336zF6CKC9BjX2js99fEflRo0aO9Evp4YULFyYgin+QRVGGibzQTmuvS/P4tIh+CDYT7PFrUXpooSCQH3r27HnFnT2uX//LKgQx9rDZ+m30lCc7dOhAC/zYr+3bt0dDmD4FgdOQCQAAIABJREFUvWcMR6RquqBAe1yAPWjQXixIVJUBnpcWXL58eUtpNGeC8IeFRPlas44gLbM32v8GpDaEO/izMQyBQCHAFIBAIc3WKVUE3n333WF5ZulrCCS1UZDdH06lnELWxcRE9oePvtBTsSvmP/74066igV8O4RvqLPxFkUfQ36M+DfqDNaM6TuL3wXQ9CCmG7anr2uHXVyUs3VcOPl3FKzxO3Ibl3bt396ga30+//lrPeOPmEfjxQUolSMP7zmdlXa/Tu3dvkyscdu/ebTCbZfCljIMHJNWpMmChygD2cgvgbxEMho2WvLyNJpNpF7Uw+PsPBQrASrQm7kX5BA/Xcfqvir0GXY8Cf+PA6DMEmALA/gZuGwSmTHl3FC+QT5EZoAo3p6DAjZKUN2Dy5MluCcwPp09PE4j4I6zZEc5BfwLPrUQ9+f6+8HtD6DeAv/5ewimDBEFsaQ3Cswt77bR/C3rNCvACoR+6skePHlnePlTEELyP/aCpj034UxM5z41OS0v7zB2av/32W3OLxTIKkQK090Eld5UB2/Og/QO2YYu74TrZi5z8vVWrVj2hBSa6s35xY1D6t2pOTu554IjqjBgtCF9VrVRpZHHz2H2GQHlEgCkA5fGpsj0VisDrU96fyHOW951dAVazOX8kOjq8/6hRo44WBeHnn3/e3ZRnRgEZTif8bYF/hDuQnJyYitPyDW8ew6xZs0JDQkI64WTaG0K0N4RxHat1wWHap/If96+heO8yTg5deP16yOqRIzuXuL8BfPsonMSdgXCsoFk00NTnoCRZ7vLUVE+tArBUdIOyNRTKCRQYLlqvDFgVDEc6YWHvEUR5HRH6v4Kn34DnH/QF18ehWrVq0bbPHl8ZGRnjwM9HGp5octgjLi72J48JsQkMgXKAAFMAysFDZFvwDIF33vvgBclieY3OyucKUA+Ewi2ZJxMnTZjgsiMcDfiDK+FbCJAQ60ncYUmAsLqQx5M24x577LQnHK1YsaIGqtLBJC32QaveLjjJW2MV7PStfIL+OUkhKzijsISYTD/7upzwmjXrXnbO/UfDv36dO7dZ7sl+nMfSoMHo6PjuPJ/bC0pBTyg2tdwR/lYfvVZsqICycB7+j0O4fxA0D8KPfzgyMv5gVBR3qSheEf2/FcpEO1XhINyFqlWrsOj/kjxcNrdMI8AUgDL9+Bjz3iJA3QEoijMNgkBt1OOsDCicsDYyJmLCE48+elBb47+ffvoQOvvNwnCxoPDnaPxAF8QR0GDDIi/akhd+6Luzs+XegmDpjby6O52FvWqPEHgJuXQ7Ca8sFzhuJQQ+PQX75QJP8RDMxxAcZ62LT5P+RP5nBP519fWC+/bta4A0gF7Y0z08L9yNNfNZB/SBjHbLgI0nV+/twYpqMSLhMgIfqVJwiFoKqIKAfP8j1apVOw3hXwd7OaY1MiKK+GF8fCWfxmn4GitGjyHgTwSYAuBPdBntoEbgzTff7UFEfj4vy9GOk7wqitWTPYSJGX0D5oSHV5iSk3Otm6xwVGFANp31vhZDgN8sEJYD4Too9KQMX37drKyszrAxdEcr4O446cfa51slmPWUL3AXiKLQyP1VCQlVV8H0/lcgQPzpp/WfIlNitCOoUMhDoGHzbt062BUgf/BBCxa1atWqSW5ubhoEMwIIeSgEcqJ2+ndWBvTC3h7DoVMOCrsP6wlqHyhXcT/ZGthIFRyhbeXKlYtV2Pyxb0aTIRAMCDAFIBieAuOh1BB4882Pmghi3gqcfmkfeNXX7gjqs77HKVWigl8NwHNxH2f1x598cnQ+lwHS9JKuXbvWRVH4LhD2nSH0q+f349v9+tkQ+5t4Xl6DU+uaYcOGHfBl0Js7wK5du/YObG8fTuLWtsXqJO71rl07/8ud+b4ec+TIkUSLhZYsJq2Qs9EKHNHyxRW9Ff4OV4JNcbOWLf6zSpUq9QKNta+xYvQYAiVBgCkAJUGPzS0XCNDugThx/w9yoaf1cO+UIVDEe4NoeHn06MdfQQfAqtnZ2Z0hxDvLikj9+BAuVr+1PogPJ9Es6BE4dcqbFIH7Jb5y5S2FpdcFAlx6Ao+JqbgJglb1i6uuB578iWyCJu3bt88JBA/urHHo0KGa4KlZXp6lGawkzcFrM7hOqrsS7u5YBpB++GpCQgJr/esO+GxMuUWAKQDl9tGyjXmCAD3dvz116tO8RX4DAsRYMC6goGUAwucoxq1C4FwXjucb02I8zvUA8P4vpNFtRVncX0Se35KXl7cnkD0BisMAaX9Pmy3Se5rwp7X8oQfcA9cD3BDBfeGZVTx//nxzZBo0Q0GkZgIhLWDJgTXDcdJ35Wah9zH3DsQFHAruHTLuGAL+RYApAP7Fl1EvYwigYFAKEQ3ziERP8I4odBd+f+c4APr+Bs8JBxSO32MUlT0IPtuDHgAHg9XMjJr/tXNycvbDRRFhPUkT6hefBuE/riw9Ngjz6DNnzgzFz//DQ2hUtKtAtfDsxek/pSztkfHKEPAHAkwB8AeqjGaZRgBdBKPQFvc1jhfHQqioDXFcBQk6AuZwouTEj8aOeWxCsAp75wdCMxFyTab18P0j8E4LfCTHUQGwWUkKCQXywR87dqwxXC7j0HhoOKwval1/t+IECHkap/8PAskrW4shEIwIMAUgGJ8K4ykoEPjwww9bw7w8A5b9Zu7EBRBeXMMr5pFjxow5HxQbKIKJn9aufVOySM9rpn8ITgnm/w5du3bdGsy8U4Xs6NE/+4siNw6/d9Ei+gsKf3ITWRyrENg42ClOIK9aQgLtZFhkvYBgxoDxxhDwFQJMAfAVkoxOuUSAnpQPHDgwUSH8y8gvD3fOEHCRMXAFp1HoAKPQHTA4rzVr1gxA6+LFWllhW2bDKz16dH85ODkm5MSJEw1MZvMjqB0wHJjT4j1OlQSRrSEIqJvAr0VX3zk1atRYDLdAH1g45uuVA6Lwi5KSEgYF6z4ZXwyBQCLAFIBAos3WKrMIfPzxxzXMsvw6p3DDaEpg/gh/W0qfrjIg6gcswwl0/GMeVgX0N0CrVq2qK8n8LmQpxGp+f4Xnfr557do9vuhd4Ev+//zzzxgETd4PvB9GxH97x0neWfhzvyP8cnZMVNRcpPalazycOnV+HtIrUYrYmtlBNQZYOfrC/7/Cl3wyWgyBsooAUwDK6pNjfJcKAlOnTk1ReOFtXiFW87PN7+xI93MoAziRZgki/wo63f03GCL/N2/eHIVmOJtlhTTVhD82kGkQhWbdunW7UCqAOi1K0xIbNWrUFbmII9Dm+D5YKcJcVQaEcnURX17z4KKZXa9evb3OvJ88eTIU8QEXoatF6eIC0hMTq9XAM7MEw14ZDwyB0kaAKQCl/QTY+mUSgQ8/nNGHFyxvIXuwcf7iQI7TpqYcwFzwh6IYJo8a9XCJauqXBCjanCcz869lhJN72PP9Bd5CFPmenj17ri8J7ZLOpW6WSpUqdUIthsHI8b8PlQArOyoBOhQqCH0TsF6Guv+zUUp5VVGtgzMzM/ubTHk/6IMCjUbDW3FxcZNLyi+bzxAoLwgwBaC8PEm2j4AjgNMpP3369MEoE/hPZM83tfuadU1s8ikHhNsYEiI+P2LEiICXn12+fPlMpPs9qgl/eqoWBf5pRPyXSjQ8FfoQxp3ROniwLCsDwVflgn59az8EWSK/8Lzyndlsnt+0adOr7jzokyfP/A9zRmhBglAeFCgAjeAiOOLOfDaGIXA7IMAUgNvhKbM9+hUBGkw3bdqs/hxn/hfhaAnbwl0DqASoSEReAhP3648/8sgevzJmI7506dIXCce/oov4h1wUZvfu3ePhQKyvrUFdEFFRsfcoiqUPhH4/KCH2k35+4S/S0su0PPL3sAwshKLgkXsCz8OIAMBMxA1UsFsSiLKlevXqqYHcL1uLIRDsCDAFINifEOOvTCHw6aefopyw+LxCpE6u4gL0cQPoKrQ6JCRiygMPDNnor00uWbJirCCSj/JF/HNkZ0R4eEcU/Mn117oa3a1b99QNC+P7WiykD07kHahwtgp7a+0BTVnCLxIsEpskif8+OjpsUa1atTK95e3UqVNoq0yW50v/I+TvUAC+9JYmm8cQKI8IMAWgPD5VtqdSR2DmzJl3mczyeAi1B5E+GFqkMkB4uATEaXFxMfN92RcAJ//ROPl/4hD+1O7PnyUWS7t+/fr5pVYB1orYtm1bmsFo7I50yD5438DeC8HmGtHewxqCNH1+E9SA72NjIxaWROjrH/jp06dng/Bw3en/JoR/NSgbt0r9D4MxwBAIIgSYAhBED4OxUv4QmDFjRmXRaBxlMVueREQ68tcLBglqKWq0OA1uf4nOgTMQJ3CyJGgsWrTyUY43f25NWbQ2+cH/rkVGxKZ26ZL6R0lo6+fS4EK08m0LL0hX2hMBmQ/4XTFop3tn4Y/7MiwfEPoEQj/WZ0Jf44lmDZw8dSoT+43WYjLQ3OCTmtWrP+mrPTM6DIHyggBTAMrLk2T7CGoEoAgYOE7sSwTyd4ETeqolhm3KgIuOgZBZyiZZFuZYLDkLRo4cec2TzS1ZsmQkUv2+0At/BNOZFFnq0b9//xK5G+bDhF9148YUURRTaSU+BBamYRtqGV67e8Nm2te9vwnl4CeUV14ZHR29onbt2h759D3Z+9mzZ+8zmy0L9cV/QkNCmsbHxx/whA4byxC4HRBgCsDt8JTZHoMKgU/mz08Uc/Me4WRpJC8rdfTtgp2VAbzP5XkBhWukhRC6K1Gs53pRm4HwR9VC7j3V7O84+cuhIcZhSPfzuDohqgbGQHC3lyTlbs4gpAkKaWXNzbcFOhYU9qpfHwL/GCLvV9BX8+bNf8FneYF4CKgYiD1yg7X0P4HnN8P8nxaItdkaDIGyhgBTAMraE2P8lhsEqJD+5pv5nfLyzA/DPH8vR+SYopQB+MzzZE5ZzyvK4qgqVVb16dr1tM70zS1evPg1kPync+EcxShOHNi793+LA46mNf7447qGYWFCa3QybAWhjVM+uRM82d0I9rx6XRAf5RmC3syh5bEsG1YYDPKKNm3aHC1uPV/fR22AqFu3sjKxj3AHBuShmjVrzvX1WoweQ6A8IMAUgPLwFNkeyjwCs2bNCsXVy2yWh3E86YsAOscpW3XfayZ2W+Q83uOUfUQm/BqRV36C7Ebde4KgP8d9a2wBeX/gwAHPuAIIp/vqeXlU0JPWPC+2hpUhBcIclfMcp/uiuyAKF5CqtxJrrzQahZ/atm17ozQfBEoHj8Hup+uK/1ysWbNGdezHVJp8sbUZAsGKAFMAgvXJML5uWwRovjzy2AdIEhmCugLdIcB0WQQOAW8X9g5Tvz2tjioMPE++GzBgwAMAUkEhoLow5TdHMZ3mHGdojpN9c46XqzqEvapl6Oartv1873HKzwGpLbAyrEOMwrqOHTvuwXw5WB4UFADq56cWC1VhMhiMbyYnJ/4jWPhjfDAEgg0BpgAE2xNh/DAEdAigNn4kTtg9ILjvhWUAp3xOLW5TTNwAraCXDSvCHFgJ7sCcZsiL153sreV1HX78Qt9LMO7vNhiEdZJkXofa+lsDUTvAmz8A+P47oLjQRmuyg+qSgGKi1IX5v0TZFN7wwuYwBMoKAkwBKCtPivF52yNAy+eixn1HCOIByHOnrW5ru6MMuCns6Wk/D87+3RCcNGhvE8r0bkZdglI167v70I8fP/4dlJwhuuI/NNugr7vz2TiGwO2IAFMAbsenzvZcLhCYO3dBPQTc9cCZtyekN608aEvHc4oDcI4L0L1H851LskxmIinxp+wb0duHDGkPM3/Zug4ePJggGgynobSg/oDVbQElpl+dOnVKrflS2UKQcXu7IsAUgNv1ybN9lysEVq5cGZKVlZUKv3cPVB7sgjoAzSAKheLiBOh9mMstCs/9zsvyblgXaH+C3deuXduPlMOApO6V9EHA/P8fiyT9W3f6/xOn//rBFJ9Q0j2y+QwBfyDAFAB/oMpoMgRKGQEaO4C2uW1xuu8minwqigq1JpyEYkRahL9z0F/+90g5tGDoUSgTe1BRYA+nKHsQh7DLl6WKfQHRyZMnYyH8TyLeIdZe/IeQCXXr1v3QF/QZDYZAeUaAKQDl+emyvTEEbAggC6ACTvppJrO5PU+EdojibwlbebhWLMidOAGU8c1VZO4QzOtH0Nb4IGIEDkPJOAxrwdHSUgwOHz78GmIhXtAUGwQ9Xke1wWS0/b2pPfyKFStGhxmNcJXkvyRC/kB7QqPpxo2kMxcu2N0FUB5Ccm7d6o/7GxBzcYn9ETEEyisCTAEor0+W7YshUAQCNKAwOzu7GVL62iFdsC2qB7aFEFWDCt1RBpwqAUqYdhJ5h4dQpAgKguGIwUAO5oji8c4tW/7lrweBwj/VLl++cgR8R1pLEdP/GT6oV6/m0/o10U64Kuouq59h2EiBKIstCncNPRrWQInpzyny2KiY2LpQJk7RMdWqVaOfLQkPDet07OTJX/zFP6PLEChtBJgCUNpPgK3PEAgSBBBHEI1aAU1RSS9F5rgUkeNTZFluWGglQFs1QOd6AY6+AGpKHorwCOdRcyADGQbpUDgyOM6YTgTLCYGQDFgQ0ps0aXLKG389BPbXWOFBTfjDwiEZRLF+jRo1ThQGaWJi3K+CEDIIdRbUMRD2U3lFboqYiRXpmZnv0s+Sq1X7hihyndDQsGeZAhAkf5yMDb8gwBQAv8DKiDIEygcCtBcAdtIcfQjuRHngJggSvBPWgsYQujHWUgJaTQI1IbGI99b8fCflQHufiw6B5zDikiDwlxG3cAXZCVfoTzRQuszz0k2snw1l4ToUkiz8noMOhMnokfCDteeB9WiPH4vr169/X1HIu1IAMP4oiDxw/vz5u1NSUsIvpKcvUHjlVrgx7GOmAJSPv2O2C9cIMAWA/WUwBBgCHiNAywjDWtCYKgYWRamH03x9VBdsAEEcb40r8JlyoLokHBH+mqnfUaVQK/5jMIgdEf1fpMnetQIgbUXpoL8jxmGMJOW1EmSugiyQzkwB8PjPgk0oYwgwBaCMPbBgYzcpKSksOjS0dnZWVpIFxzacyK5BABw9d+7clWDjlfHjfwS2b98ejWyBekZjaH36ExkINfH3UFOSuBqCyCXj7wO5+q6VA4cfv6Bw14L8NGHv/B5uhr0NG9ZNKW6HhSkAPG+IgnWhAiobt7JYlHGiyH3MFIDi0GT3yzoCXPWEBFT+yn9JipJ+PjOzf0k2lxgf/y0Cb+rqaaA25wfnMjIKdOaqVi1ukajw1elYRRTWnz177tmSrM3m+h8BfNMaMhMS3sTx7An4S8OdV4yOrVDz0KFDp/WfDx482Pj999+Xidxy/yN4+62A1EQBpXmrhYSE1DSZTDXgToiDQpAEYR6H3xMVRYgTBJKEzxwFjWxug+KVA/JwgwYNZheHahEKwBpekn5SOPns2fQLAxMT4+czBaA4NNn9so4Al5gQjwqaBa9oWWly6MKF373ZIPpv15bMecepoq+fz4uGZ86ePfu+M83ExGpHiCzXVxUATlmcnn6hSD+eNzyxOT5FgMMX5FIik8JKrd48n5FJfcfq3xa1Eog8ed4sKVXhZ33Sp5wwYuUOga1bt4ZFRERUkkJDK4UrSiXEHlTG6bwSovZjOYWLwQkdfQ0s4Qj6i4DSgPx/SYHw70dLGRcHBg3wU3j+WVioztOx1eLjX+QEYQ/+LlckJSTMljl5Jb5/vk1Ojv9YUcTZGLezOJrsPkOgrCJQqAKAbiKv4h/Fi95sLDEhDh24uDec5zIFwBs0g28OrDt/g2r3vTNn8APfQO50JMT+DliQ2tP71ePi+qLK3FRYf2rj81n4/NHg2xHjiCHAEGAI3H4IFK4AcPzh8+npjbyBJCk+fp/CkaZMAfAGveCfg9SpuciTpm1m1UsQlf/WrtPolQ0bNlyjb2tXqBB54urV6/RecmLcOVnmEtWBHigAsBq0xqlvIHrUN+BkTsCp7VRIiGX5yZMX16qU2MUQYAgwBBgCJULAWQGg1bOiNIqcIDaFCYz22Hb7io+Pv0PgyB+2CfSL2u4GKMwCAIFCT4uqHxlf8hfxJb/f7QXZwIAjkJyQsFMmSit1YY4/A0WxNn7D4b/g5akC0KlTp9jjR47MhCmWVqn/KiYmZt+NGzckmHsboGjLUKIo9WNiY0c4xxcEHAS2IEOAIcAQKOMI5FcAFLIMwrsjvsmj1X154QaoWT3pFbPZYnUdKGQbxH87DaPCFIAyjuFtx35itWqHEPjXUH3EHL86PT29Z2EgeKIA0JKtESHGNQZjyNsSyUlX8oQm6l+RLGfEoVHNrkuXMhMTE9tykjQjqkKF/kwJuO3+9NiGGQIMAR8ikF8B4Mn3OHjlKkQZbjvdeewG0Af0CQZlgmTmpjIFwIdPLAhIJSfFH5clUsem5H0Lv/4wXygANAiLNxh+QpW2rxMTEt7jBWWYJCvbBQUuBJ5vKkjyE6cyM/9HLUYiIW+eSU/vqCoI7GIIMAQYAgwBjxEooACgMehsieeWaZSMofJd7prk0USjRU7WLdpOFJZh4ZisKI/AV7zFjwqAAF/xHUZBqJ8nSSGIAs5CCtEJuC0OYk2XJuniEELd8FqhoaHNkcN8I9Fs/p2eOoubA7dHFUFRmigCqQIFSgoPC7sohIT8gVKll4ubW9h9NZNCkhoZDDysMUIO0qYuwxx+sCQ0sZYIvFrAtx5vNCKCOtd8DT6XU6dPnz7siSDVKwA8x887m55ujwdw3o+7FoDk5OQ6ONnPglDvQGlQBYDwSv3z5zP70fc1qse/bZH4oefPp6vpoghE/BKt7b47lZGx2luM2TyGAEOAIXA7I1BAAWjfPu2h7Vu3ZNKiGFZglNfOZ1z4tzsgqV/SZmLN4Yf7AMJ4lTsKAL7M16IUaC06TSbcT+czMsYUtV6jRo1q3Lp19VlZ4u+HKbqy81jkFF/lZemrkKiYN44ePeqyGQlMyVswJp7ORc3vkSj5uTk5Pn4qPM90bQS0qxfecotwKn1eqx2urUXz4C8mJz8oS9J48NAcnzsXVZLQjX2XLCtTkVb0HQWyOAwRPBdjCg9/BkMfgdk72cV4FCjjfkXltS/vTkv7wt2c+lq1qjY153LPooTrANC0x3ho9HmBoD678l2uSXnz4sWLF1zxCcvOYfSLN6j3BJIMC4D1d0Ju8YRctM9RyAaJ5/cKiqw2X0H0PxXYOLCr102MtXdXM4SF90Qv92P0BhSTcYSYuXPnLnxE3zsrADWrx02GNenxsxmZquWhZkJCjzxF6YP67U8Vhyu7zxBgCDAEGAIFESigAODENQSCEEFYxJquxfNHcOpS/b3FXKCVcBLCqwYdJxpD7sApuoJbCoAHdQCooADNt6GghBXHEK0tDgE0KCMjY5Pz2KTEamcVWU6inyPYsZdssfRGydHxrmjCz90Qfu4j2j2YoBtA2tOGIS2K54FiKGyNN5n+tuevvzIKG39H3bqNr+dk/1iI4C84jeePRkfH3FOMH1xESubL2OFkENCUmqJYvmUIMYw6dersPOdByYnVTMDcWNx+oTCtFERxm8VifrW4sTERkXcePH5cDRhNTk56B6Vk18F6s4q+t7kABkgWskDklFhF4PrLivA4zdem96mlRuS4qSUtWFUcj+w+Q4AhwBAorwi4VADo6cpMFPWLmF7uuAGoX1YT9jD/7zt3/nwz/WeUTknrAEAo/BMKxuv6h0FPr/AT/ywK5JJs4ZMQv5BG5YNuTBYEfDvnbAa9AiCIhimSxUyFZIHSyDjFbz93LtMeyNiwYcP6N2/c2OJkebBg4mYefdLxC4wZ5A5Ex9E5OPDaLp4/C4Gd5kpgqyf/sLD9oKmat+lFXShQBvbDjZIOAWi0cEJNBGh20Cs+dEy79u3vLMQSwCUlxM3Gqf8hpz/eUxxRNqOgyjW0UYnneK4LaFbUjYGlgnsaVpj/6uf52wKAv5UpoiRt0fqyawoAsZAfoZiNEAzGx0+eOTNf4wk13+vl5ma9xYpGldevJrYvhgBDwN8IuFQAsKiISO8Mh5BTXocb4F9FMYOKWh9qJ2jBIE4+c+bcW75UAOrWrNkpx5S7ThOqMPPnEkl++mxm5mf4zO7vx8kwAg1KXiGyBFO6XZruRapaS7yzm+H1CgCUCDM1aYMmupDxH0kK9ytnscQRTh6kCMbFqF74KaVEo9QjQ4y/YTHVXaFePFkeEhI+FqbsM3p8qKKQdf36Z0iXo4FqtqHcrpCIiLTjx4+jRarjUquRceQV2yfUzP/EmYyMz53xpn3NsbfF2JtaZIdeGDsaYykG+S4nmrjHXUIK3ZM4MS/QD6TleXfs2DZRkS2v6sz6EgRuD7g9KN4FLn/EAOBvZSSnSPH4O5tCF9S7AOCuGS3I0tuyIN6hVXCrXaPGoFyzuSUsMyg6xS6GAEOAIcAQ8BSBwhQAUj0h7lMJwsUqufijcAM0KIK4UC0h/hxOvtSnrkTFxNZGsNopXyoA1RISduHkSoU4vVAaRuyjmYtd8ZWPfwwwEK6nPmBMrwDQ+dAMMmEJSIWw/7OwfdaIj/83Tvj/0e7bAuBoxoTLgEMqXLdt3rwEVole2hzw8X/gw54ZQT9PSkz8TZGlu1Q+OP4bCLUHC+OBBhwaBP6IFqOBE/6q9IwMO306L6Vy5YSLIcY/NWsBjYkIi4hsj3gIGuzn8kKN9nvNptyF9GnTAdS6ACsOLQRVYG/+UACqVq0aZzBwq86fv0DrC1icYgB4rHkU9plVZ89mIlaAxgzELw+3kFeOZmbuKmxP7HOGAEOAIcAQKByBQhWAxLi4LjBmO06AvNAM/td9rkjlGwt/N+2rTcf5SgGoHx/fKosj9prcAlFmnMm48ERRDxanxiSclGkzGlWgOc8poABw/DgI3mmF0XzkkUdC1635MQNV7WLVMTDpR0ZGNT5y5AgtnlToZRPYh+1mdsyDMkUL51i0SfCvowe6ZoYvPuiIo0ESAAAgAElEQVQSewOflvaczP8JF8F+BMLZlRJKM18wpsqrMALPZE5x/xBo/XPZQsbaxylksLPFgN7zhwKg8p2c/DqCEc2nzpx7uUAQYELCBGSnvFnVlFf7cmRYJ8SXDKTxKsXtid1nCDAEGAIMAdcIFKoAUJmpO9XjbeFuAHTz+ww+5cfpEija+pQWye0rBQCBbK+B8gvaFtytUKj6kRXFiCPsIaOi7Dl14cIOjYazAlDNIiUUlfJXQCEiyj81c3Vxf1w0wA1BhpPs43ihHQTydu099a/D32+1sEBB4HmhLSwR6cXRLex+ckL8AQQ/3qk+D55H25P0mvi12LRIuC1q3rx+jVpAVKWpMGuEvxQALCkiI2ShwSj+duNW9nuo/idfunTplm2fNOUzBq6Z+7G34Tl5eT2vXLlyw1uM2DyGAEOAIXC7I1CUAoDIbN2JsBA3gJoOl1iNpg3SQDIJgjRJE6Q+UwCQJgjzb1dVKMFUn56RmVDSB5cvBoCQE1p6WWF0cer+DywK9nRIT7olJiQkpCFA8BedAvM83BdvOxSAxOmgbU99pLEIkiR/jiC9Fchg2IZxdmvB/7d3JXByFNW7q7tn9srmAJKd2TshJ+AZQckBkSPcgkJAQQEFFBRQRBEPQA455A+KHAoegAcil4AoEBDCEUExgggkJCHJ3rNJINnslZ2Z7vp/NZlZJpOZruqentmd5NVPDKRfXV/1dH316h2yeSfsBHQmYhckDBpxbXJHe1f3tqschQIy8h+QEeHWCC7CO9o6uhOeEumlgARAdGMgmuSlcYsfCxfLh4xA4L+WFbVx6TNDN7XjucVei9v2t7q7u/sVpkMihAAhQAgQAjkQcCQAmRtX5Zjqj6xateq19LawMR6FzeuxxN/pxtM42R6aeu4bAQiHEdiHb0tMxPSnYNC3MN8V3U4DAPczqLoPcWoTWo7fQ8uRuJvHBj3Y1tEp/Omlp2ohP3HixDFB0xi+KsjclBNBcOKx/wyHYE4biLi/x+73lK4HHg9t3fqELDBRc03Nx2M6G9YuwPPinJQRowpm27mAosKhhx1ecdddd20tIgFIdAVtxO59PT2HmwFjGtII60j/iuucwBMpI0CVuZAMIUAIEAKEQG4EHAmA2OsQya01lc3NNANXt7S1DaviRbMifGsqdDBn/Ay4Zf3GdwJQV7sRp9LdE+1yzTH0rOpibxcHQGMPtHd1LXIkAOHw49i4EzHvc52MnerXhUNClV0lZOAr/yD6OyFdHsF6Do1HzXszXPIym4SrPFsGP3vhp39vtmsCGCoeCUPFhK+8KIjHcDwi/T2kiotwx4M7p3CJTBQQiLrMfgqsAVAdKskRAoQAIUAI5IGAjABojQ01P7Hi7BuJjWubZfj0VH+4k63QrXhEnFxxUh3C3XwYrmObUs990gDo2DyFCnybj76LlLJOuGQQgN9hQz7VSR530/8YTmwk94rYoSnYIyBaHp+YwFFjj6O/IzOF9p04MbTe1C+KawlNwySn8Qi8YStwAwjZZZAbviKApuKz0FQMB/LJ9H6QvSuZng7MsKa1t29YnV6PCIAMRXpOCBAChMDoR0BKAET2Naj4xT10oqRfAwhf7KHoUMKv3GD6I4jjflz6lH0iAMgpXzswHACnMBoAOQGorV2MuAiJ642kYV22UL05VxxzGMQcypMEYAcNQHrFZJjhT8Jw8DBoVw4D89k7V8OIA/BbxAE4LfW8sabm6PRcDm41AM2h0HUxpl2Uao80AKP/R0wjJAQIAULACwJSAiD2O5zA1+DPZtFB+jVAXV3oPgR7T6jOof7/HNT/9xaEANSHOhGkJmH4ZzC+uLWz+zAvk02v41oDUBf6E+aacDtzawOQiPRXXrY51b+KG2MGjg3o8zDNsg5H5L6jUkQiJVNZXnEgchkkjAyRRGiuFYu+OFxfN86GXcbtqng1hsN3WxpPaUNs2ABUjYQNgOp4SY4QIAQIAULAGwIqBGB7v/JkboDZs2dXRjo7RBIYca/dH7d5TaZltl8aAEQlfAGn73mJzZdrnYj+V6cyXVxRHM4t61hY069htr22YsyYv6Si8LknANt7AaTHsZeNJRnF8NmUHK5KtvMCkNVPfz59+vQ9+vu33AkycnTaJv9zbPJfFf+d6QXglmxAvf86yNYHRFu5NB10BeBmxUiWECAECIHRiYASAYA3wGy4sf07NQWx+fX09c3CZfb9iU05R0pYvwhAploakQZnINLgShmkDbW1v7K5fUZijIbW09YeEa6KcCMX0ffSkgFpTHoFkJkfIRXuWDYG8TwR1Ebjiex4oqSf2EUSoM19fUcYuj4Tqv7pNk76sHQfdGo3qVEQWQ4TWfYybQoy4wog8JAIXSz1WEgk2NGZuO/fFg0wi7Gi+HsiACqrTjKEACFACIxuBJQIQOKjHwqtQobAqeLfTa5dGjcQaCapEof6/1NQ//8lc6p+EYBpkycfMLB18Lnh9mH8hhPv+4F1smAsDBSR7a81lc9AZ/zhts7uT6dE3RIAofFYH+lqe99Kn7XAH31vmT+6cGfr7d3y9rAXA9M3zpk7ty6VwCfTaM+w+TGphDhOr066UWEmAcuMBIgMfydny/C3w3ql5XMQz3D//0V4ANyVKeeKAIRD74BxiciHglbcT9H7RvcHgUZHCBACuw4CygRAhGlFildk40skoHkL98Qi7W+V8FP/xJy5oWwZ6fwiAKLP7QLUIHkP18x5OCkPhwfOXLLGhoarkeHv/UQxunF0KpWskHVLAESddAySG9pd2NBE2uThJEMZ4zCxwd8Hq/xh4pEZUVGo9Af7+wSxSBgIws3v33PnzZubI8Nfonngeghc9Z5K9ZV5pYDnDYZuvzOc3AekQzcS0QVz5jlIajj+ltimt5XuUG3dlGXLlg1kYuuSAAxHJcTcnkfeguHkSLvOz4xmSggQAoTA6ENAmQDAT/2D0a36DrkAEC72V4ihnwgDnFn8JAD1odCBnGkiN0Eir71Q6SNu/ZnZststfeGFi5Fd74cQS0bD05a0d0UOSt+ovRCABQsWjH9n9Yp/Y2Pdc3jzRQyBcDx+XmaAHqSrbdw6OHh7KnZAYsyIOLg1bn0oLbxtakP/JTb0M9PafLwmFjtj2caNXZmYbgv0o0Pbss2lEKUfVyJNuBJ5N10W2QAvS2KQ+GuRNlkHXi2RiNjk04uBdTobqYZvAAkpSz3IZtSZeuaGADTW1j5vcVukaBYlHuDamXpl5bPlul5dMW7c2mwEI3PO9N+EACFACBAC/iOgTABE1zDGWw6V+sztdo9A8JBcaWP9JACiz8bG+u9Ysfi128HA9BUGt56LI789M7Qa3dIW4qqiNiUjjAarxo+fK7ITptfzQgBEfczpIwaznhlOCiQ2V6QmRrS+pxGudqWJ/4tp+ixDZwdhQw0O94lT+FjL+uTy7u43MpdRXBP0b978+nbj1vWoxbVnGWNvmIZlWzEWAoHYC5oXeAkOF55MB7xD6mAxLGy+D2HzPXa79Upob7TnOec9zDDQZvyQVKCnlFy2gE/pbbghAMDrJpCb87O9urhKOhKE5HH/X2tqkRAgBAgBQkCGgCsCgBjtP4zF4iLwTKKIUyUM64Q/fFYDM78JgOgTtgjnaIb+0+0215yzZMvNYFBEwlueKeKVAIh2oLaf2d/f9/BwAh8JyrrGXuFG/OTMgDrp1YDVDGyUT+DvmmWLlsAe4Yg5s+BN0H2zg7xIoHMDt+JiA94WSMm59OPe/1uy0MFuCEBTU9MsG2GOM10XxTBAAL4FAgADSSqEACFACBACxUaAIUDNe6lOcYp9BHfaX8w1iOTHfGnquW7Yv2ppjQwHjdlhk62v3y+5qSUeIcHND5C69rZMudpw+BWcmBNqdW5bf0Xymi84AQFf9ymWZV2qM+s4qOPHZcqKU7/N+C2h2vqbcqmYkenwDVjeJzQFzLbuk6UXzuxj0aJFwaVLl55lcPvsVOa9DBkOjcS/eFy7DdcU9+CZNKEPrPCrDMYuhOperEFzVgygSQDx+IsRDF4FzYuIzyAtU6dO/ejAQO8PmGYcBoArs1RYb5j8nrhl3IjrnDZZg9AELdOZJjwLNGgpHsx1BZRqByRkP27HbkSwiDkC7tTfw3bhJthxJKJMUiEECAFCgBAoLgIqp8LijshFbyJiXqSubnYgEAjF4/E9wDDeHVtVtfKt1auRPCinYZ6LHtREES2xPgCPADsQmAhiwvDv6wcs67X169d3q7Wwo5SwIRgaGvoArgDG2Xas3LS09XHDQB6kztfFvuul3dNPP7188eLFH0WK5BrNMHZHul1kHbRWYRMWeHlq0804hA0FrmJqob2wFi5c2JIZYMhNWyRLCBAChAAhkB8CJU0A8ps61SYECAFCgBAgBHZdBIgA7LprTzMnBAgBQoAQ2IURIAKwCy8+TZ0QIAQIAUJg10WACMCuu/Y0c0KAECAECIFdGAEiALvw4tPUCQFCgBAgBHZdBIgA7LprTzMnBAgBQoAQ2IURIAKwCy8+TZ0QIAQIAUJg10WACMCuu/Y0c0KAECAECIFdGAEiALvw4tPUCQFCgBAgBHZdBIgA7LprTzMnBAgBQoAQ2IUR8J0AiPC83fX1kyrj8dooY7vFOB8r8A0GgywajfIAY1vw9xZC3PYhDO0W/NOamR63xNfDmDVrVv3ge++FooZRjQi7Fcxm5WJOmHPcZqw3EIj3V1bu3rl8+XIRdx+pBKgQAtkRSOacqMG7U4d/xvN4vDr1WxI19ECgB78hG+GVt1RWVm6prq5upRTL9DYRAoSACgL5EgB92rRpHxzo61ug6XwOt7W9DEObjgQ9AZXOUzK6zjcji247Y/o73DBeKTOMpb2Dg690d3f3u2mn2LLICrhHX1/P/gEj+Im4be+n29YUzdAaVOePj3YUu/9azq23DCP4YkUs9sLKSORVzEOaOKiYc0UynwqMNSzrc2Jra9syTYvJ5Oh5TgRMYP1RZE48EPkaPsF1tg8SP02BtOkKM11/l2msHXXfAeF8uby8/KUDDjjg35R7wRWKJEwI7PQIeCIASH7zCW5ZJxuadnx6Dnuf0YprTH8WH7E7QpHII6NlY6mvnziVW+aJTNdPRObCD/k8Z5FiuceOaw8hWc/vOjo6nhsNGoKpzc0LBoe2PiubK2f6TCQrelsmR8+3Q4AB3wMHooMnI1vjp5GtcY9C4JMgmxbSTRvGHXivRNrpgid/KsQ8qE1CgBDwDwE3BECvra050eD6N22N7+vfEOQtYVPsamuPJFL3jlAxm5sbFllDsW/gxL5f0cbA9NYA5zfuXlv7y5FU6xIBKMiK47Rfcxouw8Q7tU9BesjRKNON/7Z3dHy4mH1SX4QAITD6EFAiALW1tYfg2v56qOlH6qNhd3RFoHAobknaM3yFW/EL0XNzcXvfrrduk2vX7xGJ/GwkNCFEAPxd+ebm5uNisei10G7N8LdltdZGAaFWGyhJEQKEQEERcCQAu+2221jcH97AuH0GRqFEFgo02qITgPpQ6ECdsdssje9VoDm5blbXtDds3TgLKtyXXVfOowIRgDzAS6saCoUmwkbmVph9LvKnRW+tEAHwhhvVIgR2NgRybur4WO1lGsbDuOeeNgomXTQCMHHixDHBoHEzPtKnjTDpyQW7DUOBn4AEXAyBohgLEgHI/xfQXFPzccvUHrRtVpd/a/m1QAQgP/yoNiGwsyCQlQDAyO+Tmm09gknCjW1UlKIQAFj1z+zv7X1I0/isUTFrh0EwQ3s2HtdOikQiGwo9ViIA+SHc1NT0GTseuwfW/WX5teRPbSIA/uBIrRACpY7ADgRg2uTJBwxsHfwbJlbl0+Q42hHufGPyaK/gBKChoeFYfKR/N4pIjwJcrKWquvrwlStXrlAQ9ixCBMAzdJp4rzQeu1/VNVShJxE3YjCf3ycRAAWUSYQQ2AUQ2I4AIIBN05YtPctgnLS727nrXOu0dP1vqPtqeWXl67v39q5ep2l9aUF+9MbGxnFod0I8Hh8X5HwSHMZnccb2Njmfg7t2cerOdSVRUAIA74aTGGe/R//u/K3TQIKb1VZu2y/bXPunbvJVFYHKVXGtf7NllfdxzrciiEs5ArZUVwQCE7bGB/fUWXBPKxbbT9P1/eH6VekW75Q82FUkECw7qKWlZbnXNmT1iADIEMr+HD79HxDvhMf1XYernscN235Nt+3/DnC+DmSiN80bxJw5c+a4gYGBcQgMNH5wcDAM19xZzDD20S1rLtxzp+YaNREAb+tJtQiBnQ2B9A1Xr68P/YNb2sddTNKG7/e9lcHgL1evW/c86nmOaldTUzMpENCO0Sz9eK7xhWgr3eq/YASgPhw+Bf3dndGfEgTY9IfgW/0wM827DjnkkCVeAq0IT4MNjY0HWFb080DveHTs5dql2+LaQbgOeEtp4C6FiAC4BAzip59+evlTTy3+LwjxdBe145zxOxkzfwMbj3+intCeeSq4xqsHIfiUbmon4De9IJ1cEwHwBClVIgR2OgSGCUBjOPxlnMJvV50hKi6xmf5NBH4Rket8LVOmTGncOjDwVca0r6FhcXVQEALQFAodEWfaX1xv/kwfCNj2LcGxY6+H+n2jX5MXXhdVVVXnwf7im7gv3s1du6zF4nzfQtgEEAFwtxJCGu/WJXi3rlCuybW/cF3/diECKUFTMH3L5s3nGoZ+Ft6rciIAyqtCgoTATo1AggBMnTq1bKC/bx3+I6Q0W924ASeU70C2oNHEEqF2t2y51DC1sxEIKKg0NkUhGGbNsq2hl3A3K64llAtCrD5YE4udt2zjxi7lSi4FFyxYMB7E4nq37pcG01/4+Ny5h9x///1Rl106ihMBcIcmrromWLFoa5K8yipDa8Z/0NHVfS0EPZ/4ZZ2I50IrgD+uwhXBoW2RyIh7I6iMmWQIAUKgcAgkCAA+DF/AqfO3at2w73d0dV2tJuuPVDgcnt3V1YUYOP4U8YHm0ei/nO5Js/TUywzz7Pb29nv8GYW8Fdz5LrRt6x43NhlQ+d7a1hY5V966ugQRAHWshGRtKPQtaK+uV6nFDH5me3v3r1Vk/ZLx+/fk17ioHUKAECguAtsIQG3tYhgqHSrr2mB8cWtn9xGQ83zXL+ujGM9BeO4C4RF+/mpF19uCwfjRa9euf12tgn9SidwDPPCYi6hxHHYZC6FKftqvURABcIckgkj9lzPtg7JaTOO/b+/q/oJMjp4TAoQAIVAIBBiM76qCpvGugo+y2FhmFeKOshATy9Vm8t5fuDmqFV1fGRqKLiikyl82EGEgiaBMz4GkzZTJJp+vGzN23AfffvvtXkV5RzEiAOooJtTstiXU/46RM0Vynphl1xfCZkN9tCRJCBACuzICLOn3L7LOORfGl3Z0ds+TiY3m5yLKX1kwsByuWeIuVF6QjKesvHz+mjVrxAd9RMu2jcV+EdfETSoDMTX+k5au7m+qyMpkiADIEHr/eV0otAhb/32yGrAleai9q0t4fVAhBAgBQmBEEGDYWL6CE8svZL3rZuAHbW1tP5LJjebnTQ0NP4jHY1cqjrEPrnUfL5RrneIYthODTcDHsFYvKmhrEF5AHwqUlU/3g7wQAVBfLdz/X4r7/8tlNWBPchbsSX4lk6PnhAAhQAgUCgGGTfFH2BS/J+2Aa6d1RCKKhoLS1ooukDD8s4bWIBb7eJXO4Y/92c7O7j+pyBZTBsFlzkV2wptV+kRwpt/A2lskcsqrEAFQh6+htvZX9rbkWY4loLHD13V1PSmTo+eEACFACBQKAYYTy89wYjlP1kGpf7CUiQ6AwOb/S2z+X5ZhMkLPGdTMS6Fm3l+h/3jc5tO7u7vXKsjmFCECoI5eXV3oTzCRPVFWo3JM9UdWrVr1mkyOnhMChAAhUCgEWF04/HNseWfLOggGgietbW2V3m3K2hmJ5yIq29+fWtyhGFyn2wgEZ7W2tm4aibGq9Im4DR8d7O/7F2TToyVmrWqYgWta29rkGh6HjokAqKzKNhmElX4IYaU/LavBuLagPRKR297IGqLnhAAhQAh4RIDV1tZeg4AzIrWsY4EG4BtQWd4kkxuNz6E2Pxlq8z8oja1ErjqgBbgXWoCTFObUPWfe/MZ8ggMRAVBAOSmCdfkN1uWLshrQMn0OWqZ7ZXI74/NFixYF33z11Wn9sdiMeDTaCK/iCrgYjWOMx4xAoE+LWZuMcmvtwABbna/2ajTgJ4yPYZMzEf/shrwgg4FAYPPBBx/8npfQ4aNhPqNlDJMmTaoZW1k5ayA6OMU0AxMti1ch/HUQeVe26Ka51Y7F2vRAYG00Gl2O90gkpCvlYu47ceIe/ePG7b6pv78c75A4oG7K96AqrgCUgpbojD/c1tktPdmMRoSR4+DviId+kHRsuv52R0fn3pAraIRD6TgUBEQwF13j/1YQFfHlFsF+4wEl2SxCRADUkWtoqL/ejse/JathIOx2a1e3VPMma6dUnsOAtRbJr05mui7yfMx1kSCpGx4TS1HnoaF4/JG05GIFmboIQz40MOCYDwUZw/paIpHHnQYgtHRDQ31fYnH2SYRY3yuLbBy/y1cMzq9u7e5+LPN5IjtpLCaNfhrn/G/F3twSbsmMHShbAGy+/4Hh+DsyORfPDbhxL7QYP44Z7GBEcd1TsW5c19iryNnytM35H2F8+z/Fep7FMM4j45KMugj9/TLc6ttydSKIIzb603TOj0S+mvmQ2yFPjEjCh8PEM07xREQsGZDPI62YNgnxSdaMHTvhkRUrVrwr+mWTGxtPjMaiKsZuffAtr/XLt9wzsi4rqvplJ5rVjVMR4likBC6JUhsOP4dgMgfIBptvwBkiADKE339eX19zHrfYz2Q1sBG213R0TkF4SyTF3HlLU9Ok/eND+nehFTkSs5ReWUmQ6EcsEhE18f+cPpz5oJlMDiYyg+YsTDdWtXd0ZE3yBI3qDGbbt2K+B6uNg1+FMNCXZMpiHA/goy91EwU5+jzcSdW0m2oDkkrh0HgZ7MZ+KBHk1ePGz8RGs1LaoERgxowZ1ch6eT63rbOVXbgd2uQa+3cgGLwGGVQfhlhBgto1hkNrcIqc7DQ1h2t1o7Gx/lvcsr+Da+sJCvjxjq6Ink1OeL6JWOPQivzR7O19d2tFxRT8+5kgBItBzh5hUI/XQT3ertCJFgiYV6xrbb9MRXa0yKgnOWIbQl1ddaX0QVaem66/C81GDdbEk2aDCID625y0z1AKWw32/lV4acAGZ+cr8LqZggyXN+HzerTfsxOpt3XLvnq/+fOvy+dqK9u48iEAsP/4EtOMm11oNzCE7ASgsabmaEtnIlGZc9G1xzo6IsfIxPx8Xl9XtxKb8TSnNkWyuPauyCfz7BcZauu/ik3/MmC6R55t7VAdO+a/zHL7rEJEePVKAGbvsUc4Egzeh/m6ibmTlQA0Ntacz6JslWXyWmaxL3MDkWRs/Y3Kyspz49Gt34vb2l8T0coawqF3wBKmKADcHyy35xQCMIW+PYk01Nb8GTmLj5NVNkz+09a27gtkcqPpOX4cu8F+owurKlUVllVUioBGCCTkvhABcIWZgR//e2BaY+W12IbqceP2wylpnVy2ZCSEXdFX8V5ehxFXFXTUOn+tunrCp/3EzysBaA6Hvx5D8C3M1zEC5I54ZCcAkDNrw6E2WYI2EVESMSVC+d4Fq64Tvjn74cAoUlU7FozplHzypggCqcXjd1ncFqrvghVkxozZFrsI+W1+6mcnXgiAuCZD7pdnXaYQF8PegQAIO5t/vPjiTZjXObiOuNAyzSGsxy0J2zFNe2DO/PmPvvTi8zcnXtamxtCP4zHt20oAIDoeUpbNK5QKTmkMikLbQHhB3HWIlMKOpaJqzOzVq1f/RyY32p7DvuEZ2DdImXY+gZyIALhbdWhm7sa976kqtfBbenPsuPEHpu7kVOqMVhnhbbN48eJfY/M/uWhjZPpGjbFjcHX3sh99eiEAyWRqd6N/l5t/4tud9QpAPFG1J8Ed8BkwKP2NH/OXtQFydxPW93xHOWgcDz10Yb1XI0ds/geDZNyn6LUlG7LS82TMFOH67UlLmtmJWwIgQvKX6fq/ctiLyOawAwHAOn0EU/mIeC8EAcCLOcksL398MBb7UXV19RfF1UxDKLSNAKDzyabOVuNfs94jZPaOj1YE9ygnIkPfC7KRjeRzETnPjsdekY0hmR9dpEctaDpW2Ti8PFeNPIePxJ/xMnzGSx9EANyhpnpKSrWKi/G1lm58GpvYf931NHqkp0yYMG6orOxxxfgUvg4cv98ejQUOwZ2mmlGsQ+9uCQCMBqcNDQ6Ig4P0kJG929wEYFZNzT5bdCY1WEsmaTvMV1CzN2bWhUPiulhcJ+Ys+WhTcUI9Fe+QsPOArWWRi67dhesUEcQrb7sAtwQAm/GvkZ32Sx5nvAMBmB4K7dtvGDOFTZsgAHFdP0xj1kTOtWtTAe4SMYBSHar6L6fkhepEZ4Er9mhru2603pvjJHYWGNUdUlC3LbzUdUvazggIKOdyQEZD2AHA5cp9IQLgHjOcCpcibPMc5ZpMH2C6dTFSA9/qxwdIuV8fBIWRVl9Pz5NeN39xpw/mvRF3vSJKp8eNVFsPI97Z+OAp2TPlmrZbAoBMqi+4vK/N6Do3ARCCDeHwv2yN7ytZpjjCltcWOrEUiO3hOJk7ej+IcWIse3sJoZ7EXmhSPBqLsg0wnLSwqU303IZuXIl36NJ8fxZuCIDrBHU7Dm4HAiA0CvAg+BHU/t9IXQFAo/KIodvPHnzI4ftAOzOEPf/2YQKQ0AIYxhvuDFig8+La65WadubKSER60s4XVLf18RG+DR/hc2T1Alw7fV0kIl68kiuJj++Wnh4MXKp+xA9zkpePBBEA969F0hhQ3JW6O8noxj8syzrLywfU/Sh9qWHi1PaEutW76JO1mJr9kMXZI1NnzvzvkiVLNqdGgk2mAkZKTf29vYdrnB+NdptREFoAACAASURBVIX7rvTdTrRqaC/XtEcOyOdA4oYAJFz14jFhSZ5HcSYAUOV+DSr3W2Qd4IrvHGhApDldZO04Pa8P1/wOmt/PO7bhMWlcchN8VPX3Ig6g2Oqfgsr64cpx456qWrGiI23dWSgU2iPI+cctXT8KpOA4mS1F2pxsk2vHwM1TPWNsFkBcEIAHkD78VZX04Q64ZzUCrAvXXKnp5gOIPTFP5IYRuUdE4D/ESPinyCdjWpawMXm/4Md3ERieMN5xW/Bb1u+si8UueWXDhojbyoWSx4fpHyqnEhg2fqiUDBsz8cKirlPJEgjDnI/jJRARBF0VIgCu4BoWxrrcgHVxnZFRGHbptnUrD5RdWSzjLm8zxAkV94hQXZ6rWH897lp/CM+HX0IebtLyIlSZW3X9BlVjMHyHLoJ90vXylrNLuCAAM2Ck9z98QEXckB2KsO2Au+BDRjz+r5iudxmGEcX/xsAlsh6npg8x3TwalvQfcrIBEI0mDX07ZQnAfLK6zwmbOFHimlh82x01NF4OU8J10mDWyy7ytPy5vLzqOzBqXqWyzrNnz67s6ugQ8W4ugrzUMFXXeUflmPGz8nF5VyUAMRt8I1eQOmgFYRD4KDP504bB36rcyno363oZ3Pgm4BsxE+6mc5B3RHiAVGVzA5ytaYEN4ZqbbSPw/P777/+A8JhZsGDB+LUrVpzHg7yntbX7/SuAJJAmFuMxME6v90l9YKLXgnHciI1mUGVxCimD+yrxwjreVwlmNKmjszqfU0Mh56DSNj5afwXLFX7WjqUsWHbCmpaWB2Vymc+JALhFbJu8OM0yy3pOQYWbtQO8m+8ZNr9i966u20bj+wkV4kkIe6wUzRCn878G+4dOWbNpk9BWuS7Q5l0Bbd4O/vJZGurHVYC4+/R0FaBKALDBiyyqz2T2j5PpO5bNL8A9qwju42hTlIyRUI8gXfc7AYL8EvfhVnqRBDQb394GaAE6XYOrUEElmio2zs2TQvV1y5YtG1BoMiECTVnZQH/fslxEKqOdXtgynQJs5e6RWQYwc+bM6b09PYtVDkvQJ90IC/oLVeeRKadKAKKW9fUsV4U2iPJtCBByhUxjK4IFVVWUfdvJPX/b1Y11KAMLxd68ZVxFxZ/eWr36TTHmHVRrwpgnVl62GFYQ+3mdvGBQlsWunjt//q/89tNVHVPSA0CQEIlhI1uOhc4WqUu1qxGXU73qwIfxm/gwClclV4UIgCu4thNG+M5QZyDwLK7WZnptRWwqdly7AhuFCPjii5Wy17Gk6kHFOtFgDB8RLu5bHQs+Zrfg1P+NfMeeMGZi2v/J+oMW4GfQAnxdJpftuTIBsKxl+Hp+Nr0NES01ammf9zsyXyKqHNP+KptPIcO1qxwydFO7ta0toqoNSkwHauqrsA19XzY3ETgL1w9H52soKwLDYdN7RhbHAOR7cCgWn7x+/fpu2diyPVchACKuTiwW387eIGnQeiKIHIhK4UvWu7WkRe+D7u71sg2WtYB1XFXT3n53sU8wYHvNvT2b5VnwdONpvFSHFh7qwvWg6glgBrTrW1ojQg3mqhABcAXXDsKCBERM81GvmoDhBhGqOhAwLl+3rk1E7szbUjmfWam6OiIK5R0IU/qVfPpKr6uUbRGq06oxY5pWrly50W2/KgRAQ/s608z0+BsgHU+CdIigR0pXGy7HZeCqpRVXLbWO9bj2EkiiuuGp4iASoX911gFxZ3sW3fiwmw0aJHIvg2nC88WxXWzGm2C/tD/wfVtxyI5iiTDNW/teRijhgJNgPonUVAiAmFd6pD9x9VceLDt01dq1z/sxT5U2nIxrDPihXou45kINomSEk6vDxAmGG5fj5bgHMkU5wcA9Zx7cc+RuirpxN8Z1ugpYo1VGPSKgcRvm+jW38yAC4BaxHeUTGSmfeOLWPFx93ucBmvYGTkOXIgSsMEAruusqVIofwL2lSGXsqF0T99I1XZGFfpL/6dOn79Hfu+UN9O3sihbgXxd3nG5XTokAZDRqaOwtc+vWOV6vN1TG2BwKXRfbdoftVPjY8RMmL1++vEWlTVUZrPe5WO+bneRFVL22rohjDoXM+oqeZ3HYaB0JG62nVMerItfcWH955uk7s17SPbzBy56lQgAy+wOJ/BJIzp0q4/dLRrqxJ3MFCL9Mr+45aWNly2HZe1kyMU1BP1xQ9RyFu5UdkmzsAJxu3IBNUZq8xS/AC9EOjB1PAEVzvEdM9Mu1O4G9a19TIgD+rRrey68gidNNMqMulR6x8SxjnF+ar8WySl/pMirRNYUqcyhqz/CqQnUaE4wrkd6a/8hxJ0S8986uLpn73A5NeCAAwgXvQ4X22mhqapoVjw69JVurfI0gs7WPYGMvIdjYJ5z6hoHxWcLKXDa+1PNkjBZhkCzZg5y9JFT7y5QTd+cVptEhi9iJa5XDkQX3Sbf9uCUA+C3/trWr6zS3/eQrLyUAooNZs2Y19W7efJuKoZnSgBDC04hrl2TLgqVUX0FoSlPT8UPRIYUMeIV5wRSG6JsImPQxMMYSLjTOhWt/AgHY7t5SVkU8JwKggpK6TOJjHovdkZ//eFp/cL2qCFb8YPW6dUvUR+FNMnm1JjK8OZ7+YZB2Ie4xb/TWi3MtkQa2LGC2SkJgc4yh3q1RnFsCkLRvOK8Q88xsExvxy9iInU/ZTP9PR2cnDMD9KSKTHLcMkdDHaa/ojcatWjeZGlWukMS9fyxuzfTbpiKFTEND6BbY1jhrRHVvWlOXBKAfBGoGCJS4ZilqUSIAqRFho/ksNhoRM9lR/aY6A2Sy+hvcIM4tRM5vhJP8vBWLSjP75RMiV3WehZabPHnSodGtutRoxGs0QCIABVlBJgJVcd2+TtX9SToKrt0bise/uWzjxi6prEcBZBf7UTwewwk8d8GmuPoT8+fvXUgDYGi9HsGW9CmncRiB4BfgRumY2W+HTTYcPgUHHaU6wuq9qnrC1GKFccap+WzEHZAmj0Lej+mqLnKy10DFvsitnUfStbEdBK7Csf8CZ2dNRMtjmrNb9LYU8a4NeN0QAETnu6wzErlCthaFeO6KAIgBYGOdgEAlV+nMOktmRKE0YOHryK2r5sw74AY/Pxh4yc7EvZXwN3YsYF7fAfP6sUxuND9HIIkDEUhiiXSMpAGQQlRsAZH9a0MgcC0iVooAK0qhuB03X6jeLVv/Pu4SxUbhu6EgXGuFYW2z0xjwQfs2PmhSa/18sFaJWQLC+0u4jIn47srFjQbAi9W78kCyCAof7ndWrRTJv8qd2jHNwCUtbW2wrs+/1NXVvi1LToND1L5uwjCrfZvZhjnz5tX7uSdkQcNEJMceWfC7uM1rcEhd7wZNFwSgKFEcc43dNQFINZRQDcWNK8HCT8LfeW4n1Z4wpCkbM+aUVatWCeOivIuqYRyiPok71Cvz7nAEG1DVAMAN0JPBI2kACr+4wrAOBuTXQMV7lB+96Rp7JVBRcYpfJ0ExpqTx3+sSAhLD3X9DIe7+0/tVIb0iMmB7e2R/N3i6IQDQMMyDhmGpm/bzlYXm44+Z7oeZbYJFvgGDPLxP+RXFE/KrOCF/1E1PKtobE5kVW7q6XQfRcjMOIasSyhl2FYeCUD/tpm1VAgAt+OMw5pXGcHHTtxvZvDdu4VIRHei9BqEAF7rpOJus8L20uHWuH5mtkhm6fisbE9jy1WDLUj9UWTsj+VzVBsCtqi41JyIAxVvdcDg8H7+Da13lEcgxPGGIpxtlX2ppaXnIjxk0NtZ/x4rFr3VqS1zr4YPmC4lx6iehiYxF35PMqw8R0kRaZmWDYxcEYB3aFinUldv2Yw2QdvgwpB1+QtbWuKox+6SCvchkcz0H4fsptKiO8RRw3fNVxHiQXkuk+kjEZ1m6dJPs1F2s7KzYJ27Fb+2rzhixC9ymC1YlADiUnSoS9nhdo3zr5U0AttskotErfTFsgrU6M82v5RNNUNUIsFhMM9+FcqoPRr0Ip4L7ZH0gTOePkfPgOzK5zOdEANwilr98Y03N0ZZpIPqdjbSeeRWOj8yN+MhcjFby8lFXcdsyAubFra3tXsKJu50kw3UEgqU5J46pqh470U08AFUCkEwfKzLHFbsY9XW165A4qd6x4/yT2qhk/usv2zpU58b9EQR3NrxgHLM2IhPQltauyATMz/crrEzMVNwBvWQ3VCUAuD6pc2uo6ucL5xsBSA1K+N/HBgevQtCTA/MaKNNfjMZiR7ixLE3vTzV6FtQ790C9c0peYx3hyggScg78y2+TDoMiAUohGm0CCM19CH6k14FYu1KzZs5DGICGO7tPyscnHxtPm2zjsTV2QLHShEN9uwG47OG0ZrDx+SAOEtKUuqk2VAkAM/j5yNzo6BtfqHepsaHhaise+65T+yL2Slt7ZKrXMShl/vPgVqxiyFjE9MaIRBhGhEruHB1V1+5Dtlhx1a1cFAnAemiRfDGoVx5YhqDvBCDVfsIPn/Mr8vlw4Q7vmZqaumPcxJYe/iHX1+8H9ZXIxuZMlDX2XFtX1wKZ3Gh+rhonHerZz0M9K8LJuiqkAXAFVyGEdZy+FzGuX4aP1SyvHWD9H8T6CzdQ15oAYYC26u0Vm+R9swtwglOOBS9vL7eExdiPZATA7f2tKgGoLK84sJgR29JREMlzkK9lhQy7fNTowOG38Ib4glMfZtCe09Ky/iXZONKfKyWPYvpTCFqv4MLtpuecsnNhgHuqU0teEi2pEIBiEp1c8ysYAUh2yJqbm4+NxaK407RneFmuJEjCSMJVBMFEDHbTkLpD5cuUvczJ7zr4IPwSH4Qzpe3qxkFQBT8rlcsQIALgFrGCyRsgeyeDWF+Fja/RSy9eNV4wNP0gXE1F2NaSKpjvsdDwyWNkJGelSgDcXi34DRreg6UyOxGvV34ie16ks0PEwM8Z/M2roaGKAaDfWOXbnjCoxSHRVW4cJQJg8p+2tnVfkO/48qlfaAKQGNu2tIThL6ow9myT8WipzxrqagdkLjOCWIRq68Z60TLkA7yfdRvC4SUqVy6hWLzWi484EQA/Vyv/tkSWQV3XzodBnjBerXbbIjxuvoKoY3e4qZewSdCZpyxsbvrxWzYYCJ60trVVah+T6leRAIj86yKOvKtDiZ9zU/JyYnorggI1o19Xhooqmf8Mr6GW6+pe25YGuXQK49rr7ZGIqzGrEICR9P9PoV8UApDqTCSVMAztKgQTEsYzbnye4wGbz1vX3S1V6ae/Vio+rEK+imv7rYxEXimdV3L7karchQqLcNwJjvcyRyIAXlArfB1ofhqQE/zHMrewLCPpx8l4tpvkKji5nYp+7i78rHzuwaWVtSIB6AcB8CE0uve5JrK2VlaImACyYDr7Q+v3spueEHHwMSd3VHipbMX7UwfbCpkXxg7d4pvcCm2wiK9fOkXXV8LV0ZUGW4UAwHvetXeB36AVlQCkBg8DvSNsQ/9DeiYk2cSwgf0PG5hgYcpsVjGPNsyI3Z+IZOMt1nMRSCYSMKU5wL34RKfmQASgWKvprZ/m5obPxYZiIuhVlWoLwr4GPvIHq8qrGG+ptlVUOa6dhvDXUnfg1JhUCEAySYxzZr4iTBJ2Ib/HYcrRgNmtBbtI8xwwtQ6nIG9wJ/49Mjw62gfkmr7KYaUI0LnrokAEYCSS/2ROfEQIgBgEPih78ljsIUSw+6DqasBl4ji4TDyiKo8T0rdxNy6P8ucxQp7qOAoph7jyn0GSkAdlfcAa+iYwdpGT3XUhAuAasqJXEHf08Zj+ED7ceyp3rhvKp0PcOV+AO+eCxPZXHq8XwUIQAIQ6hu/7NC/D8bNOwkOE245Z8hCuuKOto1vYiyi51KHNr6HNW5zGmY8BJFw3+9wQVT/x8txWgQiA2+spz+N3qDhiBECMabfddhs7pqzsGVhhKiWvcJtyUnXj0nT9Xah4Jqn+SAqxEF7bVAtkgda5diJOQvKMgVkGooojGO1MN2plr3OmetkRSORtN43nlQ1uufYo3oljVfAkAvA+Skw3VrV3dExXwa3AMjpO1GtlBqG4w16AO+znVMYizfy3LTa+8ERR1sSm90sE4H00dnkCIKBIqrBfxb8q+UPC+nYWAntIXWBE2yLlY3kwsFEl9So2r7nYvP6h8iMZTTKqdg4IBtOAu8B2L2MnAuAFtZGpgzgc04YGB+Dur2QcaFePGz9JJZkNXQGMSgIAP/YaxPxnzpFMdePn+O1Lot1t08oi2dAqzDTnwRAG2d9C6PQbvL7d+F5tBEHd3Wv9EalHGoDCwq4aylaMwm0Ajtpw+HHcWR0unwH7BcI9niOXGz0S06ZN+/BAX68gT47FixVreoNEAGQIj67naslWto1Z9RSCzeF0bA53ymaKxCljCpW+Vda3H89VbABGkQYA+RmU0vWKgDN1wMcx/gNssy6JMy1nVjoY/0Vjll0fiUQ2eMW6oa4GWQCZGEvOsjOEZ1cxAlT97XnFWqXeiF4BpA8QqqdnYHn6Semgde0xRGU6RiqXFFCNkoeXe9PBhy6sveuuu7aqtj3ScohiBSbO5Qkz8gwLSgRgpFfadf96Q33oNdgDSBPC6Ez/dVtnpzSGBAjAsSAAD8tGggQ5eyJBzhqZ3Gh9XmoEQOCoktAmWG4vXLt2vaO9AE7nKxyvj3ywlWoIh/4HY4R9nNZ/BMMs+/ZaEgFwCaVqPHvYAaxBpitlQyfcXdbDeKkFw5G6HcLI8BwYGf7C5dBHRFz4giPS4Tp0LmwXHAuuNz6K6w2ppiBXI0QAZAiPvud4P87F+yEPVcu1l2AHMEc2A6XMcGikVK/SUvMvRQJQX19zBrfYrxw3VQnRA8H7GAieoyu026iK2cbTWFvzpCxxXLESSsne+XyeEwFwiV4y1Oi7Chu1yPDlKvgJftR/RVhLacpFhDBdO7ErMiOfeOkup+1ZXMVaVzSer/pftEEEwPMyjVjFpC3AStkAVCNhglDUgVBIbUjMYNnxfmUflI29EM9LkQDMmDGjum9Lj4h6mtMNVGg4PzFnbuj++++PZt2YG2p+YsVZTi+h5HsiPB88Gf+l+oRr9p3wRzjdce2Y/h8EMFIyDC/EO+BHm0QAPKAIC9G1qNYsq4rIfVVuIve5sTFwm95SNtZCPEcK5rLB/v638VtskrUP97/z4P7n6NYja4MIgAyhUflcRMLslwaK0bTeZMpc2SR0/D57IOQYAAdatB9Ai/YjWWOj9XkpEgCBpUrsfsPmx7R2dz+WBXujNhxqx31wKPe68O91dHVfk++64drye/huyd4PccgTQctGLNJivvMkAuABQdxlLVNJHjRtxswJS5Ys2eyiCwMv3jsqG6ZgytG4NROGTOtdtF9U0aaGhh/E47ErFTrtA1YNLrHaoVkiAApIj0IRFYMrvO9DbR2d5SrDl7qIiUZc2uio9FtMmVIlAHU1NQdpOvu7E1a5AvhA/b8Q6v8nc9XF6T8WGrIaX9mwIZLvWqiGlIbNwodgs/B6vv2NVH0iAB6QV3VpS8bhdpXRTCl2dnLMMIz6IwyjTvYwhYJXEa46sGn4n8LJTvOaDCRzEkQACr6sBekAhoCbYQg4zrHxbTEwHFPqpuo3hmt+YSFqpmSwfchCt8fq1auHCjKpAjdaqgRAUC9oaHDIya1BxRXnFtswQ9AIDqbDiG/j3U4Z8UQq6c7O7s/4AX0ifDW3W2Vtwd7gItgtXS+TG63PiQB4WBmA1gOdz1hJVVWVZWYzJgjGm7ByVQrgMRrDAwvV/1B/3/OwolXJTNVvcW1yPi47KQCJAHh4mUe4StJIVJqWF1deylHtcJX2WYSe/aNsatgwPoUNo+QSB4l5lTAB0Job6y+PxeKXOq1Ppo1GMvOfONnntKuC7/+R8P1/XLbuqs9BTFfLIlbmE7pcdRyFlCMC4BJd1fS9Wh4GIpMbG0+MxqJ/UhmaSHhhxK0FbhMQqbTtVUY56l+iA34V7uwu8dpXej0iAH6gWNw28K58CJqi12S9co090dnVdYRMTjwXceINponNwtmjpoSvAUqZADQ2Nk6xYtHVWJ/c7t26dh/cqE9Krbec1LEWxEeZAnmlUMIq7xGuY3+O79PZMtlSvgYgAiBb3YznqpHGvOYzT3bH4IbyhMwNZXhoUI+Oq6g88K3Vq990OR3fxYHP93FPh6hfKoW1hGpr93JjKOnUKhEAFcxHl0xtKHQZY9oPZaMyNf6Tlq5ueSyJZEMqeegTm4VufBTR5/4r63+0PS9lAiCwVEgN3osrmompKxpZwrRCpKxFwKEjEXDor9K19yHugLSPAgmUDAGA2uiHW6Px+6AqfqtAWCg1W1db8yKciOfKhPNVzcM9qjE+OPA/hauGxFCgIu2sHjNm4UiSAEXL2fd5i8ukSTLMiQDIEHr/OTbI/xs7duzNy5cvF7EnRqqI6643VHICuE2whfl9BZoFeawMrv0d8QUOBQB5uY0VG8CSJwAKERsDGjt8XVeXMPozYSi6AZH5cqUJt0Dkmr2GEHdYOxNeB23OXgeJ2hyBpeYjsNTSYr8H+fZXMgQAAXjuhcLoKGx0FyHD1e0J9l7k0hwKnRZj2l0K3XLELp+C2OXrFGRzisDo5SwYvdyh2gasYHssWz8BRilPq9bxQy5x59/Xd5vNtC8pt8e1O/HhVZdXaJgIgAJISZHECUxn+zCmnw9jK3FfXvQNEPf/F8Fn/zrZqIUHQP/g1knvvffeFpls6jnUzBOsOOIBcLtSVgenx691RiK3yeT8fL5o0aJgLl93lX5KnQCI/CdB0xAxAXK6a+Jbfwu+9eeFw+H5usafz4lLAa9ymhpDP47HtG9L1wRx+KPR2OwNGzaILILFKgxBCMx84sGUGgFI3AnhPvDf+Fp9s6ur64ViIb3X1Kl79wwOPKeSIAKMcUl7V0QeLlhh8DjJ3IWTzGkKoimRONjwNaGOjivzeTFU+8NH/APMsn5ta3xf1Tqwj1gRt6yP+R2LnQiA8gpsp4IV72t51ZgLoW79j3oL+Uk2NU3a346bf1fxEsEP/k8gi59122NTuObGuMYukNUTsePLAsHDVq9bt0Qm68dzsXnj/HIActXLPBVydlfqBEBMTCHYzjp4Uk2WGQ3iuvVYHHoe9WNtMtvAlWYtvr/v4D2Vu6By7S94Tz+NNgoeF0Akp+sKBH5TXlFx/po1a0RiJE+lJAlAaqYG019gtn0tLD+fwN8VTCOQ/Fg9hpdgNxWU/UyecPrpp5c//fQTS5B/4OMqfQ/L6PqrzLIvUE2v6aptCGPj3w14fNvQ7QthKRtQrS/iFyBRx7xCXOUQAVBdhex3sAht+nh5WdmPsRGKlKwF0wjg3TkcJ/8H0EfOiHDpM3GTJja9nquPt6b1aTY/tqO7+xl1FN1Jzpo1q6mv572f2pwd55XUpHrcGQhAfSh0IGeaI+lCgLB63bZvtbidNR20rvOOto7uZuDiyt3azcq5MWrGb+iB/efNOyUf7Y5kbDo0w2dYOrtGHEbLKiqn77IEIG2zawNLu7uqetwfVFPwqrwAkyZNqgkEApeh7bMgb6rUEdoJWCsL9zffPqDiQwbDOnG/JF50VwXs+MmysvgNCFYhgm/kTZKEf79lWWfCR/ZraM9VqGOhyi0Pli1ctXZtbnWeq9ltL0wEQB08JyMskUWO6frd0Wj0HmhpRNRLX4qwa4kODl6FcNc4ActzXohOBSlp7+qShsfONUAXwaigONNiVlz7Hq4DbvTjt5Ia0/Tp0/fo6+u7EJqW84evJDxqNXYmAiCWF0l3VuOjJKz3sxYQgCNYPH4zrhenZpfwz4so1xjE+vX39S3H2inFodA19opmmp9DpEkR78C3IowSY4xdjkBJH0s1SgQgA17hL6wz/hdua89EGfunW/9y4W+6aePGI2Kx2PE2t0U2P8eQohndC/X7fBijvOzbqicbmjlzZnNvT88SlSiBOX5KLQHO/8Qq7Kd3261hqarlvbjfx0l/36HB/vnMYMe61kQkByM2f2BzEn4Uj/iNTao9ZQIAlzKm895CjSNbu4yZF+CuvaOYfTr1pWCFnagOFvsm/u8x3TSXYA3/CUOnTW7mMGXChHHRqqqjNMs6nunsSCVV6vsd9IPAzoZ6F+GkvRVx1770xRf+g813b+UW4MIbLItfDNIsbGk8E/lEGuyBgS/jAPGFHb4jRAASywEvkEvhBXJ5rrUR1v14fhmeZ3PptGFrtWe+tlYq7wVs0E4FG71bRVbI4LcyaNvWjdXjJvwE4xO5YzwVYStRVlb2WW7b52SLPksEQAKryMqHU/kKxvkaI8g77Jj+nhYIDHDOTZxkq0xTH4OXbA/Nik3lzNyb25ZgowhG5aX4E4c6V881NTWTTcNYgheh0cvoUnXEScfm+lrNst/WGOsAFj1GINBrMB7UovHyqK7vpnNeyxmbojNtCj7awXz6Q90+WMkeh83DMQRonn0oJwPKtx8v9RHYZC8kn1nupW4h6qgSgIy+sR8bq7llrWCmKVLpduqWtdk2jD68I2X46FXpulbFYrGauM6m6ba2F053zTk+3tJpIVDPGQjU8xupoEQgYb/T3ydIuRsyL3acNzQzcC++E38DCfkf6juqmcW1GGT2M+PxT+KkhsMDn5VzaEQAEtBsO9hsFifl7DEbmL4x18lbaDexLofn+36o1q8P1/wOe8nnVeUTckwfwN7zoBEMPoyN/HloqDdK6ht4j/bCN3kOSPORYBKHOBmyEgFwtRqFE07mKxdXBZ5PDCqjS9xrxmN/Voyyp9JkQWUEAbNYwjPBc5pf1QGqagBU2/NTbichAH5C4tiWYQauaW1rQ0IWfwpOcCfgBCeCa0nTbWftUXzIbXs1ftwtjHGRbGiA6yzIbDaGMzsMotwMN7U65dESARiGCrkb/g7N4kHK2CUFy4JlJ6xpaXnQbT2v8omolbYNN3D7o17bACFoxea+DhrIbvy5GRpr/MHGMlOrhi1VM7xyJqt4rqT6JwLgeSX8q5jc/IVF0Qod4AAAC+NJREFUb8GtP8WoE4aBTz55B94doVocvYVrj06bOfO0fJP8qE6QCIAqUkqBWNQb81kSJ7trQRi/63OzwnD1TBgfChdibyTAzwERARhG0616PVmxO9QVaSiGp1P6sosokwFT+zs26w/4+Tp4bYsIgFfkfKgnVOl6XPsuvBBu8KE5102IuASWod+o6p3gugOPFXBKiuiGeSHuvO/x2ISnakQA1GHzeAWg3oEHSXFvirwQX8Pmf6eH6kpVoEE7HXfyt/twraXUX04hIgDD0OBqs8rUmYgJoGxUjGvb62CseXF+i+CtNsY7KRBgj3q1h/LWa/ZauwwBaGgI3WLHNWF5PjqKzl/j3PhSMVTbThMWuQm6TPNmaANOGAXA9CGz32360NDVazZtEmrSohYiAOpww43sAbwzx6vXKKykcOmtHDv2TBhMrSxsT5qWcOsd0h+AZXltofvK2j7TX7Rs+yv5uMLuDG6A6dg0hEK/dhFIjDPDmt7evkHkExiRkgh+NjBwKwzFzxiRAWhaP4yqL4HB+c/Qv2fNc8nEAcAkGaJ7nRKPRS92ZdHr++qwFlhE/xDW7L/LB3i/hwVf1U/gfuoyuIgUzSgmbQ7dMH34Fdwwf6pg5OL31IfbIwLgCloTH92z4Nwq4jjs6aqmn8IICgV/5ksQQEXc5RbUfiZ92AsWLBi/5u3l1yJtsLDbKcqVgPBQYsHg5TCG/UO+c93ZCIA02l/a4iED3zPt7ZGD/XwNvbaF7+5R0CjdgvrNXttwWQ/2tTrSImuX4/DZ5rLuDuKlRACGBy9eFpPzE21d/1S+FvGKACLQnfYsZH8RikQeKfa9k+IYE2K459wPfrNfgevMCap5BNy0nybbCx/txTZjvw13dj4+GjAhAuBpJXWoxQ+xrOgJyHFxjELcc0+dZFSK4/f0uGYYt+MEI9K35h2fwuugtrnq9X4XIxAatEIQAZxWtSW2zW+HR4MgOb4ErNnZCABwYSCkK3P7+7+/wvAO+RywvNfrmvtdT7iOv9vZeVZMZxeCzDb43X6yvfW49rjT4vx2P2NzlCQBSAe4qalpFtx05sKUch4OEB/EL3iWS1/jrOslkuvADe4ltPfkVst6dP369Tjllk4RFqu2HTvW5PoRFmMLfCNKsGKFe8oX5xxwwIsFjHblCeht4Zr7hM/wqCujLQ5ADoB0vDd72/H4fLgfzUWUxw9oXJ/hy3053hv8lpaCMD7OGPsr7EPeG02LJNzRtg5s+mzMMk7ER/zDYkPyOj4R7ZLb/CXM9W9o41E/TmqZY0FQpXlDQwPnO42Rc70LfX/d6zyKXQ+naRg1WyL2Ss6icz1eVln5xVSWwGKP0am/RMyJpUuFBvYk/HaOgmZtXB7js2Fj9iZyuzxrmuaj0BqJ6Jy+kMf0MSWu1m1tktM4TdP+SUvL+pfymEveVd38GOFHOXGyaVbtExsanIVQk5Px0kwAQZhgMDYe954TxGigPYgbNu/F0b4XzCoC3eOGIGPvxA3j7erqaiRJG9EsaXkDltlAIoYAY7ONoLlnPB6DytdoNLg9getGGbOtahzBmlBHKf6B3y5avk+WGvQTAROR0Kb2b9myD0JhzsLvpkn8ljSDj8cGMwFhWhMfOZvpUYPzftvgPbatR7AJInubvQpRKFfG42Vv4sqs089BFbKtRCIhy5pj6vpH7FhsMjfxDbHYWMx9LH4r234jhtaPb0Y/j2sbQGw2YLN/Bw5dK6vGjn0D12AicFHRrjMKiQW17RkBY/LkSXtHo4H9QSinw1V0ssHhJmpoFbixT4TAxrfXwu9nC34zWxh+MzbnXSDeK5FbZcVANPqqm+RXnkdZIhXdEIASmdLoGmaCfSOcMkalhLVpBi5paWu7anTNgkZDCBAChAAhsLMhoLQp7WyTLvZ86sI18L1mV6v2C3/ti6BivF5VnuQIAUKAECAECAG3CBABcIuYR/m6cBgxDfg3VauPpD+u6hhJjhAgBAgBQqB0ESACULy1Y8jT/RtYRZ+u3KVu/BzW3OdCfsSsuZXHSoKEACFACBACJYUAEYAiLtdsTQt0hcOPuokpgAyMD1dWjz/17bffLmqWvSLCQl0RAoQAIUAIjAACRACKDHoiPKehPQnf8LmqXRsae6ty3LhPFyOam+qYSI4QIAQIAUKgtBEgAjAC6ydyUVcEAn+zuD1ftXv4SG3hZuA7cPsSSVfIFUoVOJIjBAgBQoAQyIoAEYARejEECSg3zccQL+FAN0PQNfacZprfAhH4t5t6JEsIEAKEACFACKQjQARgBN8HcR0Q0NljOM4vcDsMuAo+aVrWLcHq6qdcRu9iiM42ja4T3CJO8oQAIUAI7FwIEAEY4fUU8a4jHR2PIkyQpyQcCGvZY3NtsWGYy/SY9RriFHf0GEYPwlz21QwOlvXuvvvY3t7eOsbiU5ht7M+4fRDX2Ma2rq79Rnjq1D0hQAgQAoTACCJABGAEwU91LWJd//PFF39pafzUYgwH1wivEAEoBtLUByFACBACoxcBIgCjaG2aw+GvxzR+I4ZUiOxpwzMlAjCKFp2GQggQAoTACCFABGCEgM/VbV0odIJu6L9FwpeKQg2NCEChkKV2CQFCgBAoHQSIAIzCtUIe+Y9x276H29a0QgyPCEAhUKU2CQFCgBAoLQSIAIzS9RJugsFg8DpkEjzb7ysBIgCjdNFpWIQAIUAIFBEBIgBFBNtLV+FweLau8x8iG8BRqO/LehEB8LISVIcQIAQIgZ0LAV82lJ0LktE5m1k1Nfv06vpFTGcn5GsfQARgdK4xjYoQIAQIgWIiQASgmGj70FcilwBjR6Kp46EP+CT+nOSmWcQN6LLi2m87I5GL3dQjWUKAECAECIGdCwEiACW+nvX19XWc8w8jKuDMOOPjOWfjkDegyjaMIUPXN2uM92gxaxPjvL1ywoQ3ly9f3lLiU6bhEwKEACFACPiAABEAH0CkJggBQoAQIAQIgVJDgAhAqa0YjZcQIAQIAUKAEPABASIAPoBITRAChAAhQAgQAqWGABGAUlsxGi8hQAgQAoQAIeADAkQAfACRmiAECAFCgBAgBEoNASIApbZiNF5CgBAgBAgBQsAHBIgA+AAiNUEIEAKEACFACJQaAkQASm3FaLyEACFACBAChIAPCBAB8AFEaoIQIAQIAUKAECg1BIgAlNqK0XgJAUKAECAECAEfECAC4AOI1AQhQAgQAoQAIVBqCBABKLUVo/ESAoQAIUAIEAI+IEAEwAcQqQlCgBAgBAgBQqDUECACUGorRuMlBAgBQoAQIAR8QIAIgA8gUhOEACFACBAChECpIUAEoNRWjMZLCBAChAAhQAj4gAARAB9ApCYIAUKAECAECIFSQ4AIQKmtGI2XECAECAFCgBDwAQEiAD6ASE0QAoQAIUAIEAKlhgARgFJbMRovIUAIEAKEACHgAwJEAHwAkZogBAgBQoAQIARKDQEiAKW2YjReQoAQIAQIAULABwSIAPgAIjVBCBAChAAhQAiUGgJEAEptxWi8hAAhQAgQAoSADwgQAfABRGqCECAECAFCgBAoNQSIAJTaitF4CQFCgBAgBAgBHxAgAuADiNQEIUAIEAKEACFQaggQASi1FaPxEgKEACFACBACPiBABMAHEKkJQoAQIAQIAUKg1BAgAlBqK0bjJQQIAUKAECAEfECACIAPIFIThAAhQAgQAoRAqSFABKDUVozGSwgQAoQAIUAI+IAAEQAfQKQmCAFCgBAgBAiBUkOACECprRiNlxAgBAgBQoAQ8AEBIgA+gEhNEAKEACFACBACpYYAEYBSWzEaLyFACBAChAAh4AMCRAB8AJGaIAQIAUKAECAESg0BIgCltmI0XkKAECAECAFCwAcEiAD4ACI1QQgQAoQAIUAIlBoCRABKbcVovIQAIUAIEAKEgA8IEAHwAURqghAgBAgBQoAQKDUEiACU2orReAkBQoAQIAQIAR8QIALgA4jUBCFACBAChAAhUGoIEAEotRWj8RIChAAhQAgQAj4gQATABxCpCUKAECAECAFCoNQQIAJQaitG4yUECAFCgBAgBHxA4P8B8hvcdz7knigAAAAASUVORK5CYII=;" vertex="1" parent="1">
          <mxGeometry x="190" y="130" width="60" height="60" as="geometry" />
        </mxCell>
      </root>
    </mxGraphModel>
  </diagram>
</mxfile>
